<svg width="19" height="18" viewBox="0 0 19 18" fill="none" xmlns="http://www.w3.org/2000/svg">
<path d="M17.8155 3.73755L14.5544 0.459771C14.3389 0.245362 14.0472 0.125 13.7433 0.125C13.4393 0.125 13.1476 0.245362 12.9321 0.459771L1.37103 12.0042L0.315477 16.5598C0.279064 16.7263 0.280313 16.8989 0.319131 17.0648C0.357949 17.2308 0.433357 17.3861 0.539846 17.5192C0.646335 17.6523 0.781214 17.7599 0.934631 17.8342C1.08805 17.9085 1.25613 17.9476 1.42659 17.9487C1.50602 17.9567 1.58605 17.9567 1.66548 17.9487L6.27103 16.8931L17.8155 5.35977C18.0299 5.14427 18.1502 4.85265 18.1502 4.54866C18.1502 4.24467 18.0299 3.95305 17.8155 3.73755ZM5.71548 15.8931L1.39881 16.7987L2.38214 12.5653L11.0321 3.94866L14.3655 7.28199L5.71548 15.8931ZM15.1099 6.47644L11.7766 3.1431L13.7099 1.22088L16.9877 4.55422L15.1099 6.47644Z" fill="#333333"/>
</svg>
