<svg width="24" height="24" viewBox="0 0 24 24" fill="none" xmlns="http://www.w3.org/2000/svg">
<path d="M21.4019 9.82023L21.3739 9.35H21.0914L21.668 8.29132L22.4941 19.6562L22.4943 19.6586C22.5716 20.6553 21.7843 21.5 20.7828 21.5H14.5082C14.7487 21.2067 14.9301 20.8596 15.0322 20.4735L19.0404 13.1152L17.5628 20.4006L17.4412 21H18.0528H20.7828C21.2491 21 21.545 20.7614 21.6865 20.6022L21.6891 20.5993C21.8 20.4725 22.0243 20.1658 21.9917 19.7072L21.4019 9.82023Z" fill="#6A5ACD" stroke="#695ACD"/>
<path d="M10.9671 2.1201L10.9666 2.1221L10.6401 3.45136H10.1273L10.4776 2.00125C10.5091 1.87868 10.6424 1.78868 10.7865 1.81791C10.9193 1.85439 10.9987 1.99382 10.9671 2.1201Z" fill="#6A5ACD" stroke="#695ACD"/>
<path d="M17.5644 2.10138L17.5641 2.10307L17.2692 3.46859H16.7532L17.0712 2.00579C17.0712 2.00566 17.0712 2.00554 17.0713 2.00541C17.1041 1.85664 17.2432 1.77942 17.3631 1.80639L17.3656 1.80696C17.5165 1.84008 17.5929 1.97158 17.5644 2.10138ZM18.0528 2.20859C18.1428 1.79859 17.8828 1.40859 17.4728 1.31859L18.0528 2.20859Z" fill="#6A5ACD" stroke="#695ACD"/>
<path d="M21.3575 5.52207L21.3626 5.53437L21.3683 5.54637C21.434 5.68426 21.4746 5.86 21.4915 6.06293C21.5068 6.24638 21.4919 6.44232 21.444 6.64286C21.4439 6.64348 21.4437 6.6441 21.4436 6.64472L18.0746 20.1706L18.0745 20.1706L18.0733 20.1758C17.8878 20.9565 17.1922 21.5014 16.3798 21.5014H3.23975C2.07577 21.5014 1.2335 20.356 1.57776 19.2181C1.57791 19.2176 1.57806 19.2171 1.57821 19.2166L5.78724 5.66976L5.78753 5.66881C6.01279 4.93866 6.68887 4.44141 7.44975 4.44141H8.84556L8.45399 6.07293C8.45391 6.07326 8.45383 6.0736 8.45375 6.07393C8.28814 6.75528 8.70653 7.42099 9.36849 7.58648L9.38786 7.59132L9.40756 7.5946C9.41044 7.59508 9.41348 7.59559 9.41665 7.59613C9.47132 7.6053 9.56728 7.62141 9.66975 7.62141C10.229 7.62141 10.7495 7.24419 10.886 6.66775C10.8862 6.66714 10.8863 6.66653 10.8865 6.66593L11.4231 4.45141H15.5109L15.1509 6.12635L15.1509 6.12634L15.1495 6.13335C15.018 6.79047 15.4332 7.43982 16.0799 7.60205C16.2096 7.64334 16.334 7.64191 16.3723 7.64147C16.3753 7.64143 16.3778 7.64141 16.3798 7.64141C16.9534 7.64141 17.4653 7.23974 17.5972 6.66282L17.5972 6.66283L17.5985 6.65707L18.0732 4.46141H19.7498C20.501 4.46141 21.1023 4.90339 21.3575 5.52207ZM6.69975 17.2514H14.6998C15.3859 17.2514 15.9498 16.6875 15.9498 16.0014C15.9498 15.3153 15.3859 14.7514 14.6998 14.7514H6.69975C6.01361 14.7514 5.44975 15.3153 5.44975 16.0014C5.44975 16.6875 6.01361 17.2514 6.69975 17.2514ZM7.69975 13.2514H15.6998C16.3859 13.2514 16.9498 12.6875 16.9498 12.0014C16.9498 11.3153 16.3859 10.7514 15.6998 10.7514H7.69975C7.01361 10.7514 6.44975 11.3153 6.44975 12.0014C6.44975 12.6875 7.01361 13.2514 7.69975 13.2514Z" fill="#6A5ACD" stroke="#695ACD"/>
</svg>
