<svg width="24" height="24" viewBox="0 0 24 24" fill="none" xmlns="http://www.w3.org/2000/svg">
<path d="M15.2631 21.9984C15.2031 21.9984 15.1331 21.9884 15.0731 21.9684C13.0631 21.3984 10.9531 21.3984 8.94308 21.9684C8.57308 22.0684 8.18308 21.8584 8.08308 21.4884C7.97308 21.1184 8.19308 20.7284 8.56308 20.6284C10.8231 19.9884 13.2031 19.9884 15.4631 20.6284C15.8331 20.7384 16.0531 21.1184 15.9431 21.4884C15.8431 21.7984 15.5631 21.9984 15.2631 21.9984Z" fill="#695ACD"/>
<path d="M19.2087 6.36148C18.1687 4.26148 16.1587 2.71148 13.8287 2.20148C11.3887 1.66148 8.88875 2.24148 6.97875 3.78148C5.05875 5.31148 3.96875 7.60148 3.96875 10.0515C3.96875 12.6415 5.51875 15.3515 7.85875 16.9215V17.7515C7.84875 18.0315 7.83875 18.4615 8.17875 18.8115C8.52875 19.1715 9.04875 19.2115 9.45875 19.2115H14.5887C15.1287 19.2115 15.5387 19.0615 15.8187 18.7815C16.1987 18.3915 16.1888 17.8915 16.1788 17.6215V16.9215C19.2787 14.8315 21.2287 10.4215 19.2087 6.36148ZM13.7188 11.6215L12.6487 13.4815C12.5087 13.7215 12.2587 13.8615 11.9987 13.8615C11.8687 13.8615 11.7387 13.8315 11.6287 13.7615C11.2687 13.5515 11.1488 13.0915 11.3488 12.7415L12.1987 11.2615H11.3587C10.8587 11.2615 10.4487 11.0415 10.2287 10.6715C10.0087 10.2915 10.0287 9.83148 10.2787 9.39148L11.3488 7.53148C11.5588 7.17148 12.0187 7.05148 12.3687 7.25148C12.7287 7.46148 12.8487 7.92148 12.6487 8.27148L11.7987 9.75148H12.6388C13.1388 9.75148 13.5487 9.97148 13.7688 10.3415C13.9888 10.7215 13.9688 11.1915 13.7188 11.6215Z" fill="#695ACD"/>
</svg>
