<svg width="24" height="24" viewBox="0 0 24 24" fill="none" xmlns="http://www.w3.org/2000/svg">
<path d="M10.0407 3.15016L10.0411 3.14985C11.1253 2.27904 12.8656 2.28414 13.966 3.16073C13.9661 3.16084 13.9663 3.16094 13.9664 3.16105L20.5121 8.39756C20.5126 8.39802 20.5132 8.39849 20.5138 8.39895C20.891 8.70711 21.2177 9.18942 21.4284 9.74099C21.6391 10.2922 21.7176 10.8699 21.6443 11.351L20.3854 18.8845C20.3853 18.885 20.3852 18.8855 20.3851 18.8859C20.1355 20.3188 18.7412 21.5 17.298 21.5H6.69801C5.23354 21.5 3.87054 20.3476 3.62098 18.8965C3.62092 18.8961 3.62087 18.8958 3.62081 18.8955L2.36117 11.3576L2.36098 11.3565C2.27883 10.8718 2.35256 10.293 2.56269 9.74192C2.77281 9.19094 3.10353 8.70909 3.48985 8.40086L3.49072 8.40016L10.0407 3.15016ZM11.998 19.25C12.6842 19.25 13.248 18.6862 13.248 18V15C13.248 14.3139 12.6842 13.75 11.998 13.75C11.3119 13.75 10.748 14.3139 10.748 15V18C10.748 18.6862 11.3119 19.25 11.998 19.25Z" fill="#6A5ACD" stroke="#695ACD"/>
</svg>
