<svg width="13" height="13" viewBox="0 0 13 13" fill="none" xmlns="http://www.w3.org/2000/svg">
<path d="M6.18375 0.339844C2.78942 0.339844 0.0234375 3.10582 0.0234375 6.50015C0.0234375 9.89449 2.78942 12.6605 6.18375 12.6605C9.57808 12.6605 12.3441 9.89449 12.3441 6.50015C12.3441 3.10582 9.57808 0.339844 6.18375 0.339844ZM8.25361 7.91703C8.43226 8.09567 8.43226 8.39137 8.25361 8.57002C8.16121 8.66242 8.04416 8.70555 7.92712 8.70555C7.81007 8.70555 7.69302 8.66242 7.60062 8.57002L6.18375 7.15315L4.76688 8.57002C4.67447 8.66242 4.55743 8.70555 4.44038 8.70555C4.32333 8.70555 4.20629 8.66242 4.11388 8.57002C3.93523 8.39137 3.93523 8.09567 4.11388 7.91703L5.53076 6.50015L4.11388 5.08328C3.93523 4.90463 3.93523 4.60894 4.11388 4.43029C4.29253 4.25164 4.58823 4.25164 4.76688 4.43029L6.18375 5.84716L7.60062 4.43029C7.77927 4.25164 8.07496 4.25164 8.25361 4.43029C8.43226 4.60894 8.43226 4.90463 8.25361 5.08328L6.83674 6.50015L8.25361 7.91703Z" fill="#E53935"/>
</svg>
