<svg width="19" height="20" viewBox="0 0 19 20" fill="none" xmlns="http://www.w3.org/2000/svg">
<path d="M12.4059 10.6911V13.9219C12.4059 16.6142 11.329 17.6911 8.63672 17.6911H5.40595C2.71364 17.6911 1.63672 16.6142 1.63672 13.9219V10.6911C1.63672 7.9988 2.71364 6.92188 5.40595 6.92188H8.63672C11.329 6.92188 12.4059 7.9988 12.4059 10.6911Z" stroke="#434343" stroke-width="1.15385" stroke-linecap="round" stroke-linejoin="round"/>
<path d="M17.0192 6.07782V9.30859C17.0192 12.0009 15.9423 13.0778 13.25 13.0778H12.4038V10.6932C12.4038 8.0009 11.3269 6.92398 8.63462 6.92398H6.25V6.07782C6.25 3.38552 7.32692 2.30859 10.0192 2.30859H13.25C15.9423 2.30859 17.0192 3.38552 17.0192 6.07782Z" stroke="#434343" stroke-width="1.15385" stroke-linecap="round" stroke-linejoin="round"/>
</svg>
