<svg width="60" height="60" viewBox="0 0 60 60" fill="none" xmlns="http://www.w3.org/2000/svg">
<rect width="60" height="60" rx="30" fill="#F5F3FB"/>
<path d="M26.0409 42.0671L26.0409 42.0671L26.0375 42.0625L24.5375 40.0625L23.8625 39.1625H23.9875C24.3536 39.1625 24.807 39.3824 25.0407 39.6793L26.5335 41.6821C26.534 41.6828 26.5345 41.6835 26.5351 41.6842C26.7396 41.9622 27.0606 42.2187 27.4875 42.2187C27.9139 42.2187 28.2348 41.9627 28.4393 41.6851L29.9375 39.6875L29.939 39.6855C30.1825 39.3581 30.5707 39.1625 30.9875 39.1625H31.4875C33.1512 39.1625 34.5104 38.8136 35.4907 37.9914C36.4794 37.1622 36.98 35.939 37.1093 34.4147C37.1494 34.0884 37.1625 33.7905 37.1625 33.4875V28.4875C37.1625 26.6647 36.7557 25.2061 35.7623 24.2128C34.7689 23.2194 33.3104 22.8125 31.4875 22.8125H23.4875C23.183 22.8125 22.8891 22.8257 22.606 22.8525C21.0552 22.9867 19.8189 23.4894 18.9842 24.4821C18.1578 25.4648 17.8125 26.825 17.8125 28.4875V33.4875C17.8125 35.6458 18.1336 37.1604 19.1445 38.0822C20.1261 38.9771 21.5994 39.1577 23.4125 39.1624V39.7874C21.337 39.7804 19.8291 39.4814 18.8252 38.6335C17.8338 37.7961 17.1875 36.2912 17.1875 33.4875V28.4875C17.1875 25.9919 17.9435 24.517 18.9254 23.6292C19.926 22.7246 21.2512 22.3476 22.5298 22.2351L22.5412 22.2341L22.5525 22.2327C22.8151 22.1999 23.1355 22.1875 23.4875 22.1875H31.4875C33.6443 22.1875 35.1931 22.7582 36.2049 23.7701C37.2168 24.7819 37.7875 26.3307 37.7875 28.4875V33.4875C37.7875 33.8383 37.7751 34.153 37.7317 34.4459L37.7289 34.4653L37.7272 34.4849C37.6209 35.7423 37.2475 37.0577 36.3447 38.0537C35.4585 39.0314 33.9833 39.7875 31.4875 39.7875H30.9875H30.6788L30.4912 40.0326L28.9412 42.0576L28.9411 42.0576L28.9341 42.0671C28.5533 42.5845 28.0209 42.85 27.4875 42.85C26.9541 42.85 26.4216 42.5845 26.0409 42.0671Z" fill="#695ACD" stroke="#695ACD" stroke-width="1.25"/>
<path d="M27.4922 32.1133C27.1414 32.1133 26.8672 31.8347 26.8672 31.4883C26.8672 31.146 27.1499 30.8633 27.4922 30.8633C27.8345 30.8633 28.1172 31.146 28.1172 31.4883C28.1172 31.8347 27.8429 32.1133 27.4922 32.1133Z" fill="#695ACD" stroke="#695ACD" stroke-width="1.25"/>
<path d="M31.4883 32.7383C30.7883 32.7383 30.2383 32.1758 30.2383 31.4883C30.2383 30.8008 30.8008 30.2383 31.4883 30.2383C32.1758 30.2383 32.7383 30.8008 32.7383 31.4883C32.7383 32.1758 32.1758 32.7383 31.4883 32.7383Z" fill="#695ACD"/>
<path d="M23.5 32.7383C22.8 32.7383 22.25 32.1758 22.25 31.4883C22.25 30.8008 22.8125 30.2383 23.5 30.2383C24.1875 30.2383 24.75 30.8008 24.75 31.4883C24.75 32.1758 24.1875 32.7383 23.5 32.7383Z" fill="#695ACD"/>
<path d="M37.4246 35.3625C37.1746 35.3625 36.9245 35.2625 36.7495 35.075C36.5495 34.875 36.4621 34.5875 36.4996 34.3125C36.5371 34.05 36.5495 33.775 36.5495 33.4875V28.4875C36.5495 25 34.9871 23.4375 31.4996 23.4375H23.4995C23.212 23.4375 22.9371 23.45 22.6746 23.475C22.3996 23.5125 22.1121 23.4125 21.9121 23.225C21.7121 23.025 21.5995 22.75 21.6245 22.475C21.8495 19.775 23.237 16.5625 28.4995 16.5625H36.4996C41.0246 16.5625 43.4245 18.9625 43.4245 23.4875V28.4875C43.4245 33.75 40.2121 35.125 37.5121 35.3625C37.4746 35.3625 37.4496 35.3625 37.4246 35.3625ZM23.6496 21.5625H31.4871C36.0121 21.5625 38.4121 23.9625 38.4121 28.4875V33.325C40.5371 32.8 41.5371 31.2375 41.5371 28.4875V23.4875C41.5371 20 39.9746 18.4375 36.4871 18.4375H28.4871C25.7371 18.4375 24.1871 19.4375 23.6496 21.5625Z" fill="#6A5ACD"/>
</svg>
