<svg width="60" height="60" viewBox="0 0 60 60" fill="none" xmlns="http://www.w3.org/2000/svg">
<rect width="60" height="60" rx="30" fill="#F5F3FB"/>
<path d="M31.7422 33.9889L31.6291 34.4693L32.8206 34.8374L33.1581 33.9624L33.1863 33.8893L33.7889 33.295L33.7889 33.295L33.7919 33.2919C34.1485 32.9354 34.4725 32.6924 34.7621 32.5426L34.7833 32.5317L34.8036 32.5191C35.3069 32.208 35.9682 32.136 36.6711 32.4265C36.9546 32.5466 37.2648 32.7122 37.6023 32.9483C37.6029 32.9487 37.6035 32.9491 37.6041 32.9495L41.7504 35.8969L41.7564 35.9012L41.7626 35.9054C42.1317 36.1548 42.3847 36.4606 42.5338 36.8113C42.6945 37.2202 42.7625 37.5779 42.7625 37.925C42.7625 38.4291 42.647 38.9392 42.4211 39.4232C42.1851 39.9289 41.8955 40.3629 41.5268 40.7652L41.524 40.7682C40.8665 41.495 40.1676 41.9976 39.3665 42.3203L39.365 42.3209C38.5775 42.6404 37.7199 42.8125 36.8125 42.8125C35.5001 42.8125 34.0959 42.4989 32.6193 41.8747C31.1693 41.2585 29.6979 40.4086 28.2552 39.3696C26.8187 38.3135 25.4307 37.1344 24.1159 35.8445C22.8149 34.5309 21.6367 33.144 20.5936 31.7208C19.5416 30.2525 18.7045 28.7939 18.1135 27.395C17.4903 25.9087 17.1875 24.4911 17.1875 23.175C17.1875 22.2764 17.3485 21.429 17.6567 20.641C17.971 19.8444 18.4788 19.0963 19.1767 18.4442L19.183 18.4383L19.189 18.4323C20.05 17.5825 20.9973 17.1875 21.9875 17.1875C22.3841 17.1875 22.7931 17.2801 23.1339 17.4405L23.1339 17.4405L23.1381 17.4425C23.5293 17.623 23.849 17.8877 24.08 18.2342L24.085 18.2417L24.0903 18.2491L26.9903 22.3366L26.9902 22.3367L26.9938 22.3416C27.2331 22.6721 27.4043 22.9759 27.5183 23.266L27.5222 23.2761L27.5265 23.286C27.6616 23.5978 27.725 23.8882 27.725 24.15C27.725 24.4996 27.6248 24.8521 27.4141 25.2034L27.4087 25.2124L27.4037 25.2215C27.2527 25.4933 27.0061 25.81 26.6706 26.1456L26.6705 26.1455L26.6611 26.1552L25.8111 27.0427L25.5504 27.315L25.6696 27.6726C25.6962 27.7525 25.7249 27.8098 25.7397 27.8395L25.741 27.842L25.7487 27.8575L25.7573 27.8726C25.9314 28.1772 26.2562 28.6591 26.8492 29.3553L26.8492 29.3553L26.8546 29.3616C27.4703 30.0652 28.054 30.7126 28.6408 31.3122L28.6407 31.3122L28.6494 31.3207C29.3895 32.0483 30.0167 32.6379 30.6122 33.13C31.0739 33.5187 31.4458 33.7954 31.7422 33.9889ZM18.6869 27.1435L18.6872 27.1442C19.2705 28.5183 20.0828 29.9343 21.107 31.3426C22.1261 32.7438 23.2842 34.1053 24.5559 35.3897L24.5558 35.3898L24.5603 35.3942C25.8322 36.6533 27.206 37.8237 28.6191 38.8549C30.0023 39.8666 31.4314 40.692 32.8568 41.2883C35.0764 42.2353 37.2623 42.5037 39.1267 41.7274C39.8553 41.4272 40.4931 40.9707 41.0633 40.332C41.3935 39.9724 41.6522 39.5831 41.8647 39.1303C42.0525 38.7382 42.15 38.322 42.15 37.9C42.15 37.6126 42.0942 37.3261 41.9586 37.0212L41.9529 37.0082L41.9465 36.9955C41.8719 36.8463 41.7337 36.6204 41.3954 36.3876L37.2496 33.4406L37.2496 33.4406L37.2459 33.438C36.9663 33.2422 36.7011 33.0929 36.438 32.9846L36.4366 32.984C36.4113 32.9737 36.3871 32.963 36.3558 32.9492L36.3533 32.9481C36.3251 32.9357 36.2872 32.919 36.2482 32.9034C36.1653 32.8704 36.0465 32.8295 35.9005 32.8177C35.5986 32.7932 35.3324 32.9027 35.0825 33.0539C34.7558 33.2222 34.4826 33.4586 34.2219 33.7192C34.2215 33.7196 34.221 33.7201 34.2206 33.7206L33.2763 34.6524C33.276 34.6527 33.2756 34.6531 33.2752 34.6535C32.9795 34.9406 32.4995 35.0225 32.1332 34.8947L31.8382 34.7636C31.3815 34.5159 30.8258 34.1241 30.1928 33.5868C29.6079 33.0871 28.9703 32.4989 28.1924 31.7335C27.5906 31.1192 26.9885 30.468 26.3614 29.7425C25.801 29.0867 25.4133 28.548 25.1792 28.1213L25.0577 27.8176C24.9976 27.5816 24.9875 27.4823 24.9875 27.3875C24.9875 27.0984 25.0875 26.8589 25.2794 26.6669L25.2795 26.667L25.288 26.6582L26.2214 25.6875C26.4947 25.4136 26.7159 25.1381 26.8731 24.8721C27.0194 24.6327 27.1 24.385 27.1 24.125C27.1 23.9069 27.0288 23.669 26.9519 23.4846L26.952 23.4846L26.9476 23.4745C26.8359 23.2191 26.6715 22.9547 26.4818 22.6968L23.5853 18.6016L23.5853 18.6016L23.5836 18.5992C23.3976 18.3388 23.1643 18.1428 22.8768 18.0086L22.8699 18.0054L22.863 18.0024C22.5953 17.8853 22.2978 17.8125 21.9875 17.8125C21.0976 17.8125 20.3129 18.207 19.6179 18.8859C18.9839 19.4798 18.5302 20.1411 18.2443 20.8689C17.9499 21.5989 17.8125 22.3657 17.8125 23.175C17.8125 24.435 18.1101 25.7803 18.6869 27.1435Z" fill="#695ACD" stroke="#695ACD" stroke-width="1.25"/>
<path d="M37.8125 26.25C37.8125 26.4173 37.9577 26.5625 38.125 26.5625C38.2923 26.5625 38.4375 26.4173 38.4375 26.25C38.4375 25.4749 37.8788 24.2586 36.8934 23.2018C35.8574 22.0961 34.7366 21.5625 33.75 21.5625C33.5827 21.5625 33.4375 21.7077 33.4375 21.875C33.4375 22.0423 33.5827 22.1875 33.75 22.1875C34.6922 22.1875 35.6589 22.7974 36.4435 23.635L37.8125 26.25ZM37.8125 26.25C37.8125 25.8685 37.6405 25.4105 37.4214 24.9957M37.8125 26.25L37.4214 24.9957M37.4214 24.9957C37.1895 24.5564 36.8572 24.0764 36.4437 23.6353L37.4214 24.9957Z" fill="#695ACD" stroke="#695ACD" stroke-width="1.25"/>
<path d="M42.5 27.1875C41.9875 27.1875 41.5625 26.7625 41.5625 26.25C41.5625 21.9375 38.0625 18.4375 33.75 18.4375C33.2375 18.4375 32.8125 18.0125 32.8125 17.5C32.8125 16.9875 33.2375 16.5625 33.75 16.5625C39.0875 16.5625 43.4375 20.9125 43.4375 26.25C43.4375 26.7625 43.0125 27.1875 42.5 27.1875Z" fill="#695ACD"/>
</svg>
