<svg width="20" height="26" viewBox="0 0 20 26" fill="none" xmlns="http://www.w3.org/2000/svg">
<path fill-rule="evenodd" clip-rule="evenodd" d="M15.7692 8.38489H4.23077C3.91231 8.38489 3.65385 8.127 3.65385 7.80797C3.65385 7.48951 3.91231 7.23105 4.23077 7.23105H15.7692C16.0877 7.23105 16.3462 7.48951 16.3462 7.80797C16.3462 8.127 16.0877 8.38489 15.7692 8.38489ZM15.1923 19.9233C15.1923 20.5602 14.6754 21.0771 14.0385 21.0771H5.96154C5.32462 21.0771 4.80769 20.5602 4.80769 19.9233V9.53873H15.1923V19.9233ZM8.26923 5.50029C8.26923 5.18125 8.52769 4.92337 8.84615 4.92337H11.1538C11.4723 4.92337 11.7308 5.18125 11.7308 5.50029V6.07721H8.26923V5.50029ZM16.3462 6.07721H12.8846V4.92337C12.8846 4.28645 12.3677 3.76953 11.7308 3.76953H8.26923C7.63231 3.76953 7.11538 4.28645 7.11538 4.92337V6.07721H3.65385C3.01692 6.07721 2.5 6.59413 2.5 7.23105V8.38489C2.5 9.02181 3.01692 9.53873 3.65385 9.53873V19.9233C3.65385 21.1977 4.68712 22.231 5.96154 22.231H14.0385C15.3129 22.231 16.3462 21.1977 16.3462 19.9233V9.53873C16.9831 9.53873 17.5 9.02181 17.5 8.38489V7.23105C17.5 6.59413 16.9831 6.07721 16.3462 6.07721ZM10 19.9233C10.3185 19.9233 10.5769 19.6654 10.5769 19.3464V12.4233C10.5769 12.1049 10.3185 11.8464 10 11.8464C9.68154 11.8464 9.42308 12.1049 9.42308 12.4233V19.3464C9.42308 19.6654 9.68154 19.9233 10 19.9233ZM7.11538 19.9233C7.43385 19.9233 7.69231 19.6654 7.69231 19.3464V12.4233C7.69231 12.1049 7.43385 11.8464 7.11538 11.8464C6.79692 11.8464 6.53846 12.1049 6.53846 12.4233V19.3464C6.53846 19.6654 6.79692 19.9233 7.11538 19.9233ZM12.8846 19.9233C13.2031 19.9233 13.4615 19.6654 13.4615 19.3464V12.4233C13.4615 12.1049 13.2031 11.8464 12.8846 11.8464C12.5662 11.8464 12.3077 12.1049 12.3077 12.4233V19.3464C12.3077 19.6654 12.5662 19.9233 12.8846 19.9233Z" fill="#333333"/>
</svg>
