<svg width="26" height="26" viewBox="0 0 26 26" fill="none" xmlns="http://www.w3.org/2000/svg">
<path d="M3.2159 6.20708L3.21616 6.20705L5.42618 5.99039L5.42618 5.99039L5.42803 5.9902C11.1422 5.41019 16.9423 5.63477 22.773 6.20705L22.7734 6.20708C22.9155 6.22094 23.0274 6.35296 23.0127 6.50371L23.0126 6.5037L23.0117 6.51477C23.0017 6.64472 22.8892 6.75131 22.7501 6.75131H22.75H22.7499H22.7497H22.7496H22.7495H22.7494H22.7492H22.7491H22.749H22.7488H22.7487H22.7486H22.7484H22.7483H22.7482H22.7481H22.7479H22.7478H22.7477H22.7475H22.7474H22.7473H22.7471H22.747H22.7469H22.7467H22.7466H22.7465H22.7463H22.7462H22.7461H22.7459H22.7458H22.7457H22.7455H22.7454H22.7453H22.7451H22.745H22.7448H22.7447H22.7446H22.7444H22.7443H22.7442H22.744H22.7439H22.7437H22.7436H22.7435H22.7433H22.7432H22.7431H22.7429H22.7428H22.7426H22.7425H22.7424H22.7422H22.7421H22.7419H22.7418H22.7416H22.7415H22.7414H22.7412H22.7411H22.7409H22.7408H22.7407H22.7405H22.7404H22.7402H22.7401H22.7399H22.7398H22.7396H22.7395H22.7394H22.7392H22.7391H22.7389H22.7388H22.7386H22.7385H22.7383H22.7382H22.738H22.7379H22.7377H22.7376H22.7375H22.7373H22.7372H22.737H22.7369H22.7367H22.7366H22.7364H22.7363H22.7361H22.736H22.7358H22.7357H22.7355H22.7354H22.7352H22.7351H22.7349H22.7348H22.7346H22.7345H22.7343H22.7342H22.734H22.7338H22.7337H22.7335H22.7334H22.7332H22.7331H22.7329H22.7328H22.7326H22.7325H22.7323H22.7322H22.732H22.7319H22.7317H22.7315H22.7314H22.7312H22.7311H22.7309H22.7308H22.7306H22.7304H22.7303H22.7301H22.73H22.7298H22.7297H22.7295H22.7293H22.7292H22.729H22.7289H22.7287H22.7286H22.7284H22.7282H22.7281H22.7279H22.7278H22.7276H22.7274H22.7273H22.7271H22.727H22.7268H22.7266H22.7265H22.7263H22.7262H22.726H22.7258H22.7257H22.7255H22.7253H22.7252H22.725H22.7249H22.7247H22.7245H22.7244H22.7242H22.724H22.7239H22.7237H22.7236H22.7234H22.7232H22.7231H22.7229H22.7227H22.7226H22.7224H22.7222H22.7221H22.7219H22.7217H22.7216H22.7214H22.7212H22.7211H22.7209H22.7207H22.7206H22.7204H22.7202H22.7201H22.7199H22.7197H22.7196H22.7194H22.7192H22.7191H22.7189H22.7187H22.7186H22.7184H22.7182H22.7181H22.7179H22.7177H22.7176H22.7174H22.7172H22.717H22.7169H22.7167H22.7165H22.7164H22.7162H22.716H22.7159H22.7157H22.7155H22.7153H22.7152H22.715H22.7148H22.7147H22.7145H22.7143H22.7141H22.714H22.7138H22.7136H22.7135H22.7133H22.7131H22.7129H22.7128H22.7126H22.7124H22.7122H22.7121H22.7119H22.7117H22.7115H22.7114H22.7112H22.711H22.7108H22.7107H22.7105H22.7103H22.7101H22.71H22.7098H22.7096H22.7094H22.7093H22.7091H22.7089H22.7087H22.7086H22.7084H22.7082H22.708H22.7079H22.7077H22.7075H22.7073H22.7072H22.707H22.7068H22.7066H22.7064H22.7063H22.7061H22.7059H22.7057H22.7056H22.7054H22.7052H22.705H22.7048H22.7047H22.7045H22.7043H22.7041H22.7039H22.7038H22.7036H22.7034H22.7032H22.7031H22.7029H22.7027H22.7025H22.7023H22.7022H22.702H22.7018H22.7016H22.7014H22.7013H22.7011H22.7009H22.7007H22.7005H22.7003H22.7002H22.7H22.6998H22.6996H22.6994H22.6993H22.6991H22.6989H22.6987H22.6985H22.6984H22.6982H22.698H22.6978H22.6976H22.6974H22.6973H22.6971H22.6969H22.6967H22.6965H22.6963H22.6962H22.696H22.6958H22.6956H22.6954H22.6952H22.6951H22.6949H22.6947H22.6945H22.6943H22.6941H22.694H22.6938H22.6936H22.6934H22.6932H22.693H22.6929H22.6927H22.6925H22.6923H22.6921H22.6919H22.6917H22.6916H22.6914H22.6912H22.691H22.6908H22.6906H22.6905C16.9482 6.17712 11.1985 5.95921 5.49294 6.53731C5.49264 6.53734 5.49235 6.53737 5.49205 6.5374L3.28529 6.75375C3.28509 6.75377 3.2849 6.75379 3.2847 6.7538C3.12204 6.76899 2.99111 6.65626 2.9767 6.50495C2.96156 6.34599 3.07027 6.22129 3.2159 6.20708Z" fill="#E53935" stroke="#E53935" stroke-width="1.08334"/>
<path d="M9.17329 5.65591C9.17328 5.65591 9.17327 5.65591 9.17326 5.65591L9.17327 5.65586L9.16038 5.65361C9.01508 5.62818 8.91662 5.48093 8.93973 5.34887L8.94036 5.34521L9.17869 3.92603L9.1788 3.92537C9.26914 3.38333 9.3588 2.90879 9.6519 2.54668C9.91483 2.22182 10.4251 1.89714 11.5804 1.89714H14.4187C15.5737 1.89714 16.0873 2.23179 16.3526 2.56495C16.6479 2.93592 16.7354 3.41555 16.82 3.93432L16.8199 3.93432L16.8205 3.93754L17.0588 5.34588L17.059 5.34666C17.0851 5.49955 16.9772 5.63267 16.8517 5.65149L16.8517 5.65138L16.8409 5.65323C16.688 5.67933 16.5549 5.57144 16.5361 5.44598L16.5362 5.44597L16.5345 5.43595L16.2965 4.02979L16.294 4.01408C16.2588 3.79549 16.224 3.57884 16.1726 3.39707C16.1181 3.20394 16.029 2.98745 15.8447 2.81052C15.6575 2.63072 15.4295 2.54627 15.2029 2.50283C14.983 2.46069 14.7229 2.44964 14.4295 2.44964H11.5912C11.3009 2.44964 11.0435 2.45851 10.8273 2.49664C10.6051 2.53583 10.3752 2.61424 10.1851 2.7922C9.99752 2.96777 9.90802 3.18523 9.85315 3.37716C9.80239 3.55472 9.76639 3.76856 9.7296 3.98713C9.72804 3.99639 9.72648 4.00567 9.72491 4.01495L9.47613 5.42113L9.47607 5.42112L9.47483 5.42879C9.45335 5.56123 9.33842 5.65633 9.20784 5.65633L9.1835 5.65623L9.17329 5.65591Z" fill="#E53935" stroke="#E53935" stroke-width="1.08334"/>
<path d="M16.4787 24.6476H9.5236C5.74274 24.6476 5.59108 22.5568 5.47191 20.8668L4.76774 9.95751C4.73524 9.51334 5.08191 9.12334 5.52608 9.09084C5.98108 9.06917 6.36025 9.405 6.39275 9.84917L7.09692 20.7584C7.21609 22.4051 7.25942 23.0226 9.5236 23.0226H16.4787C18.7537 23.0226 18.797 22.4051 18.9053 20.7584L19.6095 9.84917C19.642 9.405 20.032 9.06917 20.4762 9.09084C20.9204 9.12334 21.267 9.5025 21.2345 9.95751L20.5304 20.8668C20.4112 22.5568 20.2595 24.6476 16.4787 24.6476Z" fill="#E53935"/>
<path d="M14.795 18.6875H11.1875C10.7433 18.6875 10.375 18.3192 10.375 17.875C10.375 17.4308 10.7433 17.0625 11.1875 17.0625H14.795C15.2392 17.0625 15.6075 17.4308 15.6075 17.875C15.6075 18.3192 15.2392 18.6875 14.795 18.6875Z" fill="#E53935"/>
<path d="M15.7097 14.3555H10.293C9.8488 14.3555 9.48047 13.9871 9.48047 13.543C9.48047 13.0988 9.8488 12.7305 10.293 12.7305H15.7097C16.1539 12.7305 16.5222 13.0988 16.5222 13.543C16.5222 13.9871 16.1539 14.3555 15.7097 14.3555Z" fill="#E53935"/>
</svg>
