<svg width="18" height="18" viewBox="0 0 18 18" fill="none" xmlns="http://www.w3.org/2000/svg">
<path d="M9.74812 8.43719C9.69972 8.43719 9.65426 8.42049 9.61579 8.38202C9.54474 8.31097 9.54474 8.18841 9.61579 8.11735L9.35206 7.85362L9.61579 8.11735L15.7658 1.96735C15.8368 1.8963 15.9594 1.8963 16.0305 1.96735C16.1015 2.03841 16.1015 2.16097 16.0305 2.23202L9.88046 8.38202L10.1456 8.64719L9.88046 8.38202C9.84199 8.42049 9.79653 8.43719 9.74812 8.43719Z" fill="#555555" stroke="#555555" stroke-width="0.75"/>
<path d="M16.3188 2.0625V1.6875H15.9438H12.9063C12.8059 1.6875 12.7188 1.60039 12.7188 1.5C12.7188 1.39961 12.8059 1.3125 12.9063 1.3125H16.5063C16.6066 1.3125 16.6938 1.39961 16.6938 1.5V5.1C16.6938 5.20039 16.6066 5.2875 16.5063 5.2875C16.4059 5.2875 16.3188 5.20039 16.3188 5.1V2.0625Z" fill="#555555" stroke="#555555" stroke-width="0.75"/>
<path d="M11.25 17.0625H6.75C2.6775 17.0625 0.9375 15.3225 0.9375 11.25V6.75C0.9375 2.6775 2.6775 0.9375 6.75 0.9375H8.25C8.5575 0.9375 8.8125 1.1925 8.8125 1.5C8.8125 1.8075 8.5575 2.0625 8.25 2.0625H6.75C3.2925 2.0625 2.0625 3.2925 2.0625 6.75V11.25C2.0625 14.7075 3.2925 15.9375 6.75 15.9375H11.25C14.7075 15.9375 15.9375 14.7075 15.9375 11.25V9.75C15.9375 9.4425 16.1925 9.1875 16.5 9.1875C16.8075 9.1875 17.0625 9.4425 17.0625 9.75V11.25C17.0625 15.3225 15.3225 17.0625 11.25 17.0625Z" fill="#555555"/>
</svg>
