<svg width="201" height="254" viewBox="0 0 201 254" fill="none" xmlns="http://www.w3.org/2000/svg">
<circle cx="100.5" cy="100.711" r="100" fill="#FCFAFF"/>
<rect x="56.1289" y="92.5669" width="103.497" height="142.657" rx="12.5874" transform="rotate(1.43037 56.1289 92.5669)" fill="#FAFAFA" stroke="#A99EE1" stroke-width="2.7972"/>
<path d="M57.2129 105.185C57.3671 99.0078 62.5 94.125 68.6775 94.2793L146.975 96.2344C153.152 96.3886 158.035 101.521 157.881 107.699L157.357 128.671L56.6892 126.158L57.2129 105.185Z" fill="#EDE9F8"/>
<rect x="66.3281" y="131.992" width="81.1189" height="5.59441" rx="2.7972" transform="rotate(1.43037 66.3281 131.992)" fill="#CCC4EC"/>
<rect x="65.625" y="159.957" width="81.1189" height="5.59441" rx="2.7972" transform="rotate(1.43037 65.625 159.957)" fill="#F0EDF9"/>
<rect x="64.9297" y="187.922" width="81.1189" height="5.59441" rx="2.7972" transform="rotate(1.43037 64.9297 187.922)" fill="#EDE9F8"/>
<rect x="66.0547" y="143.184" width="29.3706" height="5.59441" rx="2.7972" transform="rotate(1.43037 66.0547 143.184)" fill="#F0EDF9"/>
<rect x="65.3516" y="171.145" width="29.3706" height="5.59441" rx="2.7972" transform="rotate(1.43037 65.3516 171.145)" fill="#F0EDF9"/>
<rect x="64.6562" y="199.109" width="29.3706" height="5.59441" rx="2.7972" transform="rotate(1.43037 64.6562 199.109)" fill="#F0EDF9"/>
<rect x="126.195" y="82.7305" width="4.1958" height="13.986" rx="2.0979" transform="rotate(82.5 126.195 82.7305)" fill="#A99EE1"/>
<rect x="87.875" y="59.5625" width="4.1958" height="13.986" rx="2.0979" transform="rotate(-7.5 87.875 59.5625)" fill="#A99EE1"/>
<rect x="112.461" y="63.3789" width="4.1958" height="13.986" rx="2.0979" transform="rotate(37.5 112.461 63.3789)" fill="#A99EE1"/>
<rect x="3.08706" y="90.4756" width="103.497" height="142.657" rx="12.5874" transform="rotate(-7.5 3.08706 90.4756)" fill="#FAFAFA" stroke="#A99EE1" stroke-width="2.7972"/>
<path d="M6.11668 102.773C5.31011 96.6462 9.6228 91.0258 15.7493 90.2193L93.401 79.9962C99.5275 79.1897 105.148 83.5023 105.954 89.6289L108.693 110.428L8.85499 123.572L6.11668 102.773Z" fill="#EDE9F8"/>
<rect x="19.2812" y="127.84" width="81.1189" height="5.59441" rx="2.7972" transform="rotate(-7.5 19.2812 127.84)" fill="#CCC4EC"/>
<rect x="22.9297" y="155.574" width="81.1189" height="5.59441" rx="2.7972" transform="rotate(-7.5 22.9297 155.574)" fill="#F0EDF9"/>
<rect x="26.5859" y="183.309" width="81.1189" height="5.59441" rx="2.7972" transform="rotate(-7.5 26.5859 183.309)" fill="#EDE9F8"/>
<rect x="20.75" y="138.938" width="29.3706" height="5.59441" rx="2.7972" transform="rotate(-7.5 20.75 138.938)" fill="#F0EDF9"/>
<rect x="24.3984" y="166.668" width="29.3706" height="5.59441" rx="2.7972" transform="rotate(-7.5 24.3984 166.668)" fill="#F0EDF9"/>
<rect x="28.0469" y="194.402" width="29.3706" height="5.59441" rx="2.7972" transform="rotate(-7.5 28.0469 194.402)" fill="#F0EDF9"/>
</svg>
