<svg width="202" height="216" viewBox="0 0 202 216" fill="none" xmlns="http://www.w3.org/2000/svg">
<circle cx="106.901" cy="121.175" r="94.6042" fill="#F1F1F1"/>
<path d="M190.172 83.059C186.458 96.4893 174.283 126.42 152.387 131.984C130.491 137.548 120.092 131.664 117.993 128.866" stroke="#CCCCCC" stroke-width="2.40726"/>
<mask id="path-3-inside-1_8540_34353" fill="white">
<path fill-rule="evenodd" clip-rule="evenodd" d="M82.4611 53.8555L61.6562 76.216V188.5H152.126V76.216L131.886 53.8555H82.4611ZM100.628 91.4308C105.854 91.4308 110.091 87.1939 110.091 81.9674C110.091 76.7408 105.854 72.5039 100.628 72.5039C95.401 72.5039 91.1641 76.7408 91.1641 81.9674C91.1641 87.1939 95.401 91.4308 100.628 91.4308Z"/>
</mask>
<path fill-rule="evenodd" clip-rule="evenodd" d="M82.4611 53.8555L61.6562 76.216V188.5H152.126V76.216L131.886 53.8555H82.4611ZM100.628 91.4308C105.854 91.4308 110.091 87.1939 110.091 81.9674C110.091 76.7408 105.854 72.5039 100.628 72.5039C95.401 72.5039 91.1641 76.7408 91.1641 81.9674C91.1641 87.1939 95.401 91.4308 100.628 91.4308Z" fill="white"/>
<path d="M61.6562 76.216L60.3054 74.9591L59.8111 75.4904V76.216H61.6562ZM82.4611 53.8555V52.0103H81.6576L81.1102 52.5986L82.4611 53.8555ZM61.6562 188.5H59.8111V190.345H61.6562V188.5ZM152.126 188.5V190.345H153.971V188.5H152.126ZM152.126 76.216H153.971V75.5049L153.494 74.9777L152.126 76.216ZM131.886 53.8555L133.254 52.6172L132.705 52.0103H131.886V53.8555ZM63.0071 77.4729L83.812 55.1124L81.1102 52.5986L60.3054 74.9591L63.0071 77.4729ZM63.5014 188.5V76.216H59.8111V188.5H63.5014ZM152.126 186.655H61.6562V190.345H152.126V186.655ZM150.281 76.216V188.5H153.971V76.216H150.281ZM130.518 55.0937L150.758 77.4543L153.494 74.9777L133.254 52.6172L130.518 55.0937ZM82.4611 55.7007H131.886V52.0103H82.4611V55.7007ZM108.246 81.9674C108.246 86.1748 104.835 89.5856 100.628 89.5856V93.276C106.873 93.276 111.936 88.2129 111.936 81.9674H108.246ZM100.628 74.3491C104.835 74.3491 108.246 77.7599 108.246 81.9674H111.936C111.936 75.7218 106.873 70.6587 100.628 70.6587V74.3491ZM93.0093 81.9674C93.0093 77.7599 96.4201 74.3491 100.628 74.3491V70.6587C94.3819 70.6587 89.3189 75.7218 89.3189 81.9674H93.0093ZM100.628 89.5856C96.4201 89.5856 93.0093 86.1748 93.0093 81.9674H89.3189C89.3189 88.2129 94.3819 93.276 100.628 93.276V89.5856Z" fill="#CCCCCC" mask="url(#path-3-inside-1_8540_34353)"/>
<path d="M94.2866 121.178C94.2866 122.4 94.046 123.61 93.5784 124.739C93.1109 125.867 92.4256 126.893 91.5617 127.757C90.6978 128.621 89.6722 129.306 88.5434 129.774C87.4147 130.241 86.2049 130.482 84.9831 130.482C83.7614 130.482 82.5516 130.241 81.4229 129.774C80.2941 129.306 79.2685 128.621 78.4046 127.757C77.5407 126.893 76.8554 125.867 76.3879 124.739C75.9203 123.61 75.6797 122.4 75.6797 121.178H77.7307C77.7307 122.131 77.9183 123.074 78.2828 123.954C78.6473 124.834 79.1815 125.633 79.8549 126.307C80.5284 126.98 81.3279 127.514 82.2078 127.879C83.0877 128.243 84.0307 128.431 84.9831 128.431C85.9355 128.431 86.8786 128.243 87.7585 127.879C88.6384 127.514 89.4379 126.98 90.1114 126.307C90.7848 125.633 91.319 124.834 91.6835 123.954C92.048 123.074 92.2356 122.131 92.2356 121.178H94.2866Z" fill="#CCCCCC"/>
<path d="M109.927 145.818C109.927 144.596 109.687 143.386 109.219 142.257C108.752 141.129 108.066 140.103 107.202 139.239C106.338 138.375 105.313 137.69 104.184 137.222C103.055 136.755 101.846 136.514 100.624 136.514C99.402 136.514 98.1922 136.755 97.0635 137.222C95.9347 137.69 94.9091 138.375 94.0452 139.239C93.1813 140.103 92.496 141.129 92.0285 142.257C91.561 143.386 91.3203 144.596 91.3203 145.818H93.3714C93.3714 144.865 93.5589 143.922 93.9234 143.042C94.2879 142.162 94.8221 141.363 95.4955 140.689C96.169 140.016 96.9685 139.482 97.8484 139.117C98.7283 138.753 99.6714 138.565 100.624 138.565C101.576 138.565 102.519 138.753 103.399 139.117C104.279 139.482 105.079 140.016 105.752 140.689C106.425 141.363 106.96 142.162 107.324 143.042C107.689 143.922 107.876 144.865 107.876 145.818H109.927Z" fill="#CCCCCC"/>
<path d="M125.568 121.178C125.568 122.4 125.327 123.61 124.86 124.739C124.392 125.867 123.707 126.893 122.843 127.757C121.979 128.621 120.953 129.306 119.825 129.774C118.696 130.241 117.486 130.482 116.264 130.482C115.043 130.482 113.833 130.241 112.704 129.774C111.575 129.306 110.55 128.621 109.686 127.757C108.822 126.893 108.137 125.867 107.669 124.739C107.202 123.61 106.961 122.4 106.961 121.178H109.012C109.012 122.131 109.2 123.074 109.564 123.954C109.929 124.834 110.463 125.633 111.136 126.307C111.81 126.98 112.609 127.514 113.489 127.879C114.369 128.243 115.312 128.431 116.264 128.431C117.217 128.431 118.16 128.243 119.04 127.879C119.92 127.514 120.719 126.98 121.393 126.307C122.066 125.633 122.6 124.834 122.965 123.954C123.329 123.074 123.517 122.131 123.517 121.178H125.568Z" fill="#CCCCCC"/>
<rect x="62.8118" y="166.116" width="88.175" height="22.0656" fill="#FAFAFA" stroke="#CCCCCC" stroke-width="1.84519"/>
<circle cx="98.3405" cy="27.4616" r="5.13735" fill="#C4C4C4"/>
<circle cx="164.002" cy="29.7674" r="2.30649" fill="#C4C4C4"/>
<circle cx="151.767" cy="66.0604" r="2.30649" fill="#C4C4C4"/>
<circle cx="185.248" cy="90.6391" r="2.99844" fill="#C4C4C4"/>
<circle cx="44.8187" cy="19.3266" r="2.99844" fill="#C4C4C4"/>
<path d="M136.062 5.96308L138.822 3.20323L140.817 5.19858L138.058 7.95842L141.177 11.0776L139.074 13.18L135.955 10.0608L133.188 12.8283L131.192 10.8329L133.96 8.06545L130.971 5.07626L133.073 2.97388L136.062 5.96308Z" fill="#E6E6E6"/>
<path d="M63.7877 33.5758L66.0095 31.3541L67.6158 32.9604L65.394 35.1822L67.9051 37.6932L66.2126 39.3857L63.7016 36.8746L61.4736 39.1026L59.8673 37.4962L62.0953 35.2683L59.6889 32.8619L61.3813 31.1694L63.7877 33.5758Z" fill="#E6E6E6"/>
<path d="M34.0632 71.3125L35.479 69.8966L36.5027 70.9203L35.0868 72.3362L36.687 73.9364L35.6085 75.015L34.0082 73.4147L32.5884 74.8345L31.5648 73.8109L32.9846 72.3911L31.451 70.8575L32.5296 69.779L34.0632 71.3125Z" fill="#E6E6E6"/>
<path d="M185.36 57.3867L186.776 55.9709L187.8 56.9945L186.384 58.4104L187.984 60.0106L186.905 61.0892L185.305 59.489L183.885 60.9088L182.862 59.8851L184.281 58.4653L182.748 56.9318L183.826 55.8532L185.36 57.3867Z" fill="#E6E6E6"/>
<path d="M1.5 157.919C6.92651 138.295 24.716 94.5623 56.7089 86.4325C88.7017 78.3027 103.896 86.8998 106.963 90.9881" stroke="#CCCCCC" stroke-width="2.40726"/>
</svg>
