<svg width="181" height="184" viewBox="0 0 181 184" fill="none" xmlns="http://www.w3.org/2000/svg">
<path d="M90.5004 179.993C140.202 179.993 180.493 139.7 180.493 89.9963C180.493 40.2927 140.202 0 90.5004 0C40.7989 0 0.507812 40.2927 0.507812 89.9963C0.507812 139.7 40.7989 179.993 90.5004 179.993Z" fill="#EBE7F7"/>
<g filter="url(#filter0_d_6625_26210)">
<mask id="mask0_6625_26210" style="mask-type:alpha" maskUnits="userSpaceOnUse" x="0" y="0" width="181" height="180">
<path d="M90.5004 179.993C140.202 179.993 180.493 139.7 180.493 89.9963C180.493 40.2927 140.202 0 90.5004 0C40.7989 0 0.507812 40.2927 0.507812 89.9963C0.507812 139.7 40.7989 179.993 90.5004 179.993Z" fill="url(#paint0_linear_6625_26210)"/>
</mask>
<g mask="url(#mask0_6625_26210)">
<path d="M142.097 51.5977H38.9058C35.5923 51.5977 32.9062 54.2838 32.9062 57.5974V183.592C32.9062 186.906 35.5923 189.592 38.9058 189.592H142.097C145.411 189.592 148.097 186.906 148.097 183.592V57.5974C148.097 54.2838 145.411 51.5977 142.097 51.5977Z" fill="white"/>
</g>
</g>
<path d="M79.7034 63.5977H48.506C46.5179 63.5977 44.9062 65.2094 44.9062 67.1975C44.9062 69.1857 46.5179 70.7974 48.506 70.7974H79.7034C81.6915 70.7974 83.3031 69.1857 83.3031 67.1975C83.3031 65.2094 81.6915 63.5977 79.7034 63.5977Z" fill="#EBE7F7"/>
<path d="M79.7034 113.996H48.506C46.5179 113.996 44.9062 115.608 44.9062 117.596C44.9062 119.584 46.5179 121.196 48.506 121.196H79.7034C81.6915 121.196 83.3031 119.584 83.3031 117.596C83.3031 115.608 81.6915 113.996 79.7034 113.996Z" fill="#EBE7F7"/>
<path d="M130.095 81.5898H50.9012C48.2504 81.5898 46.1016 83.7388 46.1016 86.3896V98.3892C46.1016 101.04 48.2504 103.189 50.9012 103.189H130.095C132.745 103.189 134.894 101.04 134.894 98.3892V86.3896C134.894 83.7388 132.745 81.5898 130.095 81.5898Z" stroke="#695ACD" stroke-width="2.39985"/>
<path d="M130.099 130.793H50.9058C47.5923 130.793 44.9062 133.479 44.9062 136.793V146.392C44.9062 149.706 47.5923 152.392 50.9058 152.392H130.099C133.413 152.392 136.099 149.706 136.099 146.392V136.793C136.099 133.479 133.413 130.793 130.099 130.793Z" fill="#F0EDF9"/>
<path d="M64.0965 38.3965C66.7472 38.3965 68.8961 36.2475 68.8961 33.5967C68.8961 30.9458 66.7472 28.7969 64.0965 28.7969C61.4457 28.7969 59.2969 30.9458 59.2969 33.5967C59.2969 36.2475 61.4457 38.3965 64.0965 38.3965Z" fill="white"/>
<path d="M90.4949 38.3965C93.1457 38.3965 95.2945 36.2475 95.2945 33.5967C95.2945 30.9458 93.1457 28.7969 90.4949 28.7969C87.8442 28.7969 85.6953 30.9458 85.6953 33.5967C85.6953 36.2475 87.8442 38.3965 90.4949 38.3965Z" fill="#695ACD"/>
<path d="M116.893 38.3965C119.544 38.3965 121.693 36.2475 121.693 33.5967C121.693 30.9458 119.544 28.7969 116.893 28.7969C114.243 28.7969 112.094 30.9458 112.094 33.5967C112.094 36.2475 114.243 38.3965 116.893 38.3965Z" fill="white"/>
<path d="M103.695 105.593C107.008 105.593 109.694 102.907 109.694 99.5935C109.694 96.2799 107.008 93.5938 103.695 93.5938C100.381 93.5938 97.6953 96.2799 97.6953 99.5935C97.6953 102.907 100.381 105.593 103.695 105.593Z" fill="#F0EDF9"/>
<path d="M108.385 125.238C107.425 125.238 106.529 125.238 105.713 125.186C104.708 125.118 103.741 124.774 102.919 124.192C102.097 123.61 101.451 122.813 101.052 121.888L95.9901 111.882C95.6188 111.45 95.4334 110.889 95.4743 110.32C95.5152 109.752 95.7791 109.222 96.2085 108.848C96.5603 108.565 96.9991 108.413 97.4504 108.417C97.7826 108.427 98.1089 108.508 98.4065 108.656C98.7042 108.804 98.9663 109.015 99.1746 109.274L101.474 112.412L101.508 112.452V100.531C101.508 99.9394 101.743 99.3722 102.162 98.954C102.58 98.5357 103.147 98.3008 103.738 98.3008C104.33 98.3008 104.897 98.5357 105.315 98.954C105.734 99.3722 105.968 99.9394 105.968 100.531V108.331C105.943 108.044 105.977 107.754 106.069 107.481C106.161 107.208 106.309 106.957 106.503 106.745C106.698 106.532 106.934 106.362 107.198 106.246C107.462 106.129 107.747 106.069 108.035 106.069C108.323 106.069 108.608 106.129 108.872 106.246C109.135 106.362 109.372 106.532 109.566 106.745C109.761 106.957 109.909 107.208 110.001 107.481C110.093 107.754 110.127 108.044 110.101 108.331V109.957C110.075 109.669 110.109 109.38 110.201 109.107C110.293 108.834 110.441 108.583 110.636 108.37C110.83 108.158 111.067 107.988 111.33 107.872C111.594 107.755 111.879 107.695 112.167 107.695C112.455 107.695 112.74 107.755 113.004 107.872C113.268 107.988 113.504 108.158 113.699 108.37C113.893 108.583 114.041 108.834 114.133 109.107C114.225 109.38 114.259 109.669 114.233 109.957V111.209C114.208 110.922 114.242 110.633 114.334 110.36C114.426 110.087 114.574 109.836 114.768 109.623C114.963 109.41 115.199 109.241 115.463 109.124C115.726 109.008 116.011 108.948 116.3 108.948C116.588 108.948 116.873 109.008 117.136 109.124C117.4 109.241 117.637 109.41 117.831 109.623C118.026 109.836 118.173 110.087 118.266 110.36C118.358 110.633 118.392 110.922 118.366 111.209V118.813C118.325 121.152 117.268 125.095 113.549 125.095C113.279 125.107 110.992 125.239 108.39 125.239L108.385 125.238Z" fill="#695ACD" stroke="white" stroke-width="1.19993"/>
<defs>
<filter id="filter0_d_6625_26210" x="25.7067" y="40.7983" width="129.587" height="142.794" filterUnits="userSpaceOnUse" color-interpolation-filters="sRGB">
<feFlood flood-opacity="0" result="BackgroundImageFix"/>
<feColorMatrix in="SourceAlpha" type="matrix" values="0 0 0 0 0 0 0 0 0 0 0 0 0 0 0 0 0 0 127 0" result="hardAlpha"/>
<feOffset dy="-3.59978"/>
<feGaussianBlur stdDeviation="3.59978"/>
<feColorMatrix type="matrix" values="0 0 0 0 0.788235 0 0 0 0 0.803922 0 0 0 0 0.85098 0 0 0 0.349 0"/>
<feBlend mode="normal" in2="BackgroundImageFix" result="effect1_dropShadow_6625_26210"/>
<feBlend mode="normal" in="SourceGraphic" in2="effect1_dropShadow_6625_26210" result="shape"/>
</filter>
<linearGradient id="paint0_linear_6625_26210" x1="90.5004" y1="0" x2="90.5004" y2="179.993" gradientUnits="userSpaceOnUse">
<stop stop-color="#E3ECFA"/>
<stop offset="1" stop-color="#DAE7FF"/>
</linearGradient>
</defs>
</svg>
