<svg width="201" height="177" viewBox="0 0 201 177" fill="none" xmlns="http://www.w3.org/2000/svg">
<ellipse cx="108.783" cy="87.6929" rx="83.4388" ry="83.4389" fill="#F0EDF9"/>
<path d="M121.745 68.0078L200.006 90.0938L191.844 176.998L98.2188 153.471L121.745 68.0078Z" fill="#EDE9F8"/>
<path d="M199.524 89.6141L117.422 68.4883C113.421 74.2499 103.114 89.1339 93.8953 102.578C84.6768 116.021 68.6084 132.506 61.7266 139.068L157.753 167.395C159.513 166.435 166.971 159.425 182.719 139.068C198.468 118.71 200.484 97.6162 199.524 89.6141Z" fill="#F5F3FB" stroke="#A99EE1" stroke-width="0.960261"/>
<ellipse cx="124.622" cy="91.0559" rx="3.84104" ry="3.84105" fill="#C4C4C4"/>
<ellipse cx="113.099" cy="111.22" rx="3.84104" ry="3.84105" fill="#C4C4C4"/>
<ellipse cx="101.568" cy="129.462" rx="3.84104" ry="3.84105" fill="#C4C4C4"/>
<path d="M78.9808 62.7166C70.5479 80.134 49.5921 87.4174 32.1748 78.9845C14.7574 70.5516 7.47406 49.5958 15.907 32.1784C24.3398 14.761 45.2956 7.47759 62.713 15.9105C80.1303 24.3434 87.4137 45.2992 78.9808 62.7166Z" fill="#F5F3FB" stroke="#A99EE1" stroke-width="0.960261"/>
<rect width="19.2052" height="2.88079" rx="1.44039" transform="matrix(1 0 0 -1 36.4062 57.5273)" fill="#CCC4EC"/>
<ellipse cx="27.2814" cy="41.6877" rx="5.28143" ry="5.28144" fill="#CCC4EC"/>
<ellipse cx="64.7346" cy="41.6877" rx="5.28143" ry="5.28144" fill="#CCC4EC"/>
<rect width="46.0925" height="1.92052" rx="0.960262" transform="matrix(0.96363 0.267239 -0.267238 0.963631 122.922 114.531)" fill="#CCC4EC"/>
<rect width="41.7202" height="1.92052" rx="0.960262" transform="matrix(0.96363 0.267239 -0.267238 0.963631 112.859 133.992)" fill="#CCC4EC"/>
<rect width="46.0925" height="1.92052" rx="0.960262" transform="matrix(0.968148 0.250381 -0.250379 0.968148 135.57 93.9766)" fill="#CCC4EC"/>
</svg>
