<svg width="16" height="16" viewBox="0 0 16 16" fill="none" xmlns="http://www.w3.org/2000/svg">
<path d="M8.6624 7.49885C8.61936 7.49885 8.57896 7.48401 8.54476 7.44982C8.48161 7.38666 8.48161 7.27772 8.54476 7.21456L14.0114 1.74789C14.0746 1.68473 14.1835 1.68473 14.2467 1.74789C14.3099 1.81105 14.3099 1.91999 14.2467 1.98315L8.78003 7.44982C8.74583 7.48401 8.70543 7.49885 8.6624 7.49885Z" fill="black" stroke="black" stroke-width="0.666667"/>
<path d="M14.5021 1.83203V1.4987H14.1687H11.4687C11.3795 1.4987 11.3021 1.42127 11.3021 1.33203C11.3021 1.24279 11.3795 1.16536 11.4687 1.16536H14.6687C14.758 1.16536 14.8354 1.24279 14.8354 1.33203V4.53203C14.8354 4.62127 14.758 4.6987 14.6687 4.6987C14.5795 4.6987 14.5021 4.62127 14.5021 4.53203V1.83203Z" fill="black" stroke="black" stroke-width="0.666667"/>
<path d="M10.0026 15.1654H6.0026C2.3826 15.1654 0.835938 13.6187 0.835938 9.9987V5.9987C0.835938 2.3787 2.3826 0.832031 6.0026 0.832031H7.33594C7.60927 0.832031 7.83594 1.0587 7.83594 1.33203C7.83594 1.60536 7.60927 1.83203 7.33594 1.83203H6.0026C2.92927 1.83203 1.83594 2.92536 1.83594 5.9987V9.9987C1.83594 13.072 2.92927 14.1654 6.0026 14.1654H10.0026C13.0759 14.1654 14.1693 13.072 14.1693 9.9987V8.66536C14.1693 8.39203 14.3959 8.16536 14.6693 8.16536C14.9426 8.16536 15.1693 8.39203 15.1693 8.66536V9.9987C15.1693 13.6187 13.6226 15.1654 10.0026 15.1654Z" fill="black"/>
</svg>
