<svg width="16" height="16" viewBox="0 0 16 16" fill="none" xmlns="http://www.w3.org/2000/svg">
<path d="M14.6641 4.33203H10.6641" stroke="black" stroke-miterlimit="10" stroke-linecap="round" stroke-linejoin="round"/>
<path d="M4.0026 4.33203H1.33594" stroke="black" stroke-miterlimit="10" stroke-linecap="round" stroke-linejoin="round"/>
<path d="M6.66927 6.66667C7.95794 6.66667 9.0026 5.622 9.0026 4.33333C9.0026 3.04467 7.95794 2 6.66927 2C5.38061 2 4.33594 3.04467 4.33594 4.33333C4.33594 5.622 5.38061 6.66667 6.66927 6.66667Z" stroke="black" stroke-miterlimit="10" stroke-linecap="round" stroke-linejoin="round"/>
<path d="M14.6667 11.668H12" stroke="black" stroke-miterlimit="10" stroke-linecap="round" stroke-linejoin="round"/>
<path d="M5.33594 11.668H1.33594" stroke="black" stroke-miterlimit="10" stroke-linecap="round" stroke-linejoin="round"/>
<path d="M9.33333 13.9987C10.622 13.9987 11.6667 12.954 11.6667 11.6654C11.6667 10.3767 10.622 9.33203 9.33333 9.33203C8.04467 9.33203 7 10.3767 7 11.6654C7 12.954 8.04467 13.9987 9.33333 13.9987Z" stroke="black" stroke-miterlimit="10" stroke-linecap="round" stroke-linejoin="round"/>
</svg>
