<svg width="15" height="15" viewBox="0 0 15 15" fill="none" xmlns="http://www.w3.org/2000/svg">
<path d="M10.4653 0.417969H4.52948C1.95115 0.417969 0.414062 1.95505 0.414062 4.53338V10.4621C0.414062 13.0476 1.95115 14.5846 4.52948 14.5846H10.4582C13.0366 14.5846 14.5736 13.0476 14.5736 10.4692V4.53338C14.5807 1.95505 13.0436 0.417969 10.4653 0.417969ZM10.9116 6.66547C10.7061 6.87088 10.3661 6.87088 10.1607 6.66547L8.02865 4.53338V11.7513C8.02865 12.0417 7.78781 12.2826 7.4974 12.2826C7.20698 12.2826 6.96615 12.0417 6.96615 11.7513V4.53338L4.83406 6.66547C4.62865 6.87088 4.28865 6.87088 4.08323 6.66547C3.97698 6.55922 3.9274 6.42463 3.9274 6.29005C3.9274 6.15547 3.98406 6.0138 4.08323 5.91464L7.12198 2.87589C7.22115 2.77672 7.35573 2.72005 7.4974 2.72005C7.63906 2.72005 7.77364 2.77672 7.87281 2.87589L10.9116 5.91464C11.117 6.12005 11.117 6.45297 10.9116 6.66547Z" fill="#388E3C"/>
</svg>
