<svg width="17" height="16" viewBox="0 0 17 16" fill="none" xmlns="http://www.w3.org/2000/svg">
<path d="M14.4813 0.667969H12.5213C11.9413 0.667969 11.5146 0.907969 11.3213 1.33464C11.2146 1.52797 11.168 1.75464 11.168 2.0213V3.9813C11.168 4.82797 11.6746 5.33464 12.5213 5.33464H14.4813C14.748 5.33464 14.9746 5.28797 15.168 5.1813C15.5946 4.98797 15.8346 4.5613 15.8346 3.9813V2.0213C15.8346 1.17464 15.328 0.667969 14.4813 0.667969ZM15.108 3.28797C15.0413 3.35464 14.9413 3.4013 14.8346 3.40797H13.8946V3.74797L13.9013 4.33464C13.8946 4.44797 13.8546 4.5413 13.7746 4.6213C13.708 4.68797 13.608 4.73464 13.5013 4.73464C13.2813 4.73464 13.1013 4.55464 13.1013 4.33464V3.4013L12.168 3.40797C11.948 3.40797 11.768 3.2213 11.768 3.0013C11.768 2.7813 11.948 2.6013 12.168 2.6013L12.7546 2.60797H13.1013V1.67464C13.1013 1.45464 13.2813 1.26797 13.5013 1.26797C13.7213 1.26797 13.9013 1.45464 13.9013 1.67464L13.8946 2.14797V2.6013H14.8346C15.0546 2.6013 15.2346 2.7813 15.2346 3.0013C15.228 3.11464 15.1813 3.20797 15.108 3.28797Z" fill="#262626"/>
<path d="M6.50073 6.91943C7.37702 6.91943 8.0874 6.20905 8.0874 5.33276C8.0874 4.45647 7.37702 3.74609 6.50073 3.74609C5.62444 3.74609 4.91406 4.45647 4.91406 5.33276C4.91406 6.20905 5.62444 6.91943 6.50073 6.91943Z" fill="#262626"/>
<path d="M14.4787 5.33203H14.1654V8.40536L14.0787 8.33203C13.5587 7.88536 12.7187 7.88536 12.1987 8.33203L9.42536 10.712C8.90536 11.1587 8.06536 11.1587 7.54536 10.712L7.3187 10.5254C6.84536 10.112 6.09203 10.072 5.5587 10.432L3.06536 12.1054C2.9187 11.732 2.83203 11.2987 2.83203 10.792V5.20536C2.83203 3.32536 3.82536 2.33203 5.70536 2.33203H11.1654V2.0187C11.1654 1.75203 11.212 1.52536 11.3187 1.33203H5.70536C3.2787 1.33203 1.83203 2.7787 1.83203 5.20536V10.792C1.83203 11.5187 1.9587 12.152 2.20536 12.6854C2.7787 13.952 4.00536 14.6654 5.70536 14.6654H11.292C13.7187 14.6654 15.1654 13.2187 15.1654 10.792V5.1787C14.972 5.28536 14.7454 5.33203 14.4787 5.33203Z" fill="#262626"/>
</svg>
