<svg width="25" height="24" viewBox="0 0 25 24" fill="none" xmlns="http://www.w3.org/2000/svg">
<path d="M19.9341 11.25H15.8941C13.8841 11.25 12.9141 10.27 12.9141 8.27V4.23C12.9141 2.22 13.8941 1.25 15.8941 1.25H19.9341C21.9441 1.25 22.9141 2.23 22.9141 4.23V8.27C22.9141 10.27 21.9341 11.25 19.9341 11.25ZM15.8941 2.75C14.7141 2.75 14.4141 3.05 14.4141 4.23V8.27C14.4141 9.45 14.7141 9.75 15.8941 9.75H19.9341C21.1141 9.75 21.4141 9.45 21.4141 8.27V4.23C21.4141 3.05 21.1141 2.75 19.9341 2.75H15.8941Z" fill="#555555"/>
<path d="M8.43406 11.25H4.39406C2.38406 11.25 1.41406 10.36 1.41406 8.52V3.98C1.41406 2.14 2.39406 1.25 4.39406 1.25H8.43406C10.4441 1.25 11.4141 2.14 11.4141 3.98V8.51C11.4141 10.36 10.4341 11.25 8.43406 11.25ZM4.39406 2.75C3.05406 2.75 2.91406 3.13 2.91406 3.98V8.51C2.91406 9.37 3.05406 9.74 4.39406 9.74H8.43406C9.77406 9.74 9.91406 9.36 9.91406 8.51V3.98C9.91406 3.12 9.77406 2.75 8.43406 2.75H4.39406Z" fill="#555555"/>
<path d="M8.43406 22.75H4.39406C2.38406 22.75 1.41406 21.77 1.41406 19.77V15.73C1.41406 13.72 2.39406 12.75 4.39406 12.75H8.43406C10.4441 12.75 11.4141 13.73 11.4141 15.73V19.77C11.4141 21.77 10.4341 22.75 8.43406 22.75ZM4.39406 14.25C3.21406 14.25 2.91406 14.55 2.91406 15.73V19.77C2.91406 20.95 3.21406 21.25 4.39406 21.25H8.43406C9.61406 21.25 9.91406 20.95 9.91406 19.77V15.73C9.91406 14.55 9.61406 14.25 8.43406 14.25H4.39406Z" fill="#555555"/>
<path d="M20.6641 18.25H14.6641C14.2541 18.25 13.9141 17.91 13.9141 17.5C13.9141 17.09 14.2541 16.75 14.6641 16.75H20.6641C21.0741 16.75 21.4141 17.09 21.4141 17.5C21.4141 17.91 21.0741 18.25 20.6641 18.25Z" fill="#555555"/>
<path d="M17.6641 21.25C17.2541 21.25 16.9141 20.91 16.9141 20.5V14.5C16.9141 14.09 17.2541 13.75 17.6641 13.75C18.0741 13.75 18.4141 14.09 18.4141 14.5V20.5C18.4141 20.91 18.0741 21.25 17.6641 21.25Z" fill="#555555"/>
</svg>
