<svg width="25" height="24" viewBox="0 0 25 24" fill="none" xmlns="http://www.w3.org/2000/svg">
<path d="M22.269 6.76099L18.899 20.291C18.659 21.301 17.759 22.001 16.719 22.001H3.579C2.069 22.001 0.989013 20.5209 1.43901 19.0709L5.649 5.55103C5.939 4.61103 6.80902 3.96094 7.78902 3.96094H20.089C21.039 3.96094 21.829 4.54094 22.159 5.34094C22.349 5.77094 22.389 6.26099 22.269 6.76099Z" stroke="#555555" stroke-width="1.5" stroke-miterlimit="10"/>
<path d="M16.3359 22H21.1159C22.4059 22 23.4159 20.91 23.3259 19.62L22.3359 6" stroke="#555555" stroke-width="1.5" stroke-miterlimit="10" stroke-linecap="round" stroke-linejoin="round"/>
<path d="M10.0156 6.37854L11.0556 2.05859" stroke="#555555" stroke-width="1.5" stroke-miterlimit="10" stroke-linecap="round" stroke-linejoin="round"/>
<path d="M16.7188 6.39075L17.6588 2.05078" stroke="#555555" stroke-width="1.5" stroke-miterlimit="10" stroke-linecap="round" stroke-linejoin="round"/>
<path d="M8.03906 12H16.0391" stroke="#555555" stroke-width="1.5" stroke-miterlimit="10" stroke-linecap="round" stroke-linejoin="round"/>
<path d="M7.03906 16H15.0391" stroke="#555555" stroke-width="1.5" stroke-miterlimit="10" stroke-linecap="round" stroke-linejoin="round"/>
</svg>
