<svg width="24" height="24" viewBox="0 0 24 24" fill="none" xmlns="http://www.w3.org/2000/svg">
<path d="M12.0004 13.8509C11.8704 13.8509 11.7404 13.8209 11.6304 13.7509C11.2704 13.5409 11.1504 13.0809 11.3504 12.7309L12.2004 11.2509H11.3604C10.8604 11.2509 10.4504 11.0309 10.2304 10.6609C10.0104 10.2809 10.0304 9.82088 10.2804 9.38088L11.3504 7.52088C11.5604 7.16088 12.0204 7.04088 12.3704 7.24088C12.7304 7.45088 12.8504 7.91088 12.6504 8.26088L11.8004 9.75088H12.6404C13.1404 9.75088 13.5504 9.97088 13.7704 10.3409C13.9904 10.7209 13.9704 11.1809 13.7204 11.6209L12.6504 13.4809C12.5104 13.7209 12.2604 13.8509 12.0004 13.8509Z" fill="#555555"/>
<path d="M14.7672 19.7483H9.25719C8.81719 19.7483 8.25719 19.6983 7.88719 19.3183C7.52719 18.9483 7.53719 18.4883 7.54719 18.1783V17.2883C5.02719 15.6083 3.36719 12.6883 3.36719 9.90834C3.36719 7.27834 4.54719 4.81834 6.59719 3.16834C8.64719 1.51834 11.3372 0.898338 13.9672 1.47834C16.4672 2.02834 18.6272 3.69834 19.7472 5.94834C21.9172 10.3183 19.8272 15.0483 16.4872 17.2983V18.0483C16.4972 18.3383 16.5072 18.8683 16.0972 19.2883C15.7872 19.5883 15.3472 19.7483 14.7672 19.7483ZM9.03719 18.2383C9.08719 18.2383 9.15719 18.2483 9.24719 18.2483H14.7672C14.8672 18.2483 14.9372 18.2383 14.9772 18.2283C14.9772 18.1983 14.9772 18.1583 14.9772 18.1283V16.8683C14.9772 16.6083 15.1172 16.3583 15.3372 16.2283C18.2972 14.4383 20.2572 10.3483 18.3872 6.59834C17.4672 4.74834 15.6872 3.37834 13.6272 2.92834C11.4472 2.44834 9.21719 2.95834 7.51719 4.32834C5.81719 5.69834 4.84719 7.72834 4.84719 9.90834C4.84719 12.6883 6.76719 15.0883 8.66719 16.2383C8.89719 16.3783 9.02719 16.6183 9.02719 16.8783V18.2283C9.03719 18.2283 9.03719 18.2283 9.03719 18.2383Z" fill="#555555"/>
<path d="M15.5032 22.7514C15.4332 22.7514 15.3632 22.7414 15.2932 22.7214C13.1332 22.1014 10.8632 22.1014 8.70318 22.7214C8.30318 22.8314 7.89318 22.6014 7.77318 22.2014C7.65318 21.8014 7.89318 21.3914 8.29318 21.2714C10.7132 20.5814 13.2832 20.5814 15.7032 21.2714C16.1032 21.3814 16.3332 21.8014 16.2232 22.2014C16.1332 22.5414 15.8332 22.7514 15.5032 22.7514Z" fill="#555555"/>
</svg>
