<svg width="100" height="100" viewBox="0 0 100 100" fill="none" xmlns="http://www.w3.org/2000/svg">
<path opacity="0.4" d="M72.6815 64.4916L72.6764 64.5323L72.6729 64.5732C72.2259 69.8206 70.4916 73.4481 67.7237 75.7969C64.9279 78.1694 60.7696 79.4999 54.957 79.4999H53.2904C51.593 79.4999 49.9755 80.3087 48.957 81.6666L50.6237 82.9166L48.957 81.6667L43.9571 88.3333L43.9543 88.3371C43.1806 89.3735 42.316 89.7188 41.6237 89.7188C40.9314 89.7188 40.0668 89.3735 39.2932 88.3371L39.2904 88.3333L34.2903 81.6666L34.2845 81.6588L34.2786 81.6511C33.7644 80.9788 33.0458 80.4662 32.3707 80.125C31.6969 79.7844 30.8396 79.4999 29.957 79.4999H28.2904C21.6788 79.4999 17.3997 78.6448 14.6972 76.2849C12.0646 73.9861 10.4154 69.7792 10.4154 61.625V44.9584C10.4154 39.1492 11.7548 34.9904 14.1328 32.1932C16.4881 29.4228 20.1176 27.6892 25.3429 27.2425L25.3834 27.239L25.4238 27.2339C26.3077 27.1235 27.2562 27.0833 28.2904 27.0833H54.957C61.2801 27.0833 65.647 28.6675 68.4475 31.4679C71.2479 34.2684 72.8321 38.6353 72.8321 44.9584V61.625C72.8321 62.6593 72.7919 63.6077 72.6815 64.4916Z" fill="#695ACD" stroke="#695ACD" stroke-width="4.16667"/>
<path d="M41.6159 58.3333C39.2826 58.3333 37.4492 56.4583 37.4492 54.1667C37.4492 51.875 39.3242 50 41.6159 50C43.9076 50 45.7826 51.875 45.7826 54.1667C45.7826 56.4583 43.9492 58.3333 41.6159 58.3333Z" fill="#695ACD"/>
<path d="M56.2018 58.3333C53.8685 58.3333 52.0352 56.4583 52.0352 54.1667C52.0352 51.875 53.9102 50 56.2018 50C58.4935 50 60.3685 51.875 60.3685 54.1667C60.3685 56.4583 58.4935 58.3333 56.2018 58.3333Z" fill="#695ACD"/>
<path d="M27.0807 58.3333C24.7474 58.3333 22.9141 56.4583 22.9141 54.1667C22.9141 51.875 24.7891 50 27.0807 50C29.3724 50 31.2474 51.875 31.2474 54.1667C31.2474 56.4583 29.3724 58.3333 27.0807 58.3333Z" fill="#695ACD"/>
<path d="M91.5807 28.2904V44.9571C91.5807 57.2071 85.9557 63.7904 74.7474 64.7487C74.8724 63.7487 74.9141 62.7071 74.9141 61.6237V44.9571C74.9141 31.6654 68.2474 24.9987 54.9557 24.9987H28.2891C27.2057 24.9987 26.1641 25.0404 25.1641 25.1654C26.1224 13.9571 32.7474 8.33203 44.9557 8.33203H71.6224C84.914 8.33203 91.5807 14.9987 91.5807 28.2904Z" fill="#695ACD"/>
</svg>
