<svg width="26" height="26" viewBox="0 0 26 26" fill="none" xmlns="http://www.w3.org/2000/svg">
<path d="M9.38047 17.9334L9.38031 17.9317C9.36603 17.7854 9.47289 17.6501 9.62923 17.6352L9.63177 17.6349C9.76372 17.6217 9.91192 17.7359 9.927 17.8842C10.0906 19.6533 10.6009 20.9947 11.7068 21.868C12.793 22.7257 14.3469 23.0435 16.3813 23.0435H16.5221C18.7642 23.0435 20.4442 22.6526 21.5432 21.5537C22.6421 20.4548 23.033 18.7747 23.033 16.5326V9.46922C23.033 7.2271 22.6421 5.54706 21.5432 4.44815C20.4442 3.34923 18.7642 2.95834 16.5221 2.95834H16.3813C14.3357 2.95834 12.774 3.28166 11.6868 4.15579C10.5834 5.04301 10.0807 6.40374 9.9275 8.19801C9.90275 8.37122 9.76518 8.46627 9.62922 8.45332L9.62924 8.45317L9.61646 8.45226C9.47629 8.44225 9.36002 8.31691 9.37042 8.15708C9.54763 6.09061 10.1848 4.69191 11.2679 3.79542C12.3633 2.88881 14.0089 2.41667 16.3704 2.41667H16.5113C19.1085 2.41667 20.8338 2.97419 21.92 4.06043C23.0063 5.14667 23.5638 6.87194 23.5638 9.46922V16.5326C23.5638 19.1299 23.0063 20.8552 21.92 21.9414C20.8338 23.0276 19.1085 23.5852 16.5113 23.5852H16.3704C14.0244 23.5852 12.3882 23.1209 11.2949 22.2284C10.2136 21.3458 9.5726 19.9689 9.38047 17.9334Z" fill="black" stroke="black" stroke-width="1.08334"/>
<path d="M16.2503 13.2708H3.92188C3.77687 13.2708 3.65105 13.145 3.65105 13C3.65105 12.855 3.77687 12.7292 3.92188 12.7292H16.2503C16.3953 12.7292 16.5211 12.855 16.5211 13C16.5211 13.145 16.3953 13.2708 16.2503 13.2708Z" fill="black" stroke="black" stroke-width="1.08334"/>
<path d="M6.33743 17.4432C6.13159 17.4432 5.92576 17.3674 5.76326 17.2049L2.13406 13.5757C1.8199 13.2615 1.8199 12.7415 2.13406 12.4273L5.76326 8.79813C6.07743 8.48396 6.59743 8.48396 6.9116 8.79813C7.22577 9.1123 7.22577 9.6323 6.9116 9.94647L3.85658 13.0015L6.9116 16.0565C7.22577 16.3707 7.22577 16.8907 6.9116 17.2049C6.75993 17.3674 6.54326 17.4432 6.33743 17.4432Z" fill="black"/>
</svg>
