<svg width="228" height="128" viewBox="0 0 228 128" fill="none" xmlns="http://www.w3.org/2000/svg">
<path d="M58.0806 29.9978L53.5472 21.6886C53.3121 21.2573 52.9819 20.8852 52.5818 20.6003C52.1816 20.3154 51.7219 20.1253 51.2375 20.0443C50.753 19.9633 50.2565 19.9936 49.7855 20.1329C49.3144 20.2721 48.8812 20.5166 48.5187 20.848L27.4143 40.1282C27.2725 40.2576 27.1732 40.4269 27.1293 40.6139C27.0855 40.8008 27.0993 40.9966 27.1688 41.1756C27.2383 41.3546 27.3603 41.5083 27.5187 41.6167C27.6772 41.7251 27.8648 41.783 28.0567 41.7828H30.8681C36.027 41.7828 38.9785 47.6668 35.8942 51.8021L20.2531 72.761C19.4126 73.8866 20.8424 75.2972 21.9559 74.4518L53.8491 49.9832C56.8226 47.7047 58.8834 44.438 59.6594 40.7729C60.4354 37.1078 59.8754 33.2861 58.0806 29.9978Z" fill="white"/>
<path d="M63.2799 73.1353C61.4792 71.7848 60.611 69.8554 60.6753 67.4116H65.4986C65.563 68.6335 66.0774 69.5982 67.01 70.2413C67.9425 70.8844 69.2287 71.2381 70.8365 71.2381C72.3478 71.2381 73.5376 71.013 74.3736 70.4985C75.2097 69.984 75.6599 69.2766 75.6599 68.3762C75.6599 67.7653 75.4348 67.2508 74.9846 66.8328C74.5344 66.4147 73.9235 66.1253 73.0874 65.9324L67.6209 64.7426C65.4986 64.2925 63.923 63.4886 62.8297 62.3953C61.7364 61.302 61.1898 59.9514 61.1898 58.3115C61.1898 56.2857 62.0258 54.6779 63.7301 53.4881C65.4022 52.3305 67.7495 51.7195 70.7079 51.7195C73.7305 51.7195 76.1101 52.427 77.8465 53.8097C79.5507 55.1924 80.4189 57.1217 80.4832 59.5977H75.7563C75.692 58.3758 75.2419 57.4111 74.3415 56.7358C73.4411 56.0606 72.2514 55.7069 70.7079 55.7069C69.2609 55.7069 68.1354 55.9641 67.3637 56.4143C66.5919 56.8645 66.2061 57.5397 66.2061 58.3758C66.2061 59.0189 66.4633 59.5977 67.01 60.0479C67.5245 60.4981 68.3284 60.8518 69.3895 61.0769L75.3705 62.4596C77.0104 62.8454 78.2967 63.5207 79.2292 64.4854C80.1617 65.4822 80.644 66.8006 80.644 68.4406C80.644 70.5628 79.7758 72.2028 78.0394 73.3925C76.303 74.6145 73.9235 75.1933 70.8365 75.1933C67.5888 75.1933 65.0806 74.518 63.2799 73.1353ZM108.142 58.3436C108.978 58.826 109.653 59.5334 110.167 60.4338C110.682 61.3663 110.939 62.4596 110.939 63.6815V74.7109H106.373V65.4179C106.373 64.0995 106.051 63.0705 105.44 62.331C104.829 61.5914 103.993 61.2055 102.9 61.2055C101.71 61.2055 100.778 61.6557 100.135 62.4917C99.4916 63.3599 99.17 64.5497 99.17 66.061V74.7109H94.6039V65.4179C94.6039 64.1317 94.2824 63.1027 93.6714 62.331C93.0283 61.5914 92.1922 61.2055 91.1311 61.2055C89.9413 61.2055 89.0088 61.6557 88.3657 62.4917C87.7226 63.3599 87.401 64.5497 87.401 66.061V74.7109H82.8027V58.1185H87.2402L87.401 63.167H87.5939C87.819 61.4306 88.4943 60.08 89.6198 59.0832C90.7131 58.1185 91.9993 57.6041 93.4785 57.6041C95.0219 57.6041 96.3082 58.1185 97.4015 59.1154C98.4626 60.1122 99.0414 61.4627 99.17 63.167H99.363C99.5881 61.4306 100.263 60.08 101.389 59.0832C102.482 58.1185 103.8 57.6041 105.28 57.6041C106.309 57.6041 107.273 57.8613 108.142 58.3436ZM130.352 67.3473H117.682C117.682 68.73 118.132 69.8233 118.968 70.595C119.805 71.3989 120.866 71.7848 122.184 71.7848C123.213 71.7848 124.081 71.5275 124.789 71.013C125.496 70.4985 125.978 69.7911 126.204 68.955H130.191C129.998 70.3056 129.516 71.4632 128.712 72.3957C127.876 73.3604 126.911 74.0678 125.753 74.518C124.596 75.0003 123.406 75.2254 122.184 75.2254C119.419 75.2254 117.264 74.4537 115.689 72.9102C114.081 71.3667 113.309 69.1801 113.309 66.3504C113.309 64.614 113.663 63.1027 114.37 61.7521C115.078 60.4338 116.074 59.4048 117.361 58.6973C118.647 57.9899 120.158 57.6041 121.895 57.6041C123.599 57.6041 125.11 57.9899 126.396 58.7295C127.683 59.5012 128.647 60.4981 129.323 61.7843C129.998 63.0705 130.352 64.4854 130.352 66.0289V67.3473ZM118.936 62.0416C118.165 62.7168 117.747 63.6493 117.682 64.8713H125.85C125.753 63.6815 125.335 62.749 124.596 62.0737C123.856 61.3984 122.924 61.0447 121.798 61.0447C120.641 61.0447 119.676 61.3984 118.936 62.0416ZM137.585 64.4854C137.843 62.8133 138.196 61.4949 138.711 60.5302C139.193 59.5977 139.901 58.9224 140.833 58.4723C141.766 58.0542 143.052 57.8291 144.692 57.8291V61.6878C142.891 61.8165 141.476 62.0416 140.479 62.4274C139.45 62.8133 138.711 63.4243 138.229 64.2603C137.714 65.0964 137.457 66.3183 137.392 67.8618V74.7109H132.826V58.1185H137.264L137.392 64.4854H137.585ZM161.177 58.6973C162.238 59.4048 163.074 60.4338 163.685 61.7521C164.264 63.1027 164.585 64.6462 164.585 66.4147C164.585 68.2155 164.264 69.7589 163.685 71.0773C163.074 72.4279 162.238 73.4569 161.177 74.1643C160.116 74.8717 158.894 75.2254 157.543 75.2254C156.129 75.2254 154.874 74.8074 153.781 73.9392C152.688 73.071 151.884 71.7848 151.434 70.0805H151.241V80.6276H146.675V58.1185H151.112L151.241 62.7811H151.434C151.884 61.0769 152.688 59.7906 153.781 58.9224C154.874 58.0542 156.129 57.6041 157.543 57.6041C158.894 57.6041 160.116 57.9899 161.177 58.6973ZM158.797 70.5628C159.569 69.566 159.987 68.1833 159.987 66.4147C159.987 64.6783 159.569 63.2956 158.797 62.2988C157.994 61.302 156.932 60.7875 155.614 60.7875C154.296 60.7875 153.234 61.2377 152.431 62.1059C151.627 63.0062 151.241 64.0995 151.241 65.4501V67.4116C151.241 68.7621 151.627 69.8554 152.431 70.7236C153.234 71.624 154.296 72.042 155.614 72.042C156.932 72.042 157.994 71.5597 158.797 70.5628ZM184.449 69.5017C183.967 71.206 183.099 72.5887 181.813 73.6498C180.526 74.7109 178.822 75.2254 176.636 75.2254C174.642 75.2254 172.873 74.7752 171.33 73.8106C169.786 72.8781 168.565 71.5275 167.696 69.7268C166.828 67.9582 166.41 65.8681 166.41 63.4564C166.41 61.109 166.86 59.0511 167.761 57.2825C168.661 55.5139 169.979 54.1312 171.716 53.1666C173.452 52.2019 175.51 51.6874 177.89 51.6874C180.944 51.6874 183.42 52.4591 185.286 53.9704C187.151 55.5139 188.276 57.5397 188.598 60.1122H183.549C183.292 58.7617 182.681 57.6684 181.716 56.8323C180.752 55.9963 179.497 55.5782 177.954 55.5782C175.832 55.6104 174.256 56.3178 173.163 57.7327C172.069 59.1475 171.523 61.0447 171.523 63.4564C171.523 65.9646 172.102 67.9261 173.259 69.2766C174.417 70.6593 176.153 71.3346 178.436 71.3346C179.562 71.3346 180.559 71.1416 181.459 70.6915C182.359 70.2734 183.067 69.6946 183.581 68.955C184.096 68.2155 184.385 67.4116 184.449 66.5434V66.2218H176.861V62.749H189.08V74.7109H184.9L184.675 69.5017H184.449ZM195.97 74.1643C194.587 73.4569 193.494 72.3957 192.69 71.0452C191.886 69.6946 191.5 68.1512 191.5 66.3504C191.5 64.614 191.886 63.1027 192.69 61.7521C193.494 60.4338 194.587 59.4048 195.97 58.6973C197.353 57.9899 198.896 57.6041 200.568 57.6041C202.24 57.6041 203.752 57.9899 205.134 58.6973C206.485 59.4048 207.578 60.4338 208.382 61.7521C209.186 63.1027 209.604 64.614 209.604 66.3504C209.604 68.1512 209.186 69.6946 208.414 71.0452C207.61 72.3957 206.517 73.4569 205.134 74.1643C203.752 74.8717 202.24 75.2254 200.568 75.2254C198.896 75.2254 197.353 74.8717 195.97 74.1643ZM203.784 70.3699C204.556 69.4695 204.974 68.119 204.974 66.3504C204.974 64.6462 204.556 63.3278 203.784 62.4274C203.012 61.5271 201.919 61.0769 200.568 61.0769C199.153 61.0769 198.06 61.5271 197.288 62.4274C196.517 63.3278 196.131 64.6462 196.131 66.3504C196.131 68.119 196.517 69.4695 197.288 70.3699C198.06 71.3024 199.153 71.7526 200.568 71.7526C201.919 71.7526 203.012 71.3024 203.784 70.3699Z" fill="white"/>
<g clip-path="url(#clip0_8739_14069)">
<path d="M19.3636 103.711C19.2386 103.328 19.0739 102.986 18.8693 102.683C18.6686 102.376 18.428 102.114 18.1477 101.898C17.8712 101.683 17.5568 101.518 17.2045 101.404C16.8523 101.29 16.4659 101.234 16.0455 101.234C15.3561 101.234 14.7292 101.412 14.1648 101.768C13.6004 102.124 13.1515 102.648 12.8182 103.342C12.4848 104.035 12.3182 104.885 12.3182 105.893C12.3182 106.9 12.4867 107.751 12.8239 108.444C13.161 109.137 13.6174 109.662 14.1932 110.018C14.7689 110.374 15.4167 110.552 16.1364 110.552C16.803 110.552 17.3902 110.41 17.8977 110.126C18.4091 109.838 18.8068 109.433 19.0909 108.91C19.3788 108.383 19.5227 107.764 19.5227 107.052L19.9545 107.143H16.4545V105.893H20.8864V107.143C20.8864 108.101 20.6818 108.934 20.2727 109.643C19.8674 110.351 19.3068 110.9 18.5909 111.29C17.8788 111.677 17.0606 111.87 16.1364 111.87C15.1061 111.87 14.2008 111.628 13.4205 111.143C12.6439 110.658 12.0379 109.969 11.6023 109.075C11.1705 108.181 10.9545 107.12 10.9545 105.893C10.9545 104.972 11.0777 104.145 11.3239 103.41C11.5739 102.671 11.9261 102.042 12.3807 101.523C12.8352 101.004 13.3731 100.607 13.9943 100.33C14.6155 100.054 15.2992 99.9155 16.0455 99.9155C16.6591 99.9155 17.2311 100.008 17.7614 100.194C18.2955 100.376 18.7708 100.635 19.1875 100.972C19.608 101.306 19.9583 101.705 20.2386 102.171C20.5189 102.633 20.7121 103.147 20.8182 103.711H19.3636ZM23.1179 111.711V102.984H24.4134V104.302H24.5043C24.6634 103.87 24.9512 103.52 25.3679 103.251C25.7846 102.982 26.2543 102.847 26.777 102.847C26.8755 102.847 26.9986 102.849 27.1463 102.853C27.294 102.857 27.4058 102.862 27.4815 102.87V104.234C27.4361 104.222 27.3319 104.205 27.169 104.183C27.0099 104.156 26.8414 104.143 26.6634 104.143C26.2391 104.143 25.8603 104.232 25.527 104.41C25.1974 104.584 24.9361 104.826 24.7429 105.137C24.5535 105.444 24.4588 105.794 24.4588 106.188V111.711H23.1179ZM32.3509 111.893C31.563 111.893 30.8717 111.705 30.277 111.33C29.6861 110.955 29.224 110.431 28.8906 109.756C28.5611 109.082 28.3963 108.294 28.3963 107.393C28.3963 106.484 28.5611 105.69 28.8906 105.012C29.224 104.334 29.6861 103.808 30.277 103.433C30.8717 103.058 31.563 102.87 32.3509 102.87C33.1387 102.87 33.8281 103.058 34.419 103.433C35.0137 103.808 35.4759 104.334 35.8054 105.012C36.1387 105.69 36.3054 106.484 36.3054 107.393C36.3054 108.294 36.1387 109.082 35.8054 109.756C35.4759 110.431 35.0137 110.955 34.419 111.33C33.8281 111.705 33.1387 111.893 32.3509 111.893ZM32.3509 110.688C32.9493 110.688 33.4418 110.535 33.8281 110.228C34.2145 109.921 34.5005 109.518 34.6861 109.018C34.8717 108.518 34.9645 107.976 34.9645 107.393C34.9645 106.809 34.8717 106.266 34.6861 105.762C34.5005 105.258 34.2145 104.851 33.8281 104.54C33.4418 104.23 32.9493 104.075 32.3509 104.075C31.7524 104.075 31.2599 104.23 30.8736 104.54C30.4872 104.851 30.2012 105.258 30.0156 105.762C29.83 106.266 29.7372 106.809 29.7372 107.393C29.7372 107.976 29.83 108.518 30.0156 109.018C30.2012 109.518 30.4872 109.921 30.8736 110.228C31.2599 110.535 31.7524 110.688 32.3509 110.688ZM40.0327 111.711L37.3736 102.984H38.7827L40.669 109.665H40.7599L42.6236 102.984H44.0554L45.8963 109.643H45.9872L47.8736 102.984H49.2827L46.6236 111.711H45.3054L43.3963 105.006H43.2599L41.3509 111.711H40.0327ZM56.419 114.984C56.1918 114.984 55.9891 114.965 55.8111 114.927C55.633 114.893 55.5099 114.859 55.4418 114.825L55.7827 113.643C56.1084 113.726 56.3963 113.756 56.6463 113.734C56.8963 113.711 57.1179 113.599 57.3111 113.398C57.508 113.201 57.688 112.881 57.8509 112.438L58.1009 111.756L54.8736 102.984H56.3281L58.7372 109.938H58.8281L61.2372 102.984H62.6918L58.9872 112.984C58.8205 113.434 58.6141 113.808 58.3679 114.103C58.1217 114.402 57.8357 114.624 57.5099 114.768C57.188 114.912 56.8243 114.984 56.419 114.984ZM67.6946 111.893C66.9067 111.893 66.2154 111.705 65.6207 111.33C65.0298 110.955 64.5677 110.431 64.2344 109.756C63.9048 109.082 63.7401 108.294 63.7401 107.393C63.7401 106.484 63.9048 105.69 64.2344 105.012C64.5677 104.334 65.0298 103.808 65.6207 103.433C66.2154 103.058 66.9067 102.87 67.6946 102.87C68.4825 102.87 69.1719 103.058 69.7628 103.433C70.3575 103.808 70.8196 104.334 71.1491 105.012C71.4825 105.69 71.6491 106.484 71.6491 107.393C71.6491 108.294 71.4825 109.082 71.1491 109.756C70.8196 110.431 70.3575 110.955 69.7628 111.33C69.1719 111.705 68.4825 111.893 67.6946 111.893ZM67.6946 110.688C68.2931 110.688 68.7855 110.535 69.1719 110.228C69.5582 109.921 69.8442 109.518 70.0298 109.018C70.2154 108.518 70.3082 107.976 70.3082 107.393C70.3082 106.809 70.2154 106.266 70.0298 105.762C69.8442 105.258 69.5582 104.851 69.1719 104.54C68.7855 104.23 68.2931 104.075 67.6946 104.075C67.0961 104.075 66.6037 104.23 66.2173 104.54C65.831 104.851 65.545 105.258 65.3594 105.762C65.1738 106.266 65.081 106.809 65.081 107.393C65.081 107.976 65.1738 108.518 65.3594 109.018C65.545 109.518 65.831 109.921 66.2173 110.228C66.6037 110.535 67.0961 110.688 67.6946 110.688ZM79.196 108.143V102.984H80.5369V111.711H79.196V110.234H79.1051C78.9006 110.677 78.5824 111.054 78.1506 111.364C77.7188 111.671 77.1733 111.825 76.5142 111.825C75.9688 111.825 75.4839 111.705 75.0597 111.467C74.6354 111.224 74.3021 110.861 74.0597 110.376C73.8172 109.887 73.696 109.272 73.696 108.529V102.984H75.0369V108.438C75.0369 109.075 75.215 109.582 75.571 109.961C75.9309 110.34 76.3892 110.529 76.946 110.529C77.2794 110.529 77.6184 110.444 77.9631 110.273C78.3116 110.103 78.6032 109.842 78.8381 109.489C79.0767 109.137 79.196 108.688 79.196 108.143ZM82.9929 111.711V102.984H84.2884V104.302H84.3793C84.5384 103.87 84.8262 103.52 85.2429 103.251C85.6596 102.982 86.1293 102.847 86.652 102.847C86.7505 102.847 86.8736 102.849 87.0213 102.853C87.169 102.857 87.2808 102.862 87.3565 102.87V104.234C87.3111 104.222 87.2069 104.205 87.044 104.183C86.8849 104.156 86.7164 104.143 86.5384 104.143C86.1141 104.143 85.7353 104.232 85.402 104.41C85.0724 104.584 84.8111 104.826 84.6179 105.137C84.4285 105.444 84.3338 105.794 84.3338 106.188V111.711H82.9929ZM93.6278 111.711V100.075H94.9688V104.37H95.0824C95.1809 104.219 95.3172 104.025 95.4915 103.79C95.6695 103.552 95.9233 103.34 96.2528 103.154C96.5862 102.965 97.0369 102.87 97.6051 102.87C98.34 102.87 98.9877 103.054 99.5483 103.421C100.109 103.789 100.546 104.309 100.861 104.984C101.175 105.658 101.332 106.453 101.332 107.37C101.332 108.294 101.175 109.095 100.861 109.773C100.546 110.448 100.111 110.97 99.554 111.342C98.9972 111.709 98.3551 111.893 97.6278 111.893C97.0672 111.893 96.6184 111.8 96.2812 111.614C95.9441 111.425 95.6847 111.211 95.5028 110.972C95.321 110.73 95.1809 110.529 95.0824 110.37H94.9233V111.711H93.6278ZM94.946 107.347C94.946 108.006 95.0426 108.588 95.2358 109.092C95.429 109.592 95.7112 109.984 96.0824 110.268C96.4536 110.548 96.9081 110.688 97.446 110.688C98.0066 110.688 98.4744 110.54 98.8494 110.245C99.2282 109.946 99.5123 109.544 99.7017 109.04C99.8949 108.533 99.9915 107.969 99.9915 107.347C99.9915 106.734 99.8968 106.181 99.7074 105.688C99.5218 105.192 99.2396 104.8 98.8608 104.512C98.4858 104.22 98.0142 104.075 97.446 104.075C96.9006 104.075 96.4422 104.213 96.071 104.489C95.6998 104.762 95.4195 105.145 95.2301 105.637C95.0407 106.126 94.946 106.696 94.946 107.347ZM108.884 108.143V102.984H110.224V111.711H108.884V110.234H108.793C108.588 110.677 108.27 111.054 107.838 111.364C107.406 111.671 106.861 111.825 106.202 111.825C105.656 111.825 105.171 111.705 104.747 111.467C104.323 111.224 103.99 110.861 103.747 110.376C103.505 109.887 103.384 109.272 103.384 108.529V102.984H104.724V108.438C104.724 109.075 104.902 109.582 105.259 109.961C105.618 110.34 106.077 110.529 106.634 110.529C106.967 110.529 107.306 110.444 107.651 110.273C107.999 110.103 108.291 109.842 108.526 109.489C108.764 109.137 108.884 108.688 108.884 108.143ZM118.862 104.938L117.658 105.279C117.582 105.078 117.47 104.883 117.322 104.694C117.179 104.501 116.982 104.342 116.732 104.217C116.482 104.092 116.161 104.029 115.771 104.029C115.237 104.029 114.792 104.152 114.436 104.398C114.084 104.641 113.908 104.95 113.908 105.325C113.908 105.658 114.029 105.921 114.271 106.114C114.514 106.308 114.893 106.469 115.408 106.597L116.703 106.915C117.483 107.105 118.065 107.395 118.447 107.785C118.83 108.171 119.021 108.669 119.021 109.279C119.021 109.779 118.877 110.226 118.589 110.62C118.305 111.014 117.908 111.325 117.396 111.552C116.885 111.779 116.29 111.893 115.612 111.893C114.722 111.893 113.985 111.7 113.402 111.313C112.819 110.927 112.449 110.362 112.294 109.62L113.567 109.302C113.688 109.772 113.917 110.124 114.254 110.359C114.595 110.594 115.04 110.711 115.589 110.711C116.214 110.711 116.711 110.578 117.078 110.313C117.449 110.044 117.635 109.722 117.635 109.347C117.635 109.044 117.529 108.79 117.317 108.586C117.105 108.378 116.779 108.222 116.339 108.12L114.885 107.779C114.086 107.59 113.499 107.296 113.124 106.898C112.752 106.497 112.567 105.995 112.567 105.393C112.567 104.9 112.705 104.465 112.982 104.086C113.262 103.707 113.643 103.41 114.124 103.194C114.608 102.978 115.158 102.87 115.771 102.87C116.635 102.87 117.313 103.059 117.805 103.438C118.302 103.817 118.654 104.317 118.862 104.938ZM121.04 111.711V102.984H122.381V111.711H121.04ZM121.722 101.529C121.46 101.529 121.235 101.44 121.045 101.262C120.86 101.084 120.767 100.87 120.767 100.62C120.767 100.37 120.86 100.156 121.045 99.978C121.235 99.8 121.46 99.7109 121.722 99.7109C121.983 99.7109 122.206 99.8 122.392 99.978C122.581 100.156 122.676 100.37 122.676 100.62C122.676 100.87 122.581 101.084 122.392 101.262C122.206 101.44 121.983 101.529 121.722 101.529ZM126.178 106.461V111.711H124.837V102.984H126.132V104.347H126.246C126.45 103.904 126.761 103.548 127.178 103.279C127.594 103.006 128.132 102.87 128.791 102.87C129.382 102.87 129.899 102.991 130.342 103.234C130.786 103.472 131.13 103.836 131.376 104.325C131.623 104.809 131.746 105.423 131.746 106.165V111.711H130.405V106.256C130.405 105.571 130.227 105.037 129.871 104.654C129.515 104.268 129.026 104.075 128.405 104.075C127.977 104.075 127.594 104.167 127.257 104.353C126.924 104.539 126.661 104.809 126.467 105.165C126.274 105.522 126.178 105.953 126.178 106.461ZM137.855 111.893C137.014 111.893 136.289 111.707 135.679 111.336C135.073 110.961 134.605 110.438 134.276 109.768C133.95 109.094 133.787 108.309 133.787 107.415C133.787 106.522 133.95 105.734 134.276 105.052C134.605 104.366 135.063 103.832 135.651 103.45C136.241 103.063 136.931 102.87 137.719 102.87C138.173 102.87 138.622 102.946 139.065 103.097C139.509 103.249 139.912 103.495 140.276 103.836C140.639 104.173 140.929 104.62 141.145 105.177C141.361 105.734 141.469 106.419 141.469 107.234V107.802H134.741V106.643H140.105C140.105 106.15 140.007 105.711 139.81 105.325C139.616 104.938 139.34 104.633 138.98 104.41C138.624 104.186 138.204 104.075 137.719 104.075C137.185 104.075 136.723 104.207 136.332 104.472C135.946 104.734 135.649 105.075 135.44 105.495C135.232 105.915 135.128 106.366 135.128 106.847V107.62C135.128 108.279 135.241 108.838 135.469 109.296C135.7 109.751 136.02 110.097 136.429 110.336C136.838 110.571 137.313 110.688 137.855 110.688C138.207 110.688 138.526 110.639 138.81 110.54C139.098 110.438 139.346 110.287 139.554 110.086C139.762 109.881 139.923 109.628 140.037 109.325L141.332 109.688C141.196 110.128 140.967 110.514 140.645 110.847C140.323 111.177 139.925 111.434 139.452 111.62C138.978 111.802 138.446 111.893 137.855 111.893ZM149.69 104.938L148.486 105.279C148.41 105.078 148.298 104.883 148.151 104.694C148.007 104.501 147.81 104.342 147.56 104.217C147.31 104.092 146.99 104.029 146.599 104.029C146.065 104.029 145.62 104.152 145.264 104.398C144.912 104.641 144.736 104.95 144.736 105.325C144.736 105.658 144.857 105.921 145.099 106.114C145.342 106.308 145.721 106.469 146.236 106.597L147.531 106.915C148.312 107.105 148.893 107.395 149.276 107.785C149.658 108.171 149.849 108.669 149.849 109.279C149.849 109.779 149.705 110.226 149.418 110.62C149.134 111.014 148.736 111.325 148.224 111.552C147.713 111.779 147.118 111.893 146.44 111.893C145.55 111.893 144.813 111.7 144.23 111.313C143.647 110.927 143.277 110.362 143.122 109.62L144.395 109.302C144.516 109.772 144.745 110.124 145.082 110.359C145.423 110.594 145.868 110.711 146.418 110.711C147.043 110.711 147.539 110.578 147.906 110.313C148.277 110.044 148.463 109.722 148.463 109.347C148.463 109.044 148.357 108.79 148.145 108.586C147.933 108.378 147.607 108.222 147.168 108.12L145.713 107.779C144.914 107.59 144.327 107.296 143.952 106.898C143.58 106.497 143.395 105.995 143.395 105.393C143.395 104.9 143.533 104.465 143.81 104.086C144.09 103.707 144.471 103.41 144.952 103.194C145.437 102.978 145.986 102.87 146.599 102.87C147.463 102.87 148.141 103.059 148.634 103.438C149.13 103.817 149.482 104.317 149.69 104.938ZM158.05 104.938L156.845 105.279C156.769 105.078 156.658 104.883 156.51 104.694C156.366 104.501 156.169 104.342 155.919 104.217C155.669 104.092 155.349 104.029 154.959 104.029C154.425 104.029 153.98 104.152 153.624 104.398C153.271 104.641 153.095 104.95 153.095 105.325C153.095 105.658 153.216 105.921 153.459 106.114C153.701 106.308 154.08 106.469 154.595 106.597L155.891 106.915C156.671 107.105 157.252 107.395 157.635 107.785C158.018 108.171 158.209 108.669 158.209 109.279C158.209 109.779 158.065 110.226 157.777 110.62C157.493 111.014 157.095 111.325 156.584 111.552C156.072 111.779 155.478 111.893 154.8 111.893C153.91 111.893 153.173 111.7 152.589 111.313C152.006 110.927 151.637 110.362 151.482 109.62L152.754 109.302C152.875 109.772 153.105 110.124 153.442 110.359C153.783 110.594 154.228 110.711 154.777 110.711C155.402 110.711 155.898 110.578 156.266 110.313C156.637 110.044 156.822 109.722 156.822 109.347C156.822 109.044 156.716 108.79 156.504 108.586C156.292 108.378 155.966 108.222 155.527 108.12L154.072 107.779C153.273 107.59 152.686 107.296 152.311 106.898C151.94 106.497 151.754 105.995 151.754 105.393C151.754 104.9 151.893 104.465 152.169 104.086C152.449 103.707 152.83 103.41 153.311 103.194C153.796 102.978 154.345 102.87 154.959 102.87C155.822 102.87 156.5 103.059 156.993 103.438C157.489 103.817 157.841 104.317 158.05 104.938ZM168.273 111.893C167.485 111.893 166.794 111.705 166.199 111.33C165.608 110.955 165.146 110.431 164.812 109.756C164.483 109.082 164.318 108.294 164.318 107.393C164.318 106.484 164.483 105.69 164.812 105.012C165.146 104.334 165.608 103.808 166.199 103.433C166.794 103.058 167.485 102.87 168.273 102.87C169.061 102.87 169.75 103.058 170.341 103.433C170.936 103.808 171.398 104.334 171.727 105.012C172.061 105.69 172.227 106.484 172.227 107.393C172.227 108.294 172.061 109.082 171.727 109.756C171.398 110.431 170.936 110.955 170.341 111.33C169.75 111.705 169.061 111.893 168.273 111.893ZM168.273 110.688C168.871 110.688 169.364 110.535 169.75 110.228C170.136 109.921 170.422 109.518 170.608 109.018C170.794 108.518 170.886 107.976 170.886 107.393C170.886 106.809 170.794 106.266 170.608 105.762C170.422 105.258 170.136 104.851 169.75 104.54C169.364 104.23 168.871 104.075 168.273 104.075C167.674 104.075 167.182 104.23 166.795 104.54C166.409 104.851 166.123 105.258 165.938 105.762C165.752 106.266 165.659 106.809 165.659 107.393C165.659 107.976 165.752 108.518 165.938 109.018C166.123 109.518 166.409 109.921 166.795 110.228C167.182 110.535 167.674 110.688 168.273 110.688ZM175.615 106.461V111.711H174.274V102.984H175.57V104.347H175.683C175.888 103.904 176.198 103.548 176.615 103.279C177.032 103.006 177.57 102.87 178.229 102.87C178.82 102.87 179.337 102.991 179.78 103.234C180.223 103.472 180.568 103.836 180.814 104.325C181.06 104.809 181.183 105.423 181.183 106.165V111.711H179.842V106.256C179.842 105.571 179.664 105.037 179.308 104.654C178.952 104.268 178.464 104.075 177.842 104.075C177.414 104.075 177.032 104.167 176.695 104.353C176.361 104.539 176.098 104.809 175.905 105.165C175.712 105.522 175.615 105.953 175.615 106.461ZM191.929 102.984V104.12H187.406V102.984H191.929ZM188.724 100.893H190.065V109.211C190.065 109.59 190.12 109.874 190.23 110.063C190.344 110.249 190.488 110.374 190.662 110.438C190.84 110.499 191.027 110.529 191.224 110.529C191.372 110.529 191.493 110.522 191.588 110.506C191.683 110.487 191.759 110.472 191.815 110.461L192.088 111.665C191.997 111.7 191.87 111.734 191.707 111.768C191.545 111.806 191.338 111.825 191.088 111.825C190.709 111.825 190.338 111.743 189.974 111.58C189.615 111.417 189.315 111.169 189.077 110.836C188.842 110.503 188.724 110.082 188.724 109.575V100.893ZM195.474 106.461V111.711H194.134V100.075H195.474V104.347H195.588C195.793 103.897 196.099 103.539 196.509 103.273C196.921 103.004 197.471 102.87 198.156 102.87C198.751 102.87 199.272 102.989 199.719 103.228C200.166 103.463 200.512 103.825 200.759 104.313C201.009 104.798 201.134 105.415 201.134 106.165V111.711H199.793V106.256C199.793 105.563 199.613 105.027 199.253 104.648C198.897 104.266 198.402 104.075 197.77 104.075C197.33 104.075 196.937 104.167 196.588 104.353C196.243 104.539 195.971 104.809 195.77 105.165C195.573 105.522 195.474 105.953 195.474 106.461ZM207.246 111.893C206.405 111.893 205.679 111.707 205.07 111.336C204.464 110.961 203.996 110.438 203.666 109.768C203.34 109.094 203.178 108.309 203.178 107.415C203.178 106.522 203.34 105.734 203.666 105.052C203.996 104.366 204.454 103.832 205.041 103.45C205.632 103.063 206.321 102.87 207.109 102.87C207.564 102.87 208.013 102.946 208.456 103.097C208.899 103.249 209.303 103.495 209.666 103.836C210.03 104.173 210.32 104.62 210.536 105.177C210.751 105.734 210.859 106.419 210.859 107.234V107.802H204.132V106.643H209.496C209.496 106.15 209.397 105.711 209.2 105.325C209.007 104.938 208.731 104.633 208.371 104.41C208.015 104.186 207.594 104.075 207.109 104.075C206.575 104.075 206.113 104.207 205.723 104.472C205.337 104.734 205.039 105.075 204.831 105.495C204.623 105.915 204.518 106.366 204.518 106.847V107.62C204.518 108.279 204.632 108.838 204.859 109.296C205.09 109.751 205.411 110.097 205.82 110.336C206.229 110.571 206.704 110.688 207.246 110.688C207.598 110.688 207.916 110.639 208.2 110.54C208.488 110.438 208.736 110.287 208.945 110.086C209.153 109.881 209.314 109.628 209.428 109.325L210.723 109.688C210.587 110.128 210.357 110.514 210.036 110.847C209.714 111.177 209.316 111.434 208.842 111.62C208.369 111.802 207.837 111.893 207.246 111.893ZM225.536 103.711C225.411 103.328 225.246 102.986 225.041 102.683C224.84 102.376 224.6 102.114 224.32 101.898C224.043 101.683 223.729 101.518 223.376 101.404C223.024 101.29 222.638 101.234 222.217 101.234C221.528 101.234 220.901 101.412 220.337 101.768C219.772 102.124 219.323 102.648 218.99 103.342C218.657 104.035 218.49 104.885 218.49 105.893C218.49 106.9 218.659 107.751 218.996 108.444C219.333 109.137 219.789 109.662 220.365 110.018C220.941 110.374 221.589 110.552 222.308 110.552C222.975 110.552 223.562 110.41 224.07 110.126C224.581 109.838 224.979 109.433 225.263 108.91C225.551 108.383 225.695 107.764 225.695 107.052L226.126 107.143H222.626V105.893H227.058V107.143C227.058 108.101 226.854 108.934 226.445 109.643C226.039 110.351 225.479 110.9 224.763 111.29C224.051 111.677 223.232 111.87 222.308 111.87C221.278 111.87 220.373 111.628 219.592 111.143C218.816 110.658 218.21 109.969 217.774 109.075C217.342 108.181 217.126 107.12 217.126 105.893C217.126 104.972 217.25 104.145 217.496 103.41C217.746 102.671 218.098 102.042 218.553 101.523C219.007 101.004 219.545 100.607 220.166 100.33C220.787 100.054 221.471 99.9155 222.217 99.9155C222.831 99.9155 223.403 100.008 223.933 100.194C224.467 100.376 224.943 100.635 225.359 100.972C225.78 101.306 226.13 101.705 226.411 102.171C226.691 102.633 226.884 103.147 226.99 103.711H225.536ZM239.29 105.893C239.29 107.12 239.068 108.181 238.625 109.075C238.182 109.969 237.574 110.658 236.801 111.143C236.028 111.628 235.146 111.87 234.153 111.87C233.161 111.87 232.278 111.628 231.506 111.143C230.733 110.658 230.125 109.969 229.682 109.075C229.239 108.181 229.017 107.12 229.017 105.893C229.017 104.665 229.239 103.605 229.682 102.711C230.125 101.817 230.733 101.128 231.506 100.643C232.278 100.158 233.161 99.9155 234.153 99.9155C235.146 99.9155 236.028 100.158 236.801 100.643C237.574 101.128 238.182 101.817 238.625 102.711C239.068 103.605 239.29 104.665 239.29 105.893ZM237.926 105.893C237.926 104.885 237.758 104.035 237.42 103.342C237.087 102.648 236.634 102.124 236.062 101.768C235.494 101.412 234.858 101.234 234.153 101.234C233.449 101.234 232.811 101.412 232.239 101.768C231.67 102.124 231.218 102.648 230.881 103.342C230.547 104.035 230.381 104.885 230.381 105.893C230.381 106.9 230.547 107.751 230.881 108.444C231.218 109.137 231.67 109.662 232.239 110.018C232.811 110.374 233.449 110.552 234.153 110.552C234.858 110.552 235.494 110.374 236.062 110.018C236.634 109.662 237.087 109.137 237.42 108.444C237.758 107.751 237.926 106.9 237.926 105.893ZM241.72 111.802C241.44 111.802 241.199 111.701 240.999 111.501C240.798 111.3 240.697 111.059 240.697 110.779C240.697 110.499 240.798 110.258 240.999 110.058C241.199 109.857 241.44 109.756 241.72 109.756C242 109.756 242.241 109.857 242.442 110.058C242.643 110.258 242.743 110.499 242.743 110.779C242.743 110.965 242.696 111.135 242.601 111.29C242.51 111.446 242.387 111.571 242.232 111.665C242.08 111.756 241.91 111.802 241.72 111.802Z" fill="white"/>
</g>
<defs>
<clipPath id="clip0_8739_14069">
<rect width="1" height="18" fill="white" transform="translate(10 99.7109)"/>
</clipPath>
</defs>
</svg>
