<svg width="15" height="15" viewBox="0 0 15 15" fill="none" xmlns="http://www.w3.org/2000/svg">
<path d="M10.4653 0.417969H4.52948C1.95115 0.417969 0.414062 1.95505 0.414062 4.53338V10.4621C0.414062 13.0476 1.95115 14.5846 4.52948 14.5846H10.4582C13.0366 14.5846 14.5736 13.0476 14.5736 10.4692V4.53338C14.5807 1.95505 13.0436 0.417969 10.4653 0.417969ZM10.9116 9.08797L7.87281 12.1267C7.77364 12.2259 7.63906 12.2826 7.4974 12.2826C7.35573 12.2826 7.22115 12.2259 7.12198 12.1267L4.08323 9.08797C3.87781 8.88255 3.87781 8.54255 4.08323 8.33713C4.28865 8.13172 4.62865 8.13172 4.83406 8.33713L6.96615 10.4692V3.2513C6.96615 2.96089 7.20698 2.72005 7.4974 2.72005C7.78781 2.72005 8.02864 2.96089 8.02864 3.2513V10.4692L10.1607 8.33713C10.3661 8.13172 10.7061 8.13172 10.9116 8.33713C11.0178 8.44338 11.0674 8.57797 11.0674 8.71255C11.0674 8.84713 11.0107 8.9888 10.9116 9.08797Z" fill="#D32F2F"/>
</svg>
