<svg width="26" height="26" viewBox="0 0 26 26" fill="none" xmlns="http://www.w3.org/2000/svg">
<path d="M8.02564 23.4769L8.02565 23.4769L8.02111 23.4745C7.58721 23.2461 7.31385 22.7841 7.31385 22.2855V20.7472V20.2583L6.82749 20.2084C5.314 20.053 4.09013 19.4241 3.24354 18.4623C2.39619 17.4996 1.89714 16.1693 1.89714 14.5612V8.06124C1.89714 6.32198 2.47875 4.90898 3.45558 3.93215C4.43241 2.95532 5.84542 2.3737 7.58468 2.3737H18.4181C20.1574 2.3737 21.5704 2.95532 22.5472 3.93215C23.524 4.90898 24.1056 6.32198 24.1056 8.06124V14.5612C24.1056 16.3005 23.524 17.7135 22.5472 18.6903C21.5704 19.6672 20.1574 20.2488 18.4181 20.2488H14.3339H14.1699L14.0334 20.3397L9.42198 23.4141C9.42142 23.4145 9.42087 23.4149 9.42031 23.4152C9.19519 23.5622 8.93081 23.6396 8.66802 23.6396C8.45278 23.6396 8.22703 23.5854 8.02564 23.4769ZM9.11052 22.9592L9.11058 22.9593L9.1197 22.9532L13.9406 19.7466L13.9411 19.7463C13.9897 19.7138 14.0488 19.6964 14.0956 19.6964H18.4289C19.9455 19.6964 21.2428 19.2032 22.1622 18.2838C23.0816 17.3643 23.5748 16.0671 23.5748 14.5505V8.0504C23.5748 6.53384 23.0816 5.23657 22.1622 4.31715C21.2428 3.39772 19.9455 2.90453 18.4289 2.90453H7.58468C6.06812 2.90453 4.77086 3.39772 3.85143 4.31715C2.932 5.23657 2.43881 6.53384 2.43881 8.0504V14.5505C2.43881 16.0671 2.932 17.3643 3.85143 18.2838C4.77086 19.2032 6.06812 19.6964 7.58468 19.6964C7.72969 19.6964 7.85552 19.8222 7.85552 19.9672V22.2747C7.85552 22.7001 8.14352 22.908 8.25934 22.9775C8.43676 23.084 8.77188 23.1747 9.11052 22.9592Z" fill="black" stroke="black" stroke-width="1.08334"/>
<path d="M13.0014 12.5756C12.8564 12.5756 12.7306 12.4497 12.7306 12.3047V12.0773C12.7306 11.1275 13.4101 10.654 13.7616 10.4123C13.9763 10.2671 14.1729 10.1104 14.3122 9.91629C14.4686 9.69834 14.5289 9.46817 14.5289 9.22808C14.5289 8.3873 13.8423 7.70053 13.0014 7.70053C12.1606 7.70053 11.474 8.3873 11.474 9.22808C11.474 9.37309 11.3481 9.49891 11.2031 9.49891C11.0581 9.49891 10.9323 9.37309 10.9323 9.22808C10.9323 8.08637 11.8598 7.15886 13.0014 7.15886C14.1431 7.15886 15.0706 8.08637 15.0706 9.22808C15.0706 10.157 14.3996 10.6313 14.0643 10.8585C13.8404 11.0079 13.6353 11.1682 13.4913 11.3692C13.329 11.596 13.2723 11.8334 13.2723 12.0773V12.3047C13.2723 12.4559 13.1512 12.5756 13.0014 12.5756Z" fill="black" stroke="black" stroke-width="1.08334"/>
<path d="M13 15.8203C12.545 15.8203 12.1875 15.452 12.1875 15.0078C12.1875 14.5636 12.5558 14.1953 13 14.1953C13.4442 14.1953 13.8125 14.5636 13.8125 15.0078C13.8125 15.452 13.455 15.8203 13 15.8203Z" fill="black"/>
</svg>
