<svg width="24" height="25" viewBox="0 0 24 25" fill="none" xmlns="http://www.w3.org/2000/svg">
<path d="M12.0225 3.41016C8.71253 3.41016 6.02253 6.10016 6.02253 9.41016V12.3002C6.02253 12.9102 5.76253 13.8402 5.45253 14.3602L4.30253 16.2702C3.59253 17.4502 4.08253 18.7602 5.38253 19.2002C9.69253 20.6402 14.3425 20.6402 18.6525 19.2002C19.8625 18.8002 20.3925 17.3702 19.7325 16.2702L18.5825 14.3602C18.2825 13.8402 18.0225 12.9102 18.0225 12.3002V9.41016C18.0225 6.11016 15.3225 3.41016 12.0225 3.41016Z" stroke="black" stroke-width="1.5" stroke-miterlimit="10" stroke-linecap="round"/>
<path d="M13.8719 3.70141C13.5619 3.61141 13.2419 3.54141 12.9119 3.50141C11.9519 3.38141 11.0319 3.45141 10.1719 3.70141C10.4619 2.96141 11.1819 2.44141 12.0219 2.44141C12.8619 2.44141 13.5819 2.96141 13.8719 3.70141Z" stroke="black" stroke-width="1.5" stroke-miterlimit="10" stroke-linecap="round" stroke-linejoin="round"/>
<path d="M15.0234 19.5586C15.0234 21.2086 13.6734 22.5586 12.0234 22.5586C11.2034 22.5586 10.4434 22.2186 9.90344 21.6786C9.36344 21.1386 9.02344 20.3786 9.02344 19.5586" stroke="black" stroke-width="1.5" stroke-miterlimit="10"/>
</svg>
