<svg width="16" height="15" viewBox="0 0 16 15" fill="none" xmlns="http://www.w3.org/2000/svg">
<path d="M11.3462 6.29718L11.3462 6.29721L11.3498 6.29345C11.6419 5.99132 11.6471 5.50952 11.3462 5.20858C11.0472 4.90965 10.5565 4.90965 10.2576 5.20858L7.30898 8.15718L6.10991 6.95811C5.81098 6.65917 5.32026 6.65917 5.02132 6.95811C4.72238 7.25705 4.72238 7.74777 5.02132 8.0467L6.76469 9.79007C6.90804 9.93342 7.10316 10.0158 7.30898 10.0158C7.51481 10.0158 7.70993 9.93342 7.85328 9.79007L11.3462 6.29718ZM2.33145 7.49625C2.33145 4.27203 4.95953 1.64395 8.18375 1.64395C11.408 1.64395 14.036 4.27203 14.036 7.49625C14.036 10.7205 11.408 13.3485 8.18375 13.3485C4.95953 13.3485 2.33145 10.7205 2.33145 7.49625Z" fill="#43A047" stroke="#43A047" stroke-width="0.616031"/>
</svg>
