<svg width="13" height="13" viewBox="0 0 13 13" fill="none" xmlns="http://www.w3.org/2000/svg">
<path d="M6.18375 0.339844C2.78942 0.339844 0.0234375 3.10582 0.0234375 6.50015C0.0234375 9.89449 2.78942 12.6605 6.18375 12.6605C9.57808 12.6605 12.3441 9.89449 12.3441 6.50015C12.3441 3.10582 9.57808 0.339844 6.18375 0.339844ZM5.72172 4.03603C5.72172 3.78346 5.93118 3.57401 6.18375 3.57401C6.43632 3.57401 6.64577 3.78346 6.64577 4.03603V7.11619C6.64577 7.36876 6.43632 7.57821 6.18375 7.57821C5.93118 7.57821 5.72172 7.36876 5.72172 7.11619V4.03603ZM6.7505 9.19837C6.7197 9.27845 6.67657 9.34006 6.62113 9.40166C6.55953 9.4571 6.49176 9.50023 6.41784 9.53103C6.34392 9.56183 6.26383 9.58031 6.18375 9.58031C6.10366 9.58031 6.02358 9.56183 5.94966 9.53103C5.87573 9.50023 5.80797 9.4571 5.74637 9.40166C5.69092 9.34006 5.6478 9.27845 5.617 9.19837C5.5862 9.12445 5.56772 9.04436 5.56772 8.96428C5.56772 8.88419 5.5862 8.80411 5.617 8.73019C5.6478 8.65626 5.69092 8.5885 5.74637 8.5269C5.80797 8.47145 5.87573 8.42833 5.94966 8.39753C6.0975 8.33593 6.26999 8.33593 6.41784 8.39753C6.49176 8.42833 6.55953 8.47145 6.62113 8.5269C6.67657 8.5885 6.7197 8.65626 6.7505 8.73019C6.7813 8.80411 6.79978 8.88419 6.79978 8.96428C6.79978 9.04436 6.7813 9.12445 6.7505 9.19837Z" fill="#695ACD"/>
</svg>
