<svg width="26" height="26" viewBox="0 0 26 26" fill="none" xmlns="http://www.w3.org/2000/svg">
<path d="M12.8713 13.5747L12.9694 13.5783L13.0029 13.5671C13.0116 13.5673 13.0214 13.5677 13.032 13.5682C13.0496 13.5691 13.0681 13.5705 13.0865 13.5724L13.1275 13.5765L13.1687 13.5743C14.9095 13.4834 16.2692 12.0535 16.2821 10.2965L16.2821 10.2965V10.2925C16.2821 8.48893 14.8168 7.01001 12.9996 7.01001C11.1823 7.01001 9.71704 8.48893 9.71704 10.2925C9.71704 12.0669 11.1055 13.5098 12.8713 13.5747ZM13.1296 14.1167H13.1294H13.1293H13.1292H13.1291H13.1289H13.1288H13.1287H13.1285H13.1284H13.1283H13.1282H13.128H13.1279H13.1278H13.1276H13.1275H13.1274H13.1272H13.1271H13.127H13.1268H13.1267H13.1266H13.1264H13.1263H13.1262H13.126H13.1259H13.1258H13.1256H13.1255H13.1254H13.1252H13.1251H13.125H13.1248H13.1247H13.1246H13.1244H13.1243H13.1242H13.124H13.1239H13.1238H13.1236H13.1235H13.1233H13.1232H13.1231H13.1229H13.1228H13.1226H13.1225H13.1224H13.1222H13.1221H13.122H13.1218H13.1217H13.1215H13.1214H13.1213H13.1211H13.121H13.1208H13.1207H13.1205H13.1204H13.1203H13.1201H13.12H13.1198H13.1197H13.1196H13.1194H13.1193H13.1191H13.119H13.1188H13.1187H13.1186H13.1184H13.1183H13.1181H13.118H13.1178H13.1177H13.1175H13.1174H13.1173H13.1171H13.117H13.1168H13.1167H13.1165H13.1164H13.1162H13.1161H13.1159H13.1158H13.1156H13.1155H13.1153H13.1152H13.1151H13.1149H13.1148H13.1146H13.1145H13.1143H13.1142H13.114H13.1139H13.1137H13.1136H13.1134H13.1133H13.1131H13.113H13.1128H13.1127H13.1125H13.1124H13.1122H13.1121H13.1119H13.1118H13.1116H13.1115H13.1113H13.1112H13.111H13.1109H13.1107H13.1106H13.1104H13.1103H13.1101H13.11H13.1098H13.1097H13.1095H13.1093H13.1092H13.109H13.1089H13.1087H13.1086H13.1084H13.1083H13.1081H13.108H13.1078H13.1077H13.1075H13.1074H13.1072H13.107H13.1069H13.1067H13.1066H13.1064H13.1063H13.1061H13.106H13.1058H13.1057H13.1055H13.1053H13.1052H13.105H13.1049H13.1047H13.1046H13.1044H13.1043H13.1041H13.1039H13.1038H13.1036H13.1035H13.1033H13.1032H13.103H13.1029H13.1027H13.1025H13.1024H13.1022H13.1021H13.1019H13.1018H13.1016H13.1014H13.1013H13.1011H13.101H13.1008H13.1007H13.1005H13.1003H13.1002H13.1H13.0999H13.0997H13.0996H13.0994H13.0992H13.0991H13.0989H13.0988H13.0986H13.0985H13.0983H13.0981H13.098H13.0978H13.0977H13.0975H13.0974H13.0972H13.097H13.0969H13.0967H13.0966H13.0964H13.0962H13.0961H13.0959H13.0958H13.0956H13.0955H13.0953H13.0951H13.095H13.0948H13.0947H13.0945H13.0943H13.0942H13.094H13.0939H13.0937H13.0936H13.0934H13.0932H13.0931H13.0929H13.0928H13.0926H13.0924H13.0923H13.0921H13.092H13.0918H13.0916H13.0915H13.0913H13.0912H13.091H13.0909H13.0907H13.0905H13.0904H13.0902H13.0901H13.0899H13.0897H13.0896H13.0894H13.0893H13.0891H13.089H13.0888H13.0886H13.0885H13.0883H13.0882H13.088H13.0878H13.0877H13.0875H13.0874H13.0872H13.087H13.0869H13.0867H13.0866H13.0864H13.0863H13.0861H13.0859H13.0858H13.0856H13.0855H13.0853H13.0852H13.085H13.0848H13.0847H13.0845H13.0844H13.0842H13.084H13.0839H13.0837H13.0836H13.0834H13.0833H13.0831H13.0829H13.0828H13.0826H13.0825H13.0823H13.0822H13.082H13.0818H13.0817H13.0815H13.0814H13.0812H13.0811H13.0809H13.0808H13.0806H13.0804H13.0803H13.0801H13.08H13.0798H13.0797H13.0795H13.0793H13.0792H13.079H13.0789H13.0787H13.0786H13.0784H13.0783H13.0781H13.0779H13.0778H13.0776H13.0775H13.0773H13.0772H13.077H13.0769H13.0767H13.0766H13.0764H13.0762H13.0761H13.0759H13.0758H13.0756H13.0755H13.0753H13.0752H13.075H13.0749H13.0747H13.0746H13.0744H13.0743H13.0741H13.0739H13.0738H13.0736H13.0735H13.0733H13.0732H13.073H13.0729H13.0727H13.0726H13.0724H13.0723H13.0721H13.072H13.0718H13.0717H13.0715H13.0714H13.0712H13.0711H13.0709H13.0708H13.0706H13.0705H13.0703H13.0702H13.07H13.0699H13.0697H13.0696H13.0694H13.0693H13.0691H13.069H13.0688H13.0687H13.0685H13.0684H13.0682H13.0681H13.0679H13.0678H13.0677H13.0675H13.0674H13.0672H13.0671H13.0669H13.0668H13.0666H13.0665H13.0663H13.0662H13.066H13.0659H13.0658H13.0656H13.0655H13.0653H13.0652H13.065H13.0649H13.0647H13.0646H13.0645H13.0643H13.0642H13.064H13.0639H13.0637H13.0636H13.0635H13.0633H13.0632H13.063H13.0629H13.0627H13.0626H13.0625H13.0623H13.0622H13.062H13.0619H13.0618H13.0616H13.0615H13.0613H13.0612H13.0611H13.0609H13.0608H13.0606H13.0605H13.0604H13.0602H13.0601H13.06H13.0598H13.0597H13.0595H13.0594H13.0593H13.0591H13.059H13.0589H13.0587H13.0586H13.0585H13.0583H13.0582H13.058H13.0579H13.0578H13.0576H13.0575H13.0574H13.0572H13.0571H13.057H13.0568H13.0567H13.0566H13.0564H13.0563H13.0562H13.0561H13.0559H13.0558H13.0557H13.0555H13.0554H13.0553H13.0551H13.055H13.0549H13.0548H13.0546H13.0545H13.0544H13.0542H13.0541H13.054H13.0539H13.0537H13.0535H13.0533H13.0532H13.053H13.0528H13.0526H13.0524H13.0522H13.052H13.0518H13.0516H13.0514H13.0512H13.051H13.0508H13.0507H13.0505H13.0503H13.0501H13.0499H13.0497H13.0495H13.0493H13.0491H13.0489H13.0487H13.0485H13.0483H13.0481H13.0479H13.0477H13.0475H13.0473H13.0471H13.0469H13.0467H13.0465H13.0463H13.0461H13.0459H13.0457H13.0455H13.0453H13.0451H13.0449H13.0447H13.0445H13.0443H13.0441H13.0439H13.0437H13.0435H13.0433H13.0431H13.0429H13.0427H13.0425H13.0423H13.0421H13.0419H13.0417H13.0415H13.0413H13.0411H13.0409H13.0407H13.0405H13.0403H13.0401H13.0398H13.0396H13.0394H13.0392H13.039H13.0388H13.0386H13.0384H13.0382H13.038H13.0378H13.0376H13.0374H13.0372H13.037H13.0367H13.0365H13.0363H13.0361H13.0359H13.0357H13.0355H13.0353H13.0351H13.0349H13.0347H13.0344H13.0342H13.034H13.0338H13.0336H13.0334H13.0332H13.033H13.0328H13.0326H13.0323H13.0321H13.0319H13.0317H13.0315H13.0313H13.0311H13.0309H13.0306H13.0304H13.0302H13.03H13.0298H13.0296H13.0294H13.0292H13.0289H13.0287H13.0285H13.0283H13.0281H13.0279H13.0277H13.0274H13.0272H13.027H13.0268H13.0266H13.0264H13.0262H13.0259H13.0257H13.0255H13.0253H13.0251H13.0249H13.0247H13.0244H13.0242H13.024H13.0238H13.0236H13.0234H13.0231H13.0229H13.0227H13.0225H13.0223H13.0221H13.0218H13.0216H13.0214H13.0212H13.021H13.0207H13.0205H13.0203H13.0201H13.0199H13.0197H13.0194H13.0192H13.019H13.0188H13.0186H13.0183H13.0181H13.0179H13.0177H13.0175H13.0173H13.017H13.0168H13.0166H13.0164H13.0162H13.0159H13.0157H13.0155H13.0153H13.0151H13.0148H13.0146H13.0144H13.0142H13.014H13.0137H13.0135H13.0133H13.0131H13.0129H13.0126H13.0124H13.0122H13.012H13.0118H13.0115H13.0113H13.0111H13.0109H13.0107H13.0104H13.0102H13.01H13.0098H13.0095H13.0093H13.0091H13.0089H13.0087H13.0084H13.0082H13.008H13.0078H13.0076H13.0073H13.0071H13.0069H13.0067H13.0064H13.0062H13.006H13.0058H13.0056H13.0053H13.0051H13.0049H13.0047H13.0044H13.0042H13.004H13.0038H13.0036H13.0033H13.0031H13.0029H13.0027H13.0025H13.0022H13.002H13.0018H13.0016H13.0013H13.0011H13.0009H13.0007H13.0005H13.0002H13H12.9998H12.9996H12.9993H12.9991H12.9989H12.9987H12.9985H12.9982H12.998H12.9978H12.9976H12.9973H12.9971H12.9969H12.9967H12.9965H12.9962H12.996H12.9958H12.9956H12.9953H12.9951H12.9949H12.9947H12.9945H12.9942H12.994H12.9938H12.9936H12.9933H12.9931H12.9929H12.9927H12.9925H12.9922H12.992H12.9918H12.9916H12.9914H12.9911H12.9909H12.9907H12.9905H12.9902H12.99H12.9898H12.9896H12.9894H12.9891H12.9889H12.9887H12.9885H12.9883H12.988H12.9878H12.9876H12.9874H12.9872H12.9869H12.9867H12.9865H12.9863H12.986H12.9858H12.9856H12.9854H12.9852H12.9849H12.9847H12.9845H12.9843H12.9841H12.9838H12.9836H12.9834H12.9832H12.983H12.9827H12.9825H12.9823H12.9821H12.9819H12.9817H12.9814H12.9812H12.981H12.9808H12.9806H12.9803H12.9801H12.9799H12.9797H12.9795H12.9792H12.979H12.9788H12.9786H12.9784H12.9782H12.9779H12.9777H12.9775H12.9773H12.9771H12.9769H12.9766H12.9764H12.9762H12.976H12.9758H12.9756H12.9753H12.9751H12.9749H12.9747H12.9745H12.9743H12.974H12.9738H12.9736H12.9734H12.9732H12.973H12.9728H12.9725H12.9723H12.9721H12.9719H12.9717H12.9715H12.9712H12.971H12.9708H12.9706H12.9704H12.9702H12.97H12.9698H12.9695H12.9693H12.9691H12.9689H12.9687H12.9685H12.9683H12.9681H12.9678H12.9676H12.9674H12.9672H12.967H12.9668H12.9666H12.9664H12.9661H12.9659H12.9657H12.9655H12.9653H12.9651H12.9649H12.9647H12.9645H12.9643H12.964H12.9638H12.9636H12.9634H12.9632H12.963H12.9628H12.9626H12.9624H12.9622H12.962H12.9618H12.9615H12.9613H12.9611H12.9609H12.9607H12.9605H12.9603H12.9601H12.9599H12.9597H12.9595H12.9593H12.9591H12.9589H12.9587H12.9585H12.9583H12.958H12.9578H12.9576H12.9574H12.9572H12.957H12.9568H12.9566H12.9564H12.9562H12.956H12.9558H12.9556H12.9554H12.9552H12.955H12.9548H12.9546H12.9544H12.9542H12.954H12.954C10.7865 14.0458 9.1862 12.3649 9.1862 10.3034C9.1862 8.1975 10.9045 6.47917 13.0104 6.47917C15.1159 6.47917 16.8339 8.19684 16.8346 10.3021C16.8244 12.3818 15.2062 14.0461 13.153 14.1167H13.153H13.1529H13.1528H13.1527H13.1526H13.1526H13.1525H13.1524H13.1523H13.1522H13.1521H13.152H13.1519H13.1519H13.1518H13.1517H13.1516H13.1515H13.1514H13.1514H13.1513H13.1512H13.1511H13.151H13.1509H13.1509H13.1508H13.1507H13.1506H13.1505H13.1505H13.1504H13.1503H13.1502H13.1501H13.1501H13.15H13.1499H13.1498H13.1497H13.1497H13.1496H13.1495H13.1494H13.1494H13.1493H13.1492H13.1491H13.1491H13.149H13.1489H13.1488H13.1488H13.1487H13.1486H13.1486H13.1485H13.1484H13.1483H13.1483H13.1482H13.1481H13.1481H13.148H13.1479H13.1479H13.1478H13.1477H13.1476H13.1476H13.1475H13.1474H13.1474H13.1473H13.1472H13.1472H13.1471H13.147H13.147H13.1469H13.1468H13.1468H13.1467H13.1466H13.1466H13.1465H13.1465H13.1464H13.1463H13.1463H13.1462H13.1461H13.1461H13.146H13.146H13.1459H13.1458H13.1458H13.1457H13.1457H13.1456H13.1455H13.1455H13.1454H13.1454H13.1453H13.1452H13.1452H13.1451H13.1451H13.145H13.1449H13.1449H13.1448H13.1448H13.1447H13.1447H13.1446H13.1445H13.1445H13.1444H13.1444H13.1443H13.1443H13.1442H13.1442H13.1441H13.144H13.144H13.1439H13.1439H13.1438H13.1438H13.1437H13.1437H13.1436H13.1436H13.1435H13.1435H13.1434H13.1433H13.1433H13.1432H13.1432H13.1431H13.1431H13.143H13.143H13.1429H13.1429H13.1428H13.1428H13.1427H13.1427H13.1426H13.1426H13.1425H13.1425H13.1424H13.1424H13.1423H13.1423H13.1422H13.1422H13.1421H13.1421H13.142H13.142H13.1419H13.1419H13.1418H13.1418H13.1418H13.1417H13.1417H13.1416H13.1416H13.1415H13.1415H13.1414H13.1414H13.1413H13.1413H13.1412H13.1412H13.1411H13.1411H13.1411H13.141H13.141H13.1409H13.1409H13.1408H13.1408H13.1407H13.1407H13.1406H13.1406H13.1406H13.1405H13.1405H13.1404H13.1404H13.1403H13.1403H13.1402H13.1402H13.1402H13.1401H13.1401H13.14H13.14H13.1399H13.1399H13.1398H13.1398H13.1398H13.1397H13.1397H13.1396H13.1396H13.1395H13.1395H13.1395H13.1394H13.1394H13.1393H13.1393H13.1392H13.1392H13.1392H13.1391H13.1391H13.139H13.139H13.1389H13.1389H13.1389H13.1388H13.1388H13.1387H13.1387H13.1386H13.1386H13.1386H13.1385H13.1385H13.1384H13.1384H13.1383H13.1383H13.1383H13.1382H13.1382H13.1381H13.1381H13.138H13.138H13.138H13.1379H13.1379H13.1378H13.1378H13.1377H13.1377H13.1377H13.1376H13.1376H13.1375H13.1375H13.1375H13.1374H13.1374H13.1373H13.1373H13.1372H13.1372H13.1372H13.1371H13.1371H13.137H13.137H13.1369H13.1369H13.1369H13.1368H13.1368H13.1367H13.1367H13.1366H13.1366H13.1366H13.1365H13.1365H13.1364H13.1364H13.1363H13.1363H13.1363H13.1362H13.1362H13.1361H13.1361H13.136H13.136H13.1359H13.1359H13.1359H13.1358H13.1358H13.1357H13.1357H13.1356H13.1356H13.1355H13.1355H13.1355H13.1354H13.1354H13.1353H13.1353H13.1352H13.1352H13.1351H13.1351H13.1351H13.135H13.135H13.1349H13.1349H13.1348H13.1348H13.1347H13.1347H13.1346H13.1346H13.1345H13.1345H13.1344H13.1344H13.1344H13.1343H13.1343H13.1342H13.1342H13.1341H13.1341H13.134H13.134H13.1339H13.1339H13.1338H13.1338H13.1337H13.1337H13.1336H13.1336H13.1335H13.1335H13.1334H13.1334H13.1333H13.1333H13.1332H13.1332H13.1331H13.1331H13.133H13.133H13.1329H13.1329H13.1328H13.1328H13.1327H13.1327H13.1326H13.1326H13.1325H13.1325H13.1324H13.1324H13.1323H13.1322H13.1322H13.1321H13.1321H13.132H13.132H13.1319H13.1319H13.1318H13.1318H13.1317H13.1316H13.1316H13.1315H13.1315H13.1314H13.1314H13.1313H13.1312H13.1312H13.1311H13.1311H13.131H13.131H13.1309H13.1308H13.1308H13.1307H13.1307H13.1306H13.1305H13.1305H13.1304H13.1304H13.1303H13.1302H13.1302H13.1301H13.1301H13.13H13.1299H13.1299H13.1298H13.1298H13.1297H13.1296H13.1296Z" fill="black" stroke="black" stroke-width="1.08334"/>
<path d="M5.51163 21.1935L5.51167 21.1934L5.50593 21.1883C5.45514 21.1432 5.41817 21.0606 5.42531 20.9624C5.54717 19.8695 6.23339 18.8002 7.4612 17.9816C8.96862 16.9801 10.9736 16.4635 13.0044 16.4635C15.0348 16.4635 17.0362 16.9799 18.5378 17.9805C19.7717 18.8136 20.4566 19.876 20.576 20.9695L20.576 20.9695L20.577 20.9778C20.5867 21.0556 20.5603 21.1299 20.4946 21.1883L20.4946 21.1883L20.4889 21.1935C18.4326 23.0741 15.7787 24.1065 13.0003 24.1065C10.2219 24.1065 7.56797 23.0741 5.51163 21.1935ZM6.06738 20.5407L5.96688 20.8813L6.23916 21.1093C8.13504 22.6968 10.5223 23.5648 13.0003 23.5648C15.4782 23.5648 17.8655 22.6968 19.7614 21.1093L20.0337 20.8813L19.9332 20.5407C19.6921 19.7237 19.0706 18.9916 18.2329 18.4252L18.2329 18.4252L18.23 18.4233C16.7874 17.4616 14.8798 16.9998 13.003 16.9998C11.1259 16.9998 9.21391 17.4617 7.76147 18.4222L7.76146 18.4221L7.75688 18.4252C6.91528 18.9942 6.30748 19.727 6.06738 20.5407Z" fill="black" stroke="black" stroke-width="1.08334"/>
<path d="M13.0014 24.6473C6.57717 24.6473 1.35547 19.4256 1.35547 13.0014C1.35547 6.57717 6.57717 1.35547 13.0014 1.35547C19.4256 1.35547 24.6473 6.57717 24.6473 13.0014C24.6473 19.4256 19.4256 24.6473 13.0014 24.6473ZM13.0014 2.98048C7.47635 2.98048 2.98048 7.47635 2.98048 13.0014C2.98048 18.5264 7.47635 23.0223 13.0014 23.0223C18.5264 23.0223 23.0223 18.5264 23.0223 13.0014C23.0223 7.47635 18.5264 2.98048 13.0014 2.98048Z" fill="black"/>
</svg>
