<svg width="20" height="20" viewBox="0 0 20 20" fill="none" xmlns="http://www.w3.org/2000/svg">
<g clip-path="url(#clip0_8906_10938)">
<path fill-rule="evenodd" clip-rule="evenodd" d="M0.69113 0.769531H7.40241V7.45355H0.69113V0.769531ZM17.431 17.536H19.1423V19.2201H17.431V17.536ZM14.1423 17.533H15.8535V19.1374H14.1423H14.1408H12.431V15.8563H14.0881V14.1932H15.7738V10.8775H17.4851V12.5075H19.1152V14.1917H17.4851V15.8759H15.7994H15.7738H14.1423V17.533ZM9.06106 14.1661H10.7182V12.482H9.11519V10.7978H10.7182V9.11365H9.08812V10.7978H7.37534V9.11365H9.05955V4.11229H10.7708V9.11214H12.428V10.7963H14.058V9.11214H15.7693V10.7963H14.1423V12.4805H12.431V15.7962H10.7723V19.1389H9.06106V14.1661ZM17.4024 9.11214H19.1137V10.7963H17.4024V9.11214ZM4.03399 9.11214H5.74527V10.7963H4.03399V9.11214ZM0.69113 9.11214H2.40241V10.7963H0.69113V9.11214ZM9.06106 0.769531H10.7723V2.45369H9.06106V0.769531ZM0.664062 12.5075H7.37534V19.1916H0.664062V12.5075ZM2.29414 14.1315H5.74527V17.569H2.29414V14.1315ZM12.4024 0.769531H19.1137V7.45355H12.4024V0.769531ZM14.034 2.39354H17.4851V5.83104H14.034V2.39354ZM2.32121 2.39354H5.77233V5.83104H2.32121V2.39354Z" fill="#434343"/>
</g>
<defs>
<clipPath id="clip0_8906_10938">
<rect x="0.640625" y="0.773438" width="18.4782" height="18.4506" rx="3" fill="white"/>
</clipPath>
</defs>
</svg>
