<svg width="16" height="18" viewBox="0 0 16 18" fill="none" xmlns="http://www.w3.org/2000/svg">
<g clip-path="url(#clip0_7563_35823)">
<path d="M1.79853 16.1695V2.68679C1.79853 2.16847 2.21925 1.74775 2.73757 1.74775H13.2614C13.7797 1.74775 14.2004 2.16847 14.2004 2.68679V16.154L12.2774 14.6988L12.2072 14.6457L12.1384 14.7005L10.1042 16.3217L8.07012 14.7005L7.99948 14.6442L7.92884 14.7005L5.89472 16.3217L3.86059 14.7005L3.79139 14.6454L3.72111 14.6991L1.79853 16.1695ZM0.519479 17.4201V17.5335H0.632812H1.61521H1.65201L1.68179 17.5118L3.78885 15.9824L5.82672 17.5108L5.89472 17.5618L5.96272 17.5108L7.99948 15.9832L10.0362 17.5108L10.1042 17.5618L10.1722 17.5108L12.2101 15.9824L14.3177 17.5119L14.3475 17.5335H14.3843H15.3661H15.4795V17.4201V2.68679C15.4795 1.46185 14.4863 0.468698 13.2614 0.468698H2.73757C1.51263 0.468698 0.519479 1.46185 0.519479 2.68679V17.4201ZM11.6828 3.62584H4.31615C3.9625 3.62584 3.67662 3.91239 3.67662 4.26536C3.67662 4.61894 3.96257 4.90489 4.31615 4.90489H11.6828C12.0364 4.90489 12.3223 4.61894 12.3223 4.26536C12.3223 3.91239 12.0365 3.62584 11.6828 3.62584ZM11.6828 6.77142H4.31615C3.96257 6.77142 3.67662 7.05737 3.67662 7.41095C3.67662 7.76332 3.96242 8.05047 4.31615 8.05047H11.6828C12.0365 8.05047 12.3223 7.76332 12.3223 7.41095C12.3223 7.05737 12.0364 6.77142 11.6828 6.77142ZM11.6828 9.94013H4.31615C3.96257 9.94013 3.67662 10.2261 3.67662 10.5796C3.67662 10.9332 3.96257 11.2192 4.31615 11.2192H11.6828C12.0364 11.2192 12.3223 10.9332 12.3223 10.5796C12.3223 10.2261 12.0364 9.94013 11.6828 9.94013Z" fill="#333333" stroke="#333333" stroke-width="0.226667"/>
</g>
<defs>
<clipPath id="clip0_7563_35823">
<rect width="14.7333" height="16.8381" fill="white" transform="translate(0.632812 0.578125)"/>
</clipPath>
</defs>
</svg>
