<svg width="26" height="26" viewBox="0 0 26 26" fill="none" xmlns="http://www.w3.org/2000/svg">
<path d="M7.74208 6.10964L7.74304 6.10857C8.63333 5.12457 9.88859 4.57162 11.211 4.57162H18.2111C20.7985 4.57162 22.8987 6.67179 22.8987 9.25917V16.0301C22.8987 18.6175 20.7985 20.7176 18.2111 20.7176H11.211C9.8909 20.7176 8.63401 20.1559 7.7416 19.1791C7.74153 19.179 7.74145 19.1789 7.74137 19.1788L4.06498 15.1379C2.77697 13.722 2.77696 11.5673 4.06495 10.1513C4.06496 10.1513 4.06497 10.1513 4.06498 10.1513L7.74208 6.10964ZM18.0898 16.1379C18.5953 15.6325 18.5953 14.8027 18.0898 14.2972L16.4372 12.6446L18.0898 10.9921C18.5953 10.4866 18.5953 9.65679 18.0898 9.1513C17.5843 8.64581 16.7545 8.64581 16.2491 9.1513L14.5965 10.8039L12.9439 9.1513C12.4384 8.64581 11.6086 8.64581 11.1032 9.1513C10.5977 9.65679 10.5977 10.4866 11.1032 10.9921L12.7557 12.6446L11.1032 14.2972C10.5977 14.8027 10.5977 15.6325 11.1032 16.1379C11.3622 16.397 11.6949 16.5197 12.0235 16.5197C12.3521 16.5197 12.6848 16.397 12.9439 16.1379L14.5965 14.4854L16.2491 16.1379C16.5081 16.397 16.8408 16.5197 17.1694 16.5197C17.498 16.5197 17.8307 16.397 18.0898 16.1379Z" fill="#695ACD" stroke="#695ACD" stroke-width="1.04168"/>
</svg>
