<svg width="270" height="216" viewBox="0 0 270 216" fill="none" xmlns="http://www.w3.org/2000/svg">
<rect x="0.328125" y="0.898438" width="268.817" height="215.054" fill="white"/>
<path fill-rule="evenodd" clip-rule="evenodd" d="M222.91 70.7969C227.067 70.7969 230.437 74.1668 230.437 78.3238C230.437 82.4807 227.067 85.8506 222.91 85.8506H179.899C184.056 85.8506 187.426 89.2205 187.426 93.3775C187.426 97.5345 184.056 100.904 179.899 100.904H203.555C207.712 100.904 211.082 104.274 211.082 108.431C211.082 112.588 207.712 115.958 203.555 115.958H192.616C187.374 115.958 183.125 119.328 183.125 123.485C183.125 126.256 185.276 128.765 189.577 131.012C193.734 131.012 197.104 134.382 197.104 138.539C197.104 142.696 193.734 146.066 189.577 146.066H100.33C96.1726 146.066 92.8027 142.696 92.8027 138.539C92.8027 134.382 96.1726 131.012 100.33 131.012H58.3941C54.2371 131.012 50.8672 127.642 50.8672 123.485C50.8672 119.328 54.2371 115.958 58.3941 115.958H101.405C105.562 115.958 108.932 112.588 108.932 108.431C108.932 104.274 105.562 100.904 101.405 100.904H74.5231C70.3661 100.904 66.9962 97.5345 66.9962 93.3775C66.9962 89.2205 70.3661 85.8506 74.5231 85.8506H117.534C113.377 85.8506 110.007 82.4807 110.007 78.3238C110.007 74.1668 113.377 70.7969 117.534 70.7969H222.91ZM222.91 100.904C227.067 100.904 230.437 104.274 230.437 108.431C230.437 112.588 227.067 115.958 222.91 115.958C218.753 115.958 215.383 112.588 215.383 108.431C215.383 104.274 218.753 100.904 222.91 100.904Z" fill="#EBE7F7"/>
<path fill-rule="evenodd" clip-rule="evenodd" d="M165.562 69.717L175.564 142.666L176.462 149.985C176.752 152.342 175.075 154.488 172.718 154.778L109.75 162.509C107.392 162.799 105.246 161.122 104.956 158.765L95.2621 79.8103C95.1173 78.6314 95.9557 77.5584 97.1345 77.4137C97.142 77.4128 97.1494 77.4119 97.1569 77.4111L102.381 76.8251M106.601 76.3516L111.534 75.7983L106.601 76.3516Z" fill="white"/>
<path d="M166.893 69.5344C166.793 68.799 166.115 68.2845 165.379 68.3854C164.644 68.4862 164.129 69.1641 164.23 69.8996L166.893 69.5344ZM175.564 142.666L176.898 142.502C176.897 142.496 176.896 142.49 176.895 142.484L175.564 142.666ZM176.462 149.985L177.797 149.821L176.462 149.985ZM172.718 154.778L172.881 156.112L172.718 154.778ZM109.75 162.509L109.913 163.844L109.75 162.509ZM104.956 158.765L106.291 158.601L104.956 158.765ZM95.2621 79.8103L96.5962 79.6465L95.2621 79.8103ZM97.1569 77.4111L97.3067 78.7468L97.1569 77.4111ZM102.531 78.1608C103.268 78.078 103.799 77.4129 103.717 76.6752C103.634 75.9375 102.969 75.4066 102.231 75.4894L102.531 78.1608ZM106.452 75.0159C105.714 75.0986 105.183 75.7637 105.266 76.5014C105.348 77.2391 106.014 77.7701 106.751 77.6873L106.452 75.0159ZM111.684 77.134C112.421 77.0513 112.952 76.3862 112.869 75.6485C112.787 74.9108 112.122 74.3799 111.384 74.4626L111.684 77.134ZM164.23 69.8996L174.232 142.849L176.895 142.484L166.893 69.5344L164.23 69.8996ZM174.23 142.83L175.128 150.149L177.797 149.821L176.898 142.502L174.23 142.83ZM175.128 150.149C175.327 151.77 174.175 153.245 172.554 153.444L172.881 156.112C175.976 155.732 178.176 152.915 177.797 149.821L175.128 150.149ZM172.554 153.444L109.586 161.175L109.913 163.844L172.881 156.112L172.554 153.444ZM109.586 161.175C107.965 161.374 106.49 160.222 106.291 158.601L103.622 158.928C104.002 162.023 106.819 164.223 109.913 163.844L109.586 161.175ZM106.291 158.601L96.5962 79.6465L93.928 79.9741L103.622 158.928L106.291 158.601ZM96.5962 79.6465C96.5419 79.2044 96.8562 78.802 97.2983 78.7478L96.9707 76.0796C95.0551 76.3148 93.6928 78.0585 93.928 79.9741L96.5962 79.6465ZM97.2983 78.7478C97.3011 78.7474 97.3039 78.7471 97.3067 78.7468L97.007 76.0754C96.9949 76.0767 96.9828 76.0781 96.9707 76.0796L97.2983 78.7478ZM97.3067 78.7468L102.531 78.1608L102.231 75.4894L97.007 76.0754L97.3067 78.7468ZM106.751 77.6873L111.684 77.134L111.384 74.4626L106.452 75.0159L106.751 77.6873Z" fill="#695ACD"/>
<path fill-rule="evenodd" clip-rule="evenodd" d="M162.842 74.3068L171.895 140.418L172.709 147.051C172.972 149.188 171.473 151.13 169.361 151.389L112.972 158.313C110.861 158.572 108.936 157.05 108.674 154.913L99.9105 83.5408C99.7658 82.3619 100.604 81.2889 101.783 81.1442L108.759 80.2876" fill="#F0EEFF"/>
<path d="M116.375 58.9651C116.375 57.332 117.699 56.0081 119.332 56.0081H168.318C169.102 56.0081 169.854 56.3194 170.408 56.8736L184.863 71.3197C185.418 71.8743 185.73 72.6267 185.73 73.4113V140.686C185.73 142.319 184.406 143.643 182.773 143.643H119.332C117.699 143.643 116.375 142.319 116.375 140.686V58.9651Z" fill="white" stroke="#695ACD" stroke-width="2.68817"/>
<path d="M168.797 57.25V69.7201C168.797 71.5016 170.241 72.9459 172.023 72.9459H180.553" stroke="#695ACD" stroke-width="2.68817" stroke-linecap="round" stroke-linejoin="round"/>
<path d="M127.211 127.784H155.168M127.211 72.9453H155.168H127.211ZM127.211 85.8485H173.447H127.211ZM127.211 99.827H173.447H127.211ZM127.211 113.806H173.447H127.211Z" stroke="#ADA0FF" stroke-width="2.68817" stroke-linecap="round" stroke-linejoin="round"/>
</svg>
