<svg width="239" height="220" viewBox="0 0 239 220" fill="none" xmlns="http://www.w3.org/2000/svg">
<g filter="url(#filter0_d_9491_22751)">
<path d="M163.93 174.411H74.9564C70.8945 174.41 66.9634 172.971 63.8578 170.347C60.7521 167.723 58.6719 164.083 57.9847 160.071L45.7578 88.6836H193.128L180.901 160.071C180.214 164.083 178.134 167.723 175.028 170.347C171.923 172.971 167.992 174.411 163.93 174.411Z" fill="#EBE7F7"/>
</g>
<path d="M193.454 81.7969H45.446C41.9378 81.7969 39.0938 84.6474 39.0938 88.1638C39.0938 91.6801 41.9378 94.5306 45.446 94.5306H193.454C196.962 94.5306 199.806 91.6801 199.806 88.1638C199.806 84.6474 196.962 81.7969 193.454 81.7969Z" fill="white"/>
<path d="M193.448 95.034H45.4387C43.6213 95.034 41.8782 94.3104 40.5931 93.0223C39.3079 91.7341 38.5859 89.9871 38.5859 88.1654C38.5859 86.3438 39.3079 84.5967 40.5931 83.3086C41.8782 82.0205 43.6213 81.2969 45.4387 81.2969H193.448C195.266 81.2969 197.009 82.0205 198.294 83.3086C199.579 84.5967 200.301 86.3438 200.301 88.1654C200.301 89.9871 199.579 91.7341 198.294 93.0223C197.009 94.3104 195.266 95.034 193.448 95.034ZM45.4403 82.3011C43.8886 82.3011 42.4004 82.9189 41.3031 84.0187C40.2058 85.1185 39.5894 86.6101 39.5894 88.1654C39.5894 89.7208 40.2058 91.2124 41.3031 92.3122C42.4004 93.412 43.8886 94.0298 45.4403 94.0298H193.448C195 94.0298 196.488 93.412 197.585 92.3122C198.683 91.2124 199.299 89.7208 199.299 88.1654C199.299 86.6101 198.683 85.1185 197.585 84.0187C196.488 82.9189 195 82.3011 193.448 82.3011H45.4403Z" fill="#7A7A7B" fill-opacity="0.5"/>
<path d="M139.041 84.2616C137.386 86.3467 137.731 89.3815 139.811 91.04C141.892 92.6985 144.92 92.3527 146.574 90.2676L174.901 54.5732C176.555 52.4881 176.21 49.4533 174.13 47.7948C172.05 46.1363 169.022 46.4821 167.367 48.5672L139.041 84.2616Z" fill="white"/>
<path d="M142.801 92.5938C141.602 92.5945 140.439 92.1858 139.504 91.435C138.402 90.5548 137.694 89.2725 137.534 87.8696C137.375 86.4666 137.777 85.0575 138.653 83.9515L166.979 48.2566C167.413 47.7092 167.951 47.2529 168.561 46.9139C169.172 46.5748 169.843 46.3595 170.536 46.2803C171.23 46.2012 171.932 46.2596 172.603 46.4525C173.273 46.6453 173.9 46.9686 174.446 47.4041C174.992 47.8395 175.447 48.3785 175.786 48.9903C176.124 49.602 176.339 50.2746 176.418 50.9696C176.497 51.6645 176.438 52.3683 176.246 53.0406C176.053 53.713 175.731 54.3408 175.296 54.8882L146.971 90.5826C146.538 91.1314 146 91.5887 145.389 91.9279C144.779 92.2671 144.107 92.4816 143.413 92.5589C143.21 92.5821 143.006 92.5937 142.801 92.5938ZM140.127 90.6493C140.57 91.0027 141.079 91.2651 141.623 91.4216C142.167 91.578 142.737 91.6255 143.3 91.5612C143.862 91.4969 144.407 91.3222 144.902 91.047C145.398 90.7718 145.834 90.4015 146.186 89.9572L174.512 54.2624C174.865 53.8182 175.127 53.3088 175.283 52.7632C175.439 52.2176 175.486 51.6465 175.422 51.0825C175.358 50.5186 175.184 49.9727 174.91 49.4763C174.635 48.9798 174.266 48.5423 173.823 48.1889C173.38 47.8355 172.871 47.573 172.327 47.4165C171.783 47.26 171.213 47.2124 170.65 47.2766C170.087 47.3408 169.543 47.5154 169.048 47.7905C168.552 48.0656 168.116 48.4358 167.763 48.88L139.437 84.5745C138.726 85.472 138.4 86.6154 138.529 87.7539C138.659 88.8924 139.233 89.933 140.127 90.6473V90.6493Z" fill="#7A7A7B" fill-opacity="0.5"/>
<path d="M142.493 89.4875C143.495 89.4875 144.307 88.6736 144.307 87.6695C144.307 86.6655 143.495 85.8516 142.493 85.8516C141.492 85.8516 140.68 86.6655 140.68 87.6695C140.68 88.6736 141.492 89.4875 142.493 89.4875Z" fill="white"/>
<path d="M142.491 89.9909C142.149 89.9911 141.811 89.9152 141.501 89.7688C141.191 89.6224 140.918 89.409 140.7 89.144C140.482 88.879 140.326 88.5689 140.242 88.2361C140.159 87.9034 140.149 87.5561 140.215 87.2193C140.301 86.7886 140.506 86.3909 140.808 86.0727C141.11 85.7544 141.496 85.5286 141.921 85.4216C142.346 85.3145 142.793 85.3305 143.209 85.4678C143.625 85.6051 143.994 85.858 144.272 86.1971C144.551 86.5362 144.727 86.9476 144.782 87.3834C144.836 87.8192 144.766 88.2615 144.579 88.6588C144.393 89.0562 144.098 89.3924 143.728 89.6282C143.358 89.864 142.929 89.9897 142.491 89.9909ZM141.198 87.4145C141.139 87.7132 141.185 88.0233 141.329 88.2918C141.472 88.5604 141.704 88.7708 141.984 88.8873C142.265 89.0038 142.577 89.019 142.868 88.9305C143.159 88.842 143.41 88.6552 143.579 88.4019C143.747 88.1487 143.823 87.8446 143.793 87.5415C143.763 87.2384 143.63 86.9551 143.415 86.7399C143.2 86.5246 142.917 86.3908 142.615 86.3611C142.312 86.3314 142.009 86.4077 141.756 86.5771C141.467 86.7712 141.266 87.0724 141.198 87.4145Z" fill="#EBE7F7"/>
<path d="M71.5218 48.5741C69.8671 46.489 66.8392 46.1432 64.7589 47.8017C62.6786 49.4602 62.3336 52.495 63.9883 54.5801L92.3147 90.2745C93.9694 92.3596 96.9972 92.7054 99.0775 91.0469C101.158 89.3884 101.503 86.3536 99.8482 84.2685L71.5218 48.5741Z" fill="white"/>
<path d="M96.0835 92.5949C95.2833 92.5965 94.493 92.4167 93.7719 92.0689C93.0508 91.7211 92.4175 91.2144 91.9194 90.5866L63.5928 54.8921C62.7154 53.7866 62.3121 52.377 62.4717 50.9735C62.6312 49.5699 63.3404 48.2874 64.4434 47.408C65.5464 46.5286 66.9527 46.1244 68.3531 46.2842C69.7534 46.4441 71.033 47.155 71.9104 48.2605L100.237 83.9554C100.859 84.739 101.248 85.6826 101.36 86.6779C101.471 87.6732 101.3 88.6798 100.866 89.5821C100.433 90.4844 99.7538 91.2457 98.9077 91.7787C98.0617 92.3116 97.0828 92.5945 96.0835 92.5949ZM67.7474 47.256C66.9366 47.2566 66.1425 47.4863 65.4561 47.9188C64.7698 48.3514 64.219 48.9691 63.8671 49.7012C63.5151 50.4332 63.3763 51.2499 63.4665 52.0575C63.5567 52.8651 63.8723 53.6308 64.3771 54.2667L92.7032 89.9612C93.4159 90.8571 94.454 91.4332 95.5899 91.5629C96.7258 91.6927 97.8666 91.3655 98.7621 90.6532C99.2054 90.3 99.5748 89.8626 99.8494 89.3662C100.124 88.8698 100.298 88.3241 100.362 87.7602C100.427 87.1962 100.379 86.6252 100.223 86.0796C100.067 85.534 99.8052 85.0246 99.4526 84.5804L71.1265 48.8859C70.7223 48.3765 70.2084 47.9653 69.6232 47.683C69.038 47.4008 68.3968 47.2548 67.7474 47.256Z" fill="#7A7A7B" fill-opacity="0.5"/>
<path d="M96.4075 89.4914C97.4093 89.4914 98.2213 88.6775 98.2213 87.6734C98.2213 86.6694 97.4093 85.8555 96.4075 85.8555C95.4058 85.8555 94.5938 86.6694 94.5938 87.6734C94.5938 88.6775 95.4058 89.4914 96.4075 89.4914Z" fill="white"/>
<path d="M96.397 89.9925C95.9585 89.9917 95.5293 89.8661 95.1593 89.6304C94.7892 89.3947 94.4936 89.0585 94.3067 88.661C94.1199 88.2634 94.0495 87.8209 94.1037 87.3848C94.158 86.9487 94.3347 86.5371 94.6133 86.1977C94.8918 85.8584 95.2608 85.6053 95.6773 85.4679C96.0937 85.3305 96.5406 85.3145 96.9658 85.4217C97.391 85.5288 97.7771 85.7549 98.0791 86.0734C98.3812 86.3919 98.5868 86.7899 98.672 87.2209C98.7382 87.5576 98.729 87.9049 98.6453 88.2376C98.5616 88.5704 98.4053 88.8804 98.1878 89.1454C97.9703 89.4104 97.6968 89.6238 97.3872 89.7703C97.0775 89.9168 96.7394 89.9926 96.397 89.9925ZM96.4046 86.3557C96.1339 86.3551 95.8696 86.4384 95.6479 86.5941C95.4262 86.7499 95.258 86.9705 95.1663 87.2258C95.0746 87.4811 95.0638 87.7586 95.1356 88.0202C95.2073 88.2819 95.358 88.5149 95.567 88.6874C95.776 88.8599 96.033 88.9634 96.303 88.9838C96.5729 89.0041 96.8426 88.9403 97.075 88.8012C97.3074 88.662 97.4911 88.4542 97.6011 88.2062C97.7111 87.9583 97.7419 87.6823 97.6894 87.4161C97.6303 87.1179 97.47 86.8494 97.2358 86.6561C97.0017 86.4628 96.708 86.3567 96.4046 86.3557Z" fill="#EBE7F7"/>
<path d="M123.188 116.923C123.188 114.847 121.509 113.164 119.438 113.164C117.367 113.164 115.688 114.847 115.688 116.923V152.464C115.688 154.54 117.367 156.223 119.438 156.223C121.509 156.223 123.188 154.54 123.188 152.464V116.923Z" fill="white"/>
<path d="M87.3396 116.556C87.0213 114.504 85.1041 113.1 83.0574 113.419C81.0107 113.738 79.6096 115.659 79.9278 117.711L85.3757 152.829C85.694 154.88 87.6111 156.285 89.6578 155.966C91.7045 155.647 93.1057 153.725 92.7875 151.674L87.3396 116.556Z" fill="white"/>
<path d="M146.868 151.677C146.549 153.729 147.951 155.65 149.997 155.969C152.044 156.288 153.961 154.884 154.279 152.832L159.727 117.714C160.046 115.663 158.644 113.741 156.598 113.422C154.551 113.103 152.634 114.507 152.316 116.559L146.868 151.677Z" fill="white"/>
<path d="M100.942 65.6325C100.835 65.6326 100.73 65.599 100.643 65.5366C100.53 65.457 100.454 65.3362 100.431 65.2005C100.408 65.0649 100.44 64.9257 100.519 64.8134C100.615 64.678 109.991 51.1237 99.5241 38.7667C97.6716 36.5682 95.3608 34.8014 92.7535 33.5902C90.1462 32.379 87.3055 31.7527 84.4306 31.755H84.2895C85.2835 35.2079 85.1061 38.278 83.6987 40.6332C83.099 41.6975 82.214 42.5731 81.1435 43.1615C80.0729 43.75 78.8594 44.0278 77.6395 43.9637C76.6296 43.881 75.6659 43.5056 74.8662 42.8834C74.0665 42.2613 73.4656 41.4194 73.1371 40.461C71.986 37.4583 73.189 34.547 76.3597 32.6706C78.3683 31.563 80.6002 30.921 82.8904 30.7922C82.1454 28.8169 81.1766 26.9335 80.003 25.1786C76.2238 19.4068 69.3361 15.4113 61.1054 14.2166C54.13 13.2045 47.4452 14.3966 44.0727 17.2529C43.9677 17.3418 43.8316 17.3853 43.6945 17.3739C43.5574 17.3624 43.4304 17.297 43.3415 17.192C43.2526 17.0869 43.2091 16.9509 43.2205 16.8137C43.232 16.6766 43.2974 16.5496 43.4025 16.4608C46.9913 13.4213 53.9983 12.1363 61.2542 13.1925C69.7791 14.4303 76.9288 18.5924 80.8714 24.6127C82.1496 26.5219 83.1893 28.5805 83.9674 30.7424C87.0687 30.6679 90.1472 31.2901 92.9761 32.5632C95.805 33.8363 98.3123 35.7279 100.313 38.0985C111.307 51.0775 101.463 65.2741 101.363 65.4162C101.315 65.483 101.252 65.5375 101.178 65.5751C101.105 65.6127 101.024 65.6324 100.942 65.6325ZM83.2271 31.7929C81.0067 31.8876 78.8381 32.4937 76.8904 33.564C74.1534 35.1836 73.1397 37.5626 74.1082 40.09C74.3707 40.8645 74.8531 41.5456 75.4966 42.0501C76.14 42.5547 76.9166 42.8607 77.7313 42.9308C78.757 42.9768 79.7753 42.7365 80.6723 42.2368C81.5693 41.7371 82.3097 40.9978 82.8105 40.1014C84.1023 37.9382 84.2205 35.0627 83.2255 31.7929H83.2271Z" fill="#EBE7F7"/>
<path d="M35.1111 25.6222C34.2295 25.8871 33.2794 25.7973 32.463 25.3721C31.6466 24.9469 31.0285 24.2197 30.7402 23.3456C30.4519 22.4714 30.5163 21.5192 30.9196 20.6918C31.3228 19.8643 32.0332 19.227 32.8994 18.9155C33.7655 18.6039 34.7191 18.6429 35.557 19.0239C36.3949 19.4049 37.051 20.098 37.3855 20.9556C37.7201 21.8131 37.7066 22.7674 37.3481 23.6152C36.9895 24.463 36.3142 25.1373 35.4659 25.4946C35.3501 25.5436 35.2316 25.5862 35.1111 25.6222ZM33.3862 19.8577C33.3021 19.883 33.2195 19.9127 33.1387 19.9469C32.5418 20.1986 32.0668 20.6734 31.8148 21.2701C31.5627 21.8668 31.5536 22.5384 31.7894 23.1417C32.0252 23.7451 32.4872 24.2325 33.0771 24.5003C33.667 24.768 34.338 24.7949 34.9474 24.5751C35.5568 24.3554 36.0563 23.9064 36.3395 23.3239C36.6228 22.7413 36.6674 22.0712 36.4639 21.4562C36.2604 20.8412 35.8248 20.33 35.2499 20.0314C34.675 19.7329 34.0063 19.6705 33.3862 19.8577Z" fill="#EBE7F7"/>
<path d="M35.1072 17.4899C34.2733 17.7389 33.3768 17.6708 32.59 17.2988C31.8032 16.9268 31.1818 16.277 30.8451 15.4745C30.5751 14.8311 30.502 14.1221 30.635 13.4372C30.768 12.7523 31.1011 12.1222 31.5923 11.6266C32.0834 11.131 32.7105 10.7921 33.3942 10.6529C34.0779 10.5137 34.7875 10.5804 35.4333 10.8446C36.0791 11.1087 36.6321 11.5584 37.0223 12.1368C37.4125 12.7152 37.6224 13.3964 37.6255 14.0941C37.6286 14.7918 37.4247 15.4748 37.0396 16.0566C36.6545 16.6384 36.1055 17.093 35.4621 17.3628C35.3461 17.4113 35.2276 17.4537 35.1072 17.4899ZM33.3844 11.7249C33.2994 11.7504 33.2157 11.7803 33.1338 11.8146C32.5253 12.0702 32.0431 12.557 31.7933 13.168C31.5435 13.779 31.5465 14.4642 31.8017 15.073C31.9878 15.5168 32.2985 15.8971 32.6962 16.168C33.0939 16.4389 33.5616 16.5888 34.0426 16.5995C34.5237 16.6101 34.9976 16.4812 35.407 16.2282C35.8163 15.9753 36.1436 15.6091 36.3493 15.1741C36.5549 14.739 36.6301 14.2537 36.5657 13.7768C36.5013 13.2999 36.3001 12.8519 35.9864 12.487C35.6728 12.122 35.2601 11.8558 34.7983 11.7204C34.3365 11.5851 33.8454 11.5864 33.3844 11.7243V11.7249Z" fill="#EBE7F7"/>
<path d="M34.1051 21.158C36.6527 21.158 38.7179 19.7786 38.7179 18.077C38.7179 16.3755 36.6527 14.9961 34.1051 14.9961C31.5574 14.9961 29.4922 16.3755 29.4922 18.077C29.4922 19.7786 31.5574 21.158 34.1051 21.158Z" fill="white"/>
<path d="M36.1417 21.3851C35.4804 21.5806 34.7942 21.6791 34.1045 21.6777C31.2264 21.6777 28.9688 20.1007 28.9688 18.0821C28.9688 16.0636 31.2197 14.4809 34.0968 14.4777C35.3511 14.4537 36.5852 14.7962 37.6477 15.4634C38.1249 15.712 38.5248 16.0866 38.8041 16.5465C39.0834 17.0064 39.2313 17.5341 39.2318 18.0722C39.2323 18.6102 39.0853 19.1381 38.8068 19.5986C38.5284 20.059 38.1291 20.4343 37.6524 20.6837C37.1863 20.991 36.6772 21.2274 36.1417 21.3851ZM32.3745 15.7622C30.9883 16.1772 30.0058 17.0731 30.0063 18.0795C30.0063 19.4683 31.8827 20.6402 34.1045 20.6381C35.1541 20.6602 36.1874 20.3761 37.0781 19.8205C37.4122 19.6667 37.6951 19.4202 37.8933 19.1104C38.0915 18.8006 38.1967 18.4404 38.1964 18.0726C38.196 17.7048 38.0902 17.3448 37.8915 17.0353C37.6927 16.7259 37.4093 16.4799 37.075 16.3266C36.1836 15.7722 35.1498 15.4899 34.1004 15.5142C33.5161 15.5127 32.9347 15.5963 32.3745 15.7622Z" fill="#EBE7F7"/>
<path d="M35.2344 21.0636L35.1254 15.0719L33.6355 15.0117L33.5312 21.1337L35.2344 21.0636Z" fill="#EBE7F7"/>
<path d="M27.984 19.3821C28.2471 19.3821 28.4603 19.1689 28.4603 18.9059C28.4603 18.6429 28.2471 18.4297 27.984 18.4297C27.721 18.4297 27.5078 18.6429 27.5078 18.9059C27.5078 19.1689 27.721 19.3821 27.984 19.3821Z" fill="#EBE7F7"/>
<path d="M28.3512 16.8353C28.6142 16.8353 28.8275 16.6221 28.8275 16.359C28.8275 16.096 28.6142 15.8828 28.3512 15.8828C28.0882 15.8828 27.875 16.096 27.875 16.359C27.875 16.6221 28.0882 16.8353 28.3512 16.8353Z" fill="#EBE7F7"/>
<path d="M138.936 69.7763C138.825 69.7763 138.717 69.7407 138.627 69.6746C138.538 69.6086 138.472 69.5157 138.44 69.4095C136.719 62.984 136.26 56.2858 137.088 49.6855C138.429 40.0365 143.75 27.3729 161.485 21.8278C163.981 21.0255 166.54 20.4387 169.136 20.0739C169.972 14.8545 173.151 9.19273 180.261 5.28642C197.153 -3.99534 208.563 4.33241 208.676 4.41749C208.786 4.50004 208.859 4.62294 208.878 4.75914C208.898 4.89534 208.862 5.0337 208.78 5.14376C208.697 5.25383 208.574 5.3266 208.438 5.34606C208.302 5.36551 208.163 5.33007 208.053 5.24752C207.946 5.16659 197.041 -2.7503 180.761 6.19634C174.117 9.8469 171.076 15.0864 170.212 19.9504C178.034 19.18 181.78 21.7894 183.461 23.7602C184.502 24.9453 185.17 26.4104 185.383 27.9728C185.597 29.5352 185.346 31.1258 184.662 32.5465C184.121 33.6949 183.245 34.6522 182.149 35.2921C181.052 35.9321 179.788 36.2244 178.522 36.1307C174.154 35.8744 170.538 32.1995 169.313 26.768C168.909 24.9294 168.801 23.0379 168.994 21.1653C166.553 21.5161 164.145 22.0698 161.796 22.8207C147.973 27.1426 140.007 36.2308 138.115 49.8313C137.304 56.2818 137.751 62.8283 139.432 69.1087C139.455 69.1862 139.461 69.2683 139.447 69.3483C139.433 69.4282 139.401 69.5038 139.353 69.5691C139.304 69.6343 139.242 69.6873 139.169 69.7239C139.097 69.7604 139.017 69.7794 138.936 69.7794V69.7763ZM170.052 21.0356C169.836 22.8726 169.928 24.7327 170.325 26.5392C171.446 31.508 174.687 34.866 178.583 35.0947C179.645 35.1708 180.704 34.9242 181.624 34.3872C182.543 33.8503 183.278 33.0481 183.733 32.0859C184.326 30.847 184.542 29.4609 184.353 28.1004C184.164 26.7399 183.579 25.465 182.671 24.4346C180.245 21.5881 175.818 20.4385 170.052 21.0356Z" fill="#EBE7F7"/>
<path d="M220.76 9.66005C220.061 9.65858 219.377 9.45957 218.787 9.08598C218.196 8.71239 217.723 8.17945 217.423 7.54867C217.122 6.91789 217.006 6.21498 217.088 5.52107C217.17 4.82716 217.446 4.17054 217.885 3.62698C218.324 3.08343 218.908 2.6751 219.569 2.44912C220.23 2.22314 220.942 2.18873 221.622 2.34986C222.302 2.51098 222.922 2.86107 223.412 3.35973C223.901 3.85839 224.24 4.48528 224.388 5.16805C224.504 5.70929 224.498 6.26969 224.37 6.8082C224.241 7.34671 223.994 7.84971 223.646 8.28037C223.299 8.71102 222.859 9.05843 222.359 9.29715C221.86 9.53587 221.313 9.65986 220.76 9.66005ZM220.768 3.28752C220.216 3.28751 219.678 3.45864 219.227 3.77731C218.777 4.09599 218.436 4.54653 218.253 5.06684C218.069 5.58715 218.051 6.15162 218.202 6.68243C218.352 7.21325 218.664 7.68429 219.093 8.03063C219.523 8.37698 220.049 8.58157 220.6 8.61622C221.151 8.65086 221.699 8.51385 222.168 8.22408C222.638 7.9343 223.006 7.50602 223.222 6.99826C223.438 6.49051 223.491 5.92827 223.374 5.38905C223.247 4.79245 222.919 4.25769 222.444 3.87489C221.97 3.49209 221.377 3.28465 220.768 3.28752Z" fill="#EBE7F7"/>
<path d="M219.199 18.1261C218.249 18.1261 217.334 17.7615 216.644 17.1074C215.954 16.4534 215.541 15.5596 215.49 14.6102C215.439 13.6608 215.754 12.7279 216.37 12.0036C216.986 11.2793 217.856 10.8188 218.801 10.7168C219.746 10.6148 220.695 10.879 221.451 11.4552C222.208 12.0314 222.714 12.8756 222.867 13.8141C223.02 14.7526 222.807 15.7139 222.272 16.5001C221.737 17.2863 220.922 17.8376 219.993 18.0405C219.732 18.0974 219.466 18.1261 219.199 18.1261ZM219.212 11.7531C219.021 11.7532 218.829 11.7739 218.642 11.8148C217.979 11.9604 217.397 12.3543 217.016 12.9157C216.635 13.4771 216.484 14.1631 216.593 14.8327C216.703 15.5023 217.065 16.1045 217.605 16.5153C218.145 16.9262 218.821 17.1145 219.496 17.0416C220.17 16.9686 220.791 16.6399 221.231 16.123C221.67 15.6062 221.895 14.9406 221.859 14.2631C221.823 13.5856 221.528 12.9478 221.036 12.4809C220.543 12.014 219.891 11.7535 219.212 11.7531Z" fill="#EBE7F7"/>
<path d="M224.77 11.1777C225.097 9.40579 223.211 7.57249 220.558 7.08295C217.905 6.59341 215.489 7.633 215.162 9.40493C214.835 11.1769 216.721 13.0101 219.374 13.4997C222.027 13.9892 224.443 12.9496 224.77 11.1777Z" fill="white"/>
<path d="M220.677 14.1361C220.207 14.1353 219.739 14.0919 219.277 14.0064C217.972 13.7899 216.759 13.1975 215.786 12.3017C215.36 11.9384 215.033 11.4735 214.834 10.9502C214.635 10.4268 214.572 9.86179 214.649 9.30738C214.775 8.76185 215.036 8.25677 215.408 7.83879C215.781 7.4208 216.252 7.10339 216.78 6.91587C218.014 6.4498 219.352 6.32997 220.649 6.56934C221.946 6.80872 223.153 7.39819 224.14 8.274C224.565 8.63733 224.893 9.10216 225.091 9.62553C225.29 10.1489 225.354 10.7139 225.276 11.2683C225.151 11.8138 224.89 12.3189 224.517 12.7369C224.145 13.1549 223.673 13.4723 223.146 13.6598C222.363 13.9835 221.524 14.1455 220.677 14.1361ZM219.244 7.47613C218.54 7.46717 217.841 7.60075 217.19 7.86884C216.821 7.99223 216.489 8.20561 216.224 8.48968C215.958 8.77374 215.768 9.11951 215.67 9.49569C215.627 9.88209 215.682 10.273 215.828 10.6331C215.975 10.9931 216.209 11.311 216.509 11.5578C217.348 12.2902 218.369 12.7833 219.464 12.9855C220.559 13.1877 221.689 13.0914 222.734 12.7069C223.103 12.5835 223.435 12.3701 223.7 12.086C223.966 11.8019 224.156 11.4562 224.254 11.08C224.297 10.6936 224.243 10.3026 224.096 9.94245C223.95 9.58234 223.715 9.26454 223.415 9.01791C222.589 8.26454 221.561 7.76824 220.458 7.58974C220.058 7.51533 219.653 7.47731 219.247 7.47613H219.244Z" fill="#EBE7F7"/>
<path d="M219.371 6.96094L218.328 13.2204L219.867 13.5711L221.158 7.21669L219.371 6.96094Z" fill="#EBE7F7"/>
<path d="M225.614 13.696C225.892 13.696 226.118 13.4702 226.118 13.1917C226.118 12.9133 225.892 12.6875 225.614 12.6875C225.335 12.6875 225.109 12.9133 225.109 13.1917C225.109 13.4702 225.335 13.696 225.614 13.696Z" fill="#EBE7F7"/>
<path d="M226.496 11.114C226.775 11.114 227.001 10.8882 227.001 10.6097C227.001 10.3312 226.775 10.1055 226.496 10.1055C226.218 10.1055 225.992 10.3312 225.992 10.6097C225.992 10.8882 226.218 11.114 226.496 11.114Z" fill="#EBE7F7"/>
<defs>
<filter id="filter0_d_9491_22751" x="0.757812" y="43.6836" width="237.367" height="175.727" filterUnits="userSpaceOnUse" color-interpolation-filters="sRGB">
<feFlood flood-opacity="0" result="BackgroundImageFix"/>
<feColorMatrix in="SourceAlpha" type="matrix" values="0 0 0 0 0 0 0 0 0 0 0 0 0 0 0 0 0 0 127 0" result="hardAlpha"/>
<feOffset/>
<feGaussianBlur stdDeviation="22.5"/>
<feComposite in2="hardAlpha" operator="out"/>
<feColorMatrix type="matrix" values="0 0 0 0 0 0 0 0 0 0 0 0 0 0 0 0 0 0 0.1 0"/>
<feBlend mode="normal" in2="BackgroundImageFix" result="effect1_dropShadow_9491_22751"/>
<feBlend mode="normal" in="SourceGraphic" in2="effect1_dropShadow_9491_22751" result="shape"/>
</filter>
</defs>
</svg>
