<svg width="20" height="20" viewBox="0 0 20 20" fill="none" xmlns="http://www.w3.org/2000/svg">
<path d="M9.58073 17.7096C5.10251 17.7096 1.45573 14.0628 1.45573 9.58463C1.45573 5.10642 5.10251 1.45964 9.58073 1.45964C14.0589 1.45964 17.7057 5.10642 17.7057 9.58463C17.7057 14.0628 14.0589 17.7096 9.58073 17.7096ZM9.58073 1.8763C5.3253 1.8763 1.8724 5.33816 1.8724 9.58463C1.8724 13.8311 5.3253 17.293 9.58073 17.293C13.8362 17.293 17.2891 13.8311 17.2891 9.58463C17.2891 5.33816 13.8362 1.8763 9.58073 1.8763Z" fill="#6A5ACD" stroke="black" stroke-width="0.833333"/>
<path d="M18.3286 18.5448C18.2749 18.5448 18.2243 18.5262 18.1816 18.4835L16.5149 16.8168C16.436 16.7379 16.436 16.6017 16.5149 16.5228C16.5939 16.4438 16.7301 16.4438 16.809 16.5228L18.4757 18.1894C18.5546 18.2684 18.5546 18.4046 18.4757 18.4835C18.4329 18.5262 18.3824 18.5448 18.3286 18.5448Z" fill="#6A5ACD" stroke="black" stroke-width="0.833333"/>
</svg>
