<svg width="26" height="26" viewBox="0 0 26 26" fill="none" xmlns="http://www.w3.org/2000/svg">
<path d="M11.4561 2.67726L11.4568 2.67699C11.901 2.51126 12.4666 2.43969 12.999 2.43969C13.5305 2.43969 14.0944 2.51103 14.5346 2.67758C14.5349 2.6777 14.5352 2.67782 14.5355 2.67794L19.9396 4.7031L19.9436 4.7046L19.9436 4.70461C20.5356 4.93177 21.0514 5.39726 21.416 5.92252C21.7803 6.44732 22.0354 7.09216 22.0354 7.72369V15.7729C22.0354 16.3927 21.8231 17.0918 21.518 17.7033C21.213 18.3149 20.7811 18.9074 20.2804 19.2829L20.2794 19.2837L15.6214 22.7609C14.8859 23.311 13.9253 23.5675 12.9949 23.5675C12.0647 23.5675 11.1043 23.3111 10.3688 22.7612L11.4561 2.67726ZM11.4561 2.67726L6.0514 4.70266C6.0512 4.70274 6.05099 4.70282 6.05078 4.70289C5.45595 4.92442 4.93876 5.38867 4.57385 5.91439C4.20876 6.44036 3.95444 7.08785 3.95444 7.72369V15.7729C3.95444 16.3989 4.16994 17.1011 4.47634 17.7124C4.78263 18.3235 5.21469 18.9135 5.71039 19.2836L5.71043 19.2837L10.3684 22.7609L11.4561 2.67726ZM5.39431 19.7156L5.39406 19.7154C4.85969 19.3169 4.35898 18.6807 3.99154 17.9496C3.62407 17.2184 3.41276 16.4379 3.41276 15.7729V7.72369C3.41276 6.28009 4.49774 4.7068 5.85518 4.20127L5.85621 4.20088L11.2616 2.17521C11.2617 2.17519 11.2617 2.17516 11.2618 2.17514C11.7206 2.00371 12.343 1.90886 12.9895 1.90886C13.6361 1.90886 14.2585 2.00371 14.7173 2.17516C14.7173 2.17518 14.7174 2.17519 14.7174 2.17521L20.134 4.20101L20.1347 4.20127C21.4921 4.70679 22.5771 6.28009 22.5771 7.72369V15.7729C22.5771 16.4379 22.3658 17.2184 21.9983 17.9496C21.6309 18.6807 21.1301 19.3169 20.5958 19.7154L20.5955 19.7156L15.9372 23.1931L15.9362 23.1938C15.1322 23.7968 14.0802 24.1146 13.0003 24.1146C11.9214 24.1146 10.8682 23.7973 10.0518 23.1924C10.0516 23.1922 10.0514 23.1921 10.0512 23.192L5.39431 19.7156Z" fill="black" stroke="black" stroke-width="1.08334"/>
<path d="M12.8628 11.5695L12.8729 11.5699H12.8829H12.8829H12.8829H12.8829H12.8829H12.8829H12.8829H12.8829H12.8829H12.883H12.883H12.883H12.883H12.883H12.883H12.8831H12.8831H12.8831H12.8831H12.8832H12.8832H12.8832H12.8832H12.8833H12.8833H12.8833H12.8834H12.8834H12.8834H12.8835H12.8835H12.8835H12.8836H12.8836H12.8837H12.8837H12.8838H12.8838H12.8839H12.8839H12.884H12.884H12.8841H12.8841H12.8842H12.8842H12.8843H12.8843H12.8844H12.8845H12.8845H12.8846H12.8846H12.8847H12.8848H12.8848H12.8849H12.885H12.885H12.8851H12.8852H12.8853H12.8853H12.8854H12.8855H12.8856H12.8856H12.8857H12.8858H12.8859H12.886H12.8861H12.8861H12.8862H12.8863H12.8864H12.8865H12.8866H12.8867H12.8868H12.8869H12.887H12.8871H12.8872H12.8873H12.8874H12.8875H12.8876H12.8877H12.8878H12.8879H12.888H12.8881H12.8882H12.8883H12.8884H12.8885H12.8886H12.8888H12.8889H12.889H12.8891H12.8892H12.8893H12.8895H12.8896H12.8897H12.8898H12.89H12.8901H12.8902H12.8903H12.8905H12.8906H12.8907H12.8909H12.891H12.8911H12.8913H12.8914H12.8915H12.8917H12.8918H12.8919H12.8921H12.8922H12.8924H12.8925H12.8926H12.8928H12.8929H12.8931H12.8932H12.8934H12.8935H12.8937H12.8938H12.894H12.8941H12.8943H12.8945H12.8946H12.8948H12.8949H12.8951H12.8953H12.8954H12.8956H12.8957H12.8959H12.8961H12.8962H12.8964H12.8966H12.8967H12.8969H12.8971H12.8973H12.8974H12.8976H12.8978H12.898H12.8981H12.8983H12.8985H12.8987H12.8988H12.899H12.8992H12.8994H12.8996H12.8998H12.8999H12.9001H12.9003H12.9005H12.9007H12.9009H12.9011H12.9013H12.9015H12.9017H12.9019H12.9021H12.9022H12.9024H12.9026H12.9028H12.903H12.9032H12.9034H12.9036H12.9039H12.9041H12.9043H12.9045H12.9047H12.9049H12.9051H12.9053H12.9055H12.9057H12.9059H12.9061H12.9064H12.9066H12.9068H12.907H12.9072H12.9074H12.9077H12.9079H12.9081H12.9083H12.9085H12.9088H12.909H12.9092H12.9094H12.9097H12.9099H12.9101H12.9104H12.9106H12.9108H12.911H12.9113H12.9115H12.9117H12.912H12.9122H12.9124H12.9127H12.9129H12.9132H12.9134H12.9136H12.9139H12.9141H12.9144H12.9146H12.9148H12.9151H12.9153H12.9156H12.9158H12.9161H12.9163H12.9166H12.9168H12.9171H12.9173H12.9176H12.9178H12.9181H12.9183H12.9186H12.9189H12.9191H12.9194H12.9196H12.9199H12.9201H12.9204H12.9207H12.9209H12.9212H12.9214H12.9217H12.922H12.9222H12.9225H12.9228H12.923H12.9233H12.9236H12.9238H12.9241H12.9244H12.9247H12.9249H12.9252H12.9255H12.9258H12.926H12.9263H12.9266H12.9269H12.9271H12.9274H12.9277H12.928H12.9283H12.9285H12.9288H12.9291H12.9294H12.9297H12.9299H12.9302H12.9305H12.9308H12.9311H12.9314H12.9317H12.932H12.9322H12.9325H12.9328H12.9331H12.9334H12.9337H12.934H12.9343H12.9346H12.9349H12.9352H12.9355H12.9358H12.9361H12.9364H12.9367H12.937H12.9373H12.9376H12.9379H12.9382H12.9385H12.9388H12.9391H12.9394H12.9397H12.94H12.9403H12.9406H12.9409H12.9412H12.9415H12.9418H12.9422H12.9425H12.9428H12.9431H12.9434H12.9437H12.944H12.9443H12.9447H12.945H12.9453H12.9456H12.9459H12.9462H12.9466H12.9469H12.9472H12.9475H12.9478H12.9481H12.9485H12.9488H12.9491H12.9494H12.9498H12.9501H12.9504H12.9507H12.9511H12.9514H12.9517H12.952H12.9524H12.9527H12.953H12.9533H12.9537H12.954H12.9543H12.9547H12.955H12.9553H12.9557H12.956H12.9563H12.9567H12.957H12.9573H12.9577H12.958H12.9583H12.9587H12.959H12.9594H12.9597H12.96H12.9604H12.9607H12.9611H12.9614H12.9617H12.9621H12.9624H12.9628H12.9631H12.9634H12.9638H12.9641H12.9645H12.9648H12.9652H12.9655H12.9659H12.9662H12.9666H12.9669H12.9673H12.9676H12.968H12.9683H12.9686H12.969H12.9694H12.9697H12.9701H12.9704H12.9708H12.9711H12.9715H12.9718H12.9722H12.9725H12.9729H12.9732H12.9736H12.974H12.9743H12.9747H12.975H12.9754H12.9757H12.9761H12.9765H12.9768H12.9772H12.9775H12.9779H12.9783H12.9786H12.979H12.9793H12.9797H12.9801H12.9804H12.9808H12.9812H12.9815H12.9819H12.9822H12.9826H12.983H12.9833H12.9837H12.9841H12.9844H12.9848H12.9852H12.9855H12.9859H12.9863H12.9867H12.987H12.9874H12.9878H12.9881H12.9885H12.9889H12.9892H12.9896H12.99H12.9904H12.9907H12.9911H12.9915H12.9919H12.9922H12.9926H12.993H12.9933H12.9937H12.9941H12.9945H12.9948H12.9952H12.9956H12.996H12.9964H12.9967H12.9971H12.9975H12.9979H12.9982H12.9986H12.999H12.9994H12.9998H13.0001H13.0005H13.0009H13.0013H13.0017H13.002H13.0174L13.0326 11.569C13.8993 11.5199 14.5596 10.8016 14.562 9.93887C14.5758 9.01898 13.8214 8.29819 12.9262 8.29819C12.0203 8.29819 11.2904 9.02823 11.2904 9.93404C11.2904 10.8222 11.9877 11.5371 12.8628 11.5695ZM13.002 12.1007H13.0019H13.0018H13.0017H13.0015H13.0014H13.0013H13.0011H13.001H13.0009H13.0008H13.0006H13.0005H13.0004H13.0003H13.0001H13H12.9999H12.9998H12.9996H12.9995H12.9994H12.9992H12.9991H12.999H12.9989H12.9987H12.9986H12.9985H12.9984H12.9982H12.9981H12.998H12.9978H12.9977H12.9976H12.9975H12.9973H12.9972H12.9971H12.997H12.9968H12.9967H12.9966H12.9964H12.9963H12.9962H12.9961H12.9959H12.9958H12.9957H12.9956H12.9954H12.9953H12.9952H12.995H12.9949H12.9948H12.9947H12.9945H12.9944H12.9943H12.9941H12.994H12.9939H12.9938H12.9936H12.9935H12.9934H12.9933H12.9931H12.993H12.9929H12.9927H12.9926H12.9925H12.9924H12.9922H12.9921H12.992H12.9918H12.9917H12.9916H12.9915H12.9913H12.9912H12.9911H12.9909H12.9908H12.9907H12.9906H12.9904H12.9903H12.9902H12.99H12.9899H12.9898H12.9896H12.9895H12.9894H12.9893H12.9891H12.989H12.9889H12.9887H12.9886H12.9885H12.9884H12.9882H12.9881H12.988H12.9878H12.9877H12.9876H12.9874H12.9873H12.9872H12.9871H12.9869H12.9868H12.9867H12.9865H12.9864H12.9863H12.9861H12.986H12.9859H12.9857H12.9856H12.9855H12.9854H12.9852H12.9851H12.985H12.9848H12.9847H12.9846H12.9844H12.9843H12.9842H12.984H12.9839H12.9838H12.9836H12.9835H12.9834H12.9832H12.9831H12.983H12.9829H12.9827H12.9826H12.9825H12.9823H12.9822H12.9821H12.9819H12.9818H12.9817H12.9815H12.9814H12.9813H12.9811H12.981H12.9809H12.9807H12.9806H12.9805H12.9803H12.9802H12.9801H12.9799H12.9798H12.9797H12.9795H12.9794H12.9793H12.9791H12.979H12.9788H12.9787H12.9786H12.9784H12.9783H12.9782H12.978H12.9779H12.9778H12.9776H12.9775H12.9774H12.9772H12.9771H12.977H12.9768H12.9767H12.9765H12.9764H12.9763H12.9761H12.976H12.9759H12.9757H12.9756H12.9755H12.9753H12.9752H12.975H12.9749H12.9748H12.9746H12.9745H12.9744H12.9742H12.9741H12.9739H12.9738H12.9737H12.9735H12.9734H12.9732H12.9731H12.973H12.9728H12.9727H12.9725H12.9724H12.9723H12.9721H12.972H12.9719H12.9717H12.9716H12.9714H12.9713H12.9712H12.971H12.9709H12.9707H12.9706H12.9704H12.9703H12.9702H12.97H12.9699H12.9697H12.9696H12.9695H12.9693H12.9692H12.969H12.9689H12.9687H12.9686H12.9685H12.9683H12.9682H12.968H12.9679H12.9677H12.9676H12.9675H12.9673H12.9672H12.967H12.9669H12.9667H12.9666H12.9665H12.9663H12.9662H12.966H12.9659H12.9657H12.9656H12.9654H12.9653H12.9652H12.965H12.9649H12.9647H12.9646H12.9644H12.9643H12.9641H12.964H12.9638H12.9637H12.9635H12.9634H12.9632H12.9631H12.963H12.9628H12.9627H12.9625H12.9624H12.9622H12.9621H12.9619H12.9618H12.9616H12.9615H12.9613H12.9612H12.961H12.9609H12.9607H12.9606H12.9604H12.9603H12.9601H12.96H12.9598H12.9597H12.9595H12.9594H12.9592H12.9591H12.9589H12.9588H12.9586H12.9585H12.9583H12.9582H12.958H12.9578H12.9577H12.9575H12.9574H12.9572H12.9571H12.9569H12.9568H12.9566H12.9565H12.9563H12.9562H12.956H12.9558H12.9557H12.9555H12.9554H12.9552H12.9551H12.9549H12.9548H12.9546H12.9544H12.9543H12.9541H12.954H12.9538H12.9537H12.9535H12.9534H12.9532H12.953H12.9529H12.9527H12.9526H12.9524H12.9522H12.9521H12.9519H12.9518H12.9516H12.9514H12.9513H12.9511H12.951H12.9508H12.9506H12.9505H12.9503H12.9502H12.95H12.9498H12.9497H12.9495H12.9494H12.9492H12.949H12.9489H12.9487H12.9485H12.9484H12.9482H12.9481H12.9479H12.9477H12.9476H12.9474H12.9472H12.9471H12.9469H12.9467H12.9466H12.9464H12.9462H12.9461H12.9459H12.9458H12.9456H12.9454H12.9453H12.9451H12.9449H12.9448H12.9446H12.9444H12.9442H12.9441H12.9439H12.9437H12.9436H12.9434H12.9432H12.9431H12.9429H12.9427H12.9426H12.9424H12.9422H12.942H12.9419H12.9417H12.9415H12.9414H12.9412H12.941H12.9409H12.9407H12.9405H12.9403H12.9402H12.94H12.9398H12.9396H12.9395H12.9393H12.9391H12.9389H12.9388H12.9386H12.9384H12.9382H12.9381H12.9379H12.9377H12.9375H12.9374H12.9372H12.937H12.9368H12.9367H12.9365H12.9363H12.9361H12.936H12.9358H12.9356H12.9354H12.9352H12.9351H12.9349H12.9347H12.9345H12.9343H12.9342H12.934C11.6519 12.0619 10.7487 11.0928 10.7487 9.93404C10.7487 8.73818 11.7303 7.75651 12.9262 7.75651C14.1214 7.75651 15.1026 8.73711 15.1037 9.93207C15.0942 11.0888 14.2175 12.0214 13.09 12.107C13.08 12.1055 13.0705 12.1044 13.0617 12.1035C13.0408 12.1014 13.024 12.101 13.0162 12.1008L13.0062 12.1007L13.002 12.1007Z" fill="black" stroke="black" stroke-width="1.08334"/>
<path d="M12.9993 18.7962C12.0676 18.7962 11.1251 18.5471 10.3992 18.0596C9.67341 17.5829 9.26172 16.8787 9.26172 16.1312C9.26172 15.3837 9.67341 14.6795 10.3992 14.192C11.8618 13.217 14.1476 13.2279 15.5993 14.192C16.3251 14.6687 16.7368 15.3729 16.7368 16.1204C16.7368 16.8679 16.3251 17.5721 15.5993 18.0596C14.8734 18.5471 13.9309 18.7962 12.9993 18.7962ZM11.2984 15.5354C11.0276 15.7087 10.8759 15.9254 10.8867 16.1204C10.8867 16.3154 11.0384 16.5321 11.2984 16.7054C12.2084 17.3121 13.7901 17.3121 14.7001 16.7054C14.9709 16.5321 15.1226 16.3154 15.1226 16.1204C15.1226 15.9254 14.9709 15.7087 14.7109 15.5354C13.8009 14.9395 12.2084 14.9395 11.2984 15.5354Z" fill="black"/>
</svg>
