<svg width="190" height="61" viewBox="0 0 190 61" fill="none" xmlns="http://www.w3.org/2000/svg">
<path d="M38.0806 9.99776L33.5472 1.6886C33.3121 1.25731 32.9819 0.885157 32.5818 0.600289C32.1816 0.315421 31.7219 0.125304 31.2375 0.0443212C30.753 -0.0366615 30.2565 -0.00638808 29.7855 0.132851C29.3144 0.27209 28.8812 0.516647 28.5187 0.848019L7.41429 20.1282C7.2725 20.2576 7.17317 20.4269 7.12935 20.6139C7.08553 20.8008 7.09927 20.9966 7.16876 21.1756C7.23826 21.3546 7.36026 21.5083 7.51874 21.6167C7.67722 21.7251 7.86477 21.783 8.05675 21.7828H10.8681C16.027 21.7828 18.9785 27.6668 15.8942 31.8021L0.253109 52.761C-0.587394 53.8866 0.842428 55.2972 1.95585 54.4518L33.8491 29.9832C36.8226 27.7047 38.8834 24.438 39.6594 20.7729C40.4354 17.1078 39.8754 13.2861 38.0806 9.99776Z" fill="#695ACD"/>
<path d="M43.2799 53.1353C45.0806 54.518 47.5888 55.1933 50.8365 55.1933C53.9235 55.1933 56.303 54.6145 58.0394 53.3925C59.7758 52.2028 60.644 50.5628 60.644 48.4406C60.644 46.8006 60.1617 45.4822 59.2292 44.4854C58.2967 43.5207 57.0104 42.8454 55.3705 42.4596L49.3895 41.0769C48.3284 40.8518 47.5245 40.4981 47.01 40.0479C46.4633 39.5977 46.2061 39.0189 46.2061 38.3758C46.2061 37.5397 46.5919 36.8645 47.3637 36.4143C48.1354 35.9641 49.2609 35.7069 50.7079 35.7069C52.2514 35.7069 53.4411 36.0606 54.3415 36.7358C55.2419 37.4111 55.692 38.3758 55.7563 39.5977H60.4832C60.4189 37.1217 59.5507 35.1924 57.8465 33.8097C56.1101 32.427 53.7305 31.7195 50.7079 31.7195C47.7495 31.7195 45.4022 32.3305 43.7301 33.4881C42.0258 34.6779 41.1898 36.2857 41.1898 38.3115C41.1898 39.9514 41.7364 41.302 42.8297 42.3953C43.923 43.4886 45.4986 44.2925 47.6209 44.7426L53.0874 45.9324C53.9235 46.1253 54.5344 46.4147 54.9846 46.8328C55.4348 47.2508 55.6599 47.7653 55.6599 48.3762C55.6599 49.2766 55.2097 49.984 54.3736 50.4985C53.5376 51.013 52.3478 51.2381 50.8365 51.2381C49.2287 51.2381 47.9425 50.8844 47.01 50.2413C46.0774 49.5982 45.563 48.6335 45.4986 47.4116H40.6753C40.611 49.8554 41.4792 51.7848 43.2799 53.1353ZM88.1415 38.3436C87.2733 37.8613 86.3086 37.6041 85.2796 37.6041C83.8005 37.6041 82.4821 38.1185 81.3888 39.0832C80.2633 40.08 79.5881 41.4306 79.363 43.167H79.17C79.0414 41.4627 78.4626 40.1122 77.4015 39.1154C76.3082 38.1185 75.0219 37.6041 73.4785 37.6041C71.9993 37.6041 70.7131 38.1185 69.6198 39.0832C68.4943 40.08 67.819 41.4306 67.5939 43.167H67.401L67.2402 38.1185H62.8027V54.7109H67.401V46.061C67.401 44.5497 67.7226 43.3599 68.3657 42.4917C69.0088 41.6557 69.9413 41.2055 71.1311 41.2055C72.1922 41.2055 73.0283 41.5914 73.6714 42.331C74.2824 43.1027 74.6039 44.1317 74.6039 45.4179V54.7109H79.17V46.061C79.17 44.5497 79.4916 43.3599 80.1347 42.4917C80.7778 41.6557 81.7103 41.2055 82.9001 41.2055C83.9934 41.2055 84.8295 41.5914 85.4404 42.331C86.0514 43.0705 86.3729 44.0995 86.3729 45.4179V54.7109H90.9391V43.6815C90.9391 42.4596 90.6818 41.3663 90.1673 40.4338C89.6528 39.5334 88.9776 38.826 88.1415 38.3436ZM110.352 47.3473V46.0289C110.352 44.4854 109.998 43.0705 109.323 41.7843C108.647 40.4981 107.683 39.5012 106.396 38.7295C105.11 37.9899 103.599 37.6041 101.895 37.6041C100.158 37.6041 98.6469 37.9899 97.3607 38.6973C96.0744 39.4048 95.0776 40.4338 94.3702 41.7521C93.6628 43.1027 93.309 44.614 93.309 46.3504C93.309 49.1801 94.0808 51.3667 95.6886 52.9102C97.2642 54.4537 99.4186 55.2254 102.184 55.2254C103.406 55.2254 104.596 55.0003 105.753 54.518C106.911 54.0678 107.876 53.3604 108.712 52.3957C109.516 51.4632 109.998 50.3056 110.191 48.955H106.204C105.978 49.7911 105.496 50.4985 104.789 51.013C104.081 51.5275 103.213 51.7848 102.184 51.7848C100.866 51.7848 99.8045 51.3989 98.9685 50.595C98.1324 49.8233 97.6822 48.73 97.6822 47.3473H110.352ZM98.9363 42.0416C99.6759 41.3984 100.641 41.0447 101.798 41.0447C102.924 41.0447 103.856 41.3984 104.596 42.0737C105.335 42.749 105.753 43.6815 105.85 44.8713H97.6822C97.7465 43.6493 98.1646 42.7168 98.9363 42.0416ZM117.585 44.4854H117.392L117.264 38.1185H112.826V54.7109H117.392V47.8618C117.457 46.3183 117.714 45.0964 118.229 44.2603C118.711 43.4243 119.45 42.8133 120.479 42.4274C121.476 42.0416 122.891 41.8165 124.692 41.6878V37.8291C123.052 37.8291 121.766 38.0542 120.833 38.4723C119.901 38.9224 119.193 39.5977 118.711 40.5302C118.196 41.4949 117.843 42.8133 117.585 44.4854ZM141.177 38.6973C140.116 37.9899 138.894 37.6041 137.543 37.6041C136.129 37.6041 134.874 38.0542 133.781 38.9224C132.688 39.7906 131.884 41.0769 131.434 42.7811H131.241L131.112 38.1185H126.675V60.6276H131.241V50.0805H131.434C131.884 51.7848 132.688 53.071 133.781 53.9392C134.874 54.8074 136.129 55.2254 137.543 55.2254C138.894 55.2254 140.116 54.8717 141.177 54.1643C142.238 53.4569 143.074 52.4279 143.685 51.0773C144.264 49.7589 144.585 48.2155 144.585 46.4147C144.585 44.6462 144.264 43.1027 143.685 41.7521C143.074 40.4338 142.238 39.4048 141.177 38.6973ZM138.797 50.5628C137.994 51.5597 136.932 52.042 135.614 52.042C134.296 52.042 133.234 51.624 132.431 50.7236C131.627 49.8554 131.241 48.7621 131.241 47.4116V45.4501C131.241 44.0995 131.627 43.0062 132.431 42.1059C133.234 41.2377 134.296 40.7875 135.614 40.7875C136.932 40.7875 137.994 41.302 138.797 42.2988C139.569 43.2956 139.987 44.6783 139.987 46.4147C139.987 48.1833 139.569 49.566 138.797 50.5628ZM164.449 49.5017H164.675L164.9 54.7109H169.08V42.749H156.861V46.2218H164.449V46.5434C164.385 47.4116 164.096 48.2155 163.581 48.955C163.067 49.6946 162.359 50.2734 161.459 50.6915C160.559 51.1416 159.562 51.3346 158.436 51.3346C156.153 51.3346 154.417 50.6593 153.259 49.2766C152.102 47.9261 151.523 45.9646 151.523 43.4564C151.523 41.0447 152.069 39.1475 153.163 37.7327C154.256 36.3178 155.832 35.6104 157.954 35.5782C159.497 35.5782 160.752 35.9963 161.716 36.8323C162.681 37.6684 163.292 38.7617 163.549 40.1122H168.598C168.276 37.5397 167.151 35.5139 165.286 33.9704C163.42 32.4591 160.944 31.6874 157.89 31.6874C155.51 31.6874 153.452 32.2019 151.716 33.1666C149.979 34.1312 148.661 35.5139 147.761 37.2825C146.86 39.0511 146.41 41.109 146.41 43.4564C146.41 45.8681 146.828 47.9582 147.696 49.7268C148.565 51.5275 149.786 52.8781 151.33 53.8106C152.873 54.7752 154.642 55.2254 156.636 55.2254C158.822 55.2254 160.526 54.7109 161.813 53.6498C163.099 52.5887 163.967 51.206 164.449 49.5017ZM175.97 54.1643C177.353 54.8717 178.896 55.2254 180.568 55.2254C182.24 55.2254 183.752 54.8717 185.134 54.1643C186.517 53.4569 187.61 52.3957 188.414 51.0452C189.186 49.6946 189.604 48.1512 189.604 46.3504C189.604 44.614 189.186 43.1027 188.382 41.7521C187.578 40.4338 186.485 39.4048 185.134 38.6973C183.752 37.9899 182.24 37.6041 180.568 37.6041C178.896 37.6041 177.353 37.9899 175.97 38.6973C174.587 39.4048 173.494 40.4338 172.69 41.7521C171.886 43.1027 171.5 44.614 171.5 46.3504C171.5 48.1512 171.886 49.6946 172.69 51.0452C173.494 52.3957 174.587 53.4569 175.97 54.1643ZM183.784 50.3699C183.012 51.3024 181.919 51.7526 180.568 51.7526C179.153 51.7526 178.06 51.3024 177.288 50.3699C176.517 49.4695 176.131 48.119 176.131 46.3504C176.131 44.6462 176.517 43.3278 177.288 42.4274C178.06 41.5271 179.153 41.0769 180.568 41.0769C181.919 41.0769 183.012 41.5271 183.784 42.4274C184.556 43.3278 184.974 44.6462 184.974 46.3504C184.974 48.119 184.556 49.4695 183.784 50.3699Z" fill="#695ACD"/>
</svg>
