<svg width="90" height="33" viewBox="0 0 90 33" fill="none" xmlns="http://www.w3.org/2000/svg">
<path d="M20.703 8.60959L18.7508 5.03178C18.6496 4.84607 18.5074 4.68582 18.3351 4.56316C18.1628 4.4405 17.9649 4.35864 17.7562 4.32377C17.5476 4.2889 17.3338 4.30194 17.131 4.36189C16.9281 4.42185 16.7416 4.52715 16.5854 4.66983L7.49745 12.9716C7.43639 13.0273 7.39361 13.1003 7.37474 13.1807C7.35587 13.2612 7.36179 13.3455 7.39171 13.4226C7.42164 13.4997 7.47418 13.5659 7.54242 13.6125C7.61067 13.6592 7.69143 13.6841 7.7741 13.6841H8.98472C11.2063 13.6841 12.4772 16.2177 11.1491 17.9982L4.41368 27.0229C4.05174 27.5075 4.66746 28.1149 5.14692 27.7509L18.8808 17.2151C20.1613 16.234 21.0487 14.8273 21.3829 13.2492C21.7171 11.6711 21.4759 10.0255 20.703 8.60959Z" fill="#695ACD"/>
<path d="M22.9436 26.8215C22.1682 26.24 21.7943 25.4092 21.822 24.3569H23.899C23.9267 24.883 24.1482 25.2984 24.5498 25.5753C24.9513 25.8523 25.5052 26.0046 26.1975 26.0046C26.8483 26.0046 27.3606 25.9077 27.7206 25.6861C28.0806 25.4646 28.2745 25.16 28.2745 24.7723C28.2745 24.5092 28.1775 24.2876 27.9837 24.1076C27.7898 23.9276 27.5268 23.803 27.1667 23.7199L24.8129 23.2076C23.899 23.0138 23.2205 22.6676 22.7497 22.1968C22.279 21.726 22.0436 21.1445 22.0436 20.4383C22.0436 19.566 22.4036 18.8737 23.1374 18.3614C23.8575 17.8629 24.8682 17.5998 26.1421 17.5998C27.4437 17.5998 28.4683 17.9044 29.216 18.4998C29.9499 19.0952 30.3237 19.926 30.3514 20.9922H28.316C28.2883 20.466 28.0945 20.0506 27.7068 19.7598C27.3191 19.4691 26.8067 19.3168 26.1421 19.3168C25.519 19.3168 25.0344 19.4275 24.7021 19.6214C24.3698 19.8152 24.2036 20.106 24.2036 20.466C24.2036 20.7429 24.3144 20.9922 24.5498 21.186C24.7713 21.3799 25.1175 21.5322 25.5744 21.6291L28.1498 22.2245C28.856 22.3907 29.4099 22.6814 29.8114 23.0968C30.213 23.5261 30.4207 24.0938 30.4207 24.7999C30.4207 25.7138 30.0468 26.42 29.2991 26.9323C28.5514 27.4585 27.5268 27.7077 26.1975 27.7077C24.799 27.7077 23.719 27.4169 22.9436 26.8215ZM42.2612 20.4522C42.6212 20.6599 42.912 20.9645 43.1335 21.3522C43.3551 21.7537 43.4658 22.2245 43.4658 22.7507V27.5H41.4996V23.4984C41.4996 22.9307 41.3612 22.4876 41.0981 22.1691C40.835 21.8507 40.475 21.6845 40.0042 21.6845C39.4919 21.6845 39.0904 21.8783 38.8134 22.2384C38.5365 22.6122 38.398 23.1245 38.398 23.7753V27.5H36.4318V23.4984C36.4318 22.9445 36.2934 22.5014 36.0303 22.1691C35.7534 21.8507 35.3934 21.6845 34.9364 21.6845C34.4241 21.6845 34.0226 21.8783 33.7456 22.2384C33.4687 22.6122 33.3302 23.1245 33.3302 23.7753V27.5H31.3502V20.3552H33.261L33.3302 22.5291H33.4133C33.5102 21.7814 33.801 21.1999 34.2857 20.7706C34.7564 20.3552 35.3103 20.1337 35.9472 20.1337C36.6119 20.1337 37.1657 20.3552 37.6365 20.7845C38.0934 21.2137 38.3427 21.7953 38.398 22.5291H38.4811C38.578 21.7814 38.8688 21.1999 39.3534 20.7706C39.8242 20.3552 40.3919 20.1337 41.0289 20.1337C41.4719 20.1337 41.8873 20.2445 42.2612 20.4522ZM51.825 24.3292H46.3695C46.3695 24.9246 46.5633 25.3953 46.9233 25.7277C47.2833 26.0738 47.7403 26.24 48.308 26.24C48.7511 26.24 49.1249 26.1292 49.4295 25.9077C49.7342 25.6861 49.9419 25.3815 50.0388 25.0215H51.7557C51.6727 25.603 51.465 26.1015 51.1188 26.5031C50.7588 26.9184 50.3434 27.2231 49.8449 27.4169C49.3465 27.6246 48.8341 27.7215 48.308 27.7215C47.1172 27.7215 46.1895 27.3892 45.511 26.7246C44.8187 26.06 44.4864 25.1184 44.4864 23.8999C44.4864 23.1522 44.6387 22.5014 44.9433 21.9199C45.2479 21.3522 45.6772 20.9091 46.231 20.6045C46.7849 20.2999 47.4356 20.1337 48.1834 20.1337C48.9172 20.1337 49.568 20.2999 50.1219 20.6183C50.6757 20.9506 51.0911 21.3799 51.3819 21.9337C51.6727 22.4876 51.825 23.0968 51.825 23.7615V24.3292ZM46.9095 22.0445C46.5772 22.3353 46.3972 22.7368 46.3695 23.263H49.8865C49.8449 22.7507 49.6649 22.3491 49.3465 22.0584C49.028 21.7676 48.6264 21.6153 48.1418 21.6153C47.6433 21.6153 47.228 21.7676 46.9095 22.0445ZM54.9399 23.0968C55.0506 22.3768 55.203 21.8091 55.4245 21.3937C55.6322 20.9922 55.9368 20.7014 56.3384 20.5076C56.7399 20.3275 57.2938 20.2306 57.9999 20.2306V21.8922C57.2245 21.9476 56.6153 22.0445 56.1861 22.2107C55.743 22.3768 55.4245 22.6399 55.2168 22.9999C54.9953 23.3599 54.8845 23.8861 54.8568 24.5507V27.5H52.8906V20.3552H54.8014L54.8568 23.0968H54.9399ZM65.0985 20.6045C65.5554 20.9091 65.9154 21.3522 66.1785 21.9199C66.4278 22.5014 66.5662 23.1661 66.5662 23.9276C66.5662 24.703 66.4278 25.3676 66.1785 25.9354C65.9154 26.5169 65.5554 26.96 65.0985 27.2646C64.6416 27.5692 64.1154 27.7215 63.5339 27.7215C62.9246 27.7215 62.3846 27.5415 61.9138 27.1677C61.443 26.7938 61.0969 26.24 60.903 25.5061H60.82V30.0477H58.8538V20.3552H60.7646L60.82 22.363H60.903C61.0969 21.6291 61.443 21.0753 61.9138 20.7014C62.3846 20.3275 62.9246 20.1337 63.5339 20.1337C64.1154 20.1337 64.6416 20.2999 65.0985 20.6045ZM64.0739 25.7138C64.4062 25.2846 64.5862 24.6892 64.5862 23.9276C64.5862 23.1799 64.4062 22.5845 64.0739 22.1553C63.7277 21.726 63.2708 21.5045 62.7031 21.5045C62.1354 21.5045 61.6784 21.6983 61.3323 22.0722C60.9861 22.4599 60.82 22.9307 60.82 23.5122V24.3569C60.82 24.9384 60.9861 25.4092 61.3323 25.783C61.6784 26.1707 62.1354 26.3507 62.7031 26.3507C63.2708 26.3507 63.7277 26.143 64.0739 25.7138ZM75.1197 25.2569C74.912 25.9907 74.5382 26.5861 73.9843 27.0431C73.4305 27.5 72.6966 27.7215 71.7551 27.7215C70.8966 27.7215 70.135 27.5277 69.4704 27.1123C68.8058 26.7108 68.2796 26.1292 67.9058 25.3538C67.5319 24.5922 67.3519 23.6922 67.3519 22.6537C67.3519 21.643 67.5457 20.7568 67.9334 19.9952C68.3211 19.2337 68.8889 18.6383 69.6366 18.2229C70.3843 17.8075 71.2704 17.586 72.2951 17.586C73.6105 17.586 74.6767 17.9183 75.4798 18.5691C76.2828 19.2337 76.7675 20.106 76.9059 21.2137H74.732C74.6213 20.6322 74.3582 20.1614 73.9428 19.8014C73.5274 19.4414 72.9874 19.2614 72.3228 19.2614C71.4089 19.2752 70.7304 19.5798 70.2596 20.1891C69.7889 20.7983 69.5535 21.6153 69.5535 22.6537C69.5535 23.7338 69.8027 24.5784 70.3012 25.16C70.7997 25.7553 71.5474 26.0461 72.5305 26.0461C73.0151 26.0461 73.4443 25.963 73.832 25.7692C74.2197 25.5892 74.5243 25.34 74.7459 25.0215C74.9674 24.703 75.0921 24.3569 75.1197 23.983V23.8445H71.852V22.3491H77.1136V27.5H75.3136L75.2167 25.2569H75.1197ZM80.0806 27.2646C79.4852 26.96 79.0144 26.5031 78.6682 25.9215C78.3221 25.34 78.1559 24.6753 78.1559 23.8999C78.1559 23.1522 78.3221 22.5014 78.6682 21.9199C79.0144 21.3522 79.4852 20.9091 80.0806 20.6045C80.6759 20.2999 81.3406 20.1337 82.0606 20.1337C82.7806 20.1337 83.4314 20.2999 84.0268 20.6045C84.6083 20.9091 85.0791 21.3522 85.4253 21.9199C85.7714 22.5014 85.9514 23.1522 85.9514 23.8999C85.9514 24.6753 85.7714 25.34 85.4391 25.9215C85.093 26.5031 84.6222 26.96 84.0268 27.2646C83.4314 27.5692 82.7806 27.7215 82.0606 27.7215C81.3406 27.7215 80.6759 27.5692 80.0806 27.2646ZM83.4452 25.6307C83.7775 25.243 83.9576 24.6615 83.9576 23.8999C83.9576 23.1661 83.7775 22.5984 83.4452 22.2107C83.1129 21.823 82.6421 21.6291 82.0606 21.6291C81.4513 21.6291 80.9806 21.823 80.6483 22.2107C80.3159 22.5984 80.1498 23.1661 80.1498 23.8999C80.1498 24.6615 80.3159 25.243 80.6483 25.6307C80.9806 26.0323 81.4513 26.2261 82.0606 26.2261C82.6421 26.2261 83.1129 26.0323 83.4452 25.6307Z" fill="#695ACD"/>
</svg>
