<svg width="26" height="26" viewBox="0 0 26 26" fill="none" xmlns="http://www.w3.org/2000/svg">
<path d="M11.6677 23.0093L11.666 23.0076L9.81393 21.1771L11.6677 23.0093ZM11.6677 23.0093C12.4091 23.7356 13.6019 23.7356 14.3433 23.0093L14.345 23.0076M11.6677 23.0093L14.345 23.0076M14.345 23.0076L16.1971 21.1771L14.345 23.0076ZM3.52084 5.38634C3.52084 3.75921 4.86386 2.43968 6.50003 2.43968H19.5001C21.1347 2.43968 22.4793 3.7468 22.4793 5.38634V17.2056C22.4793 18.8328 21.1363 20.1523 19.5001 20.1523H18.6876C17.7483 20.1523 16.8663 20.5175 16.1975 21.1767L3.52084 5.38634ZM3.52084 5.38634V17.2056M3.52084 5.38634V17.2056M3.52084 17.2056C3.52084 18.8452 4.86546 20.1523 6.50003 20.1523M3.52084 17.2056L6.50003 20.1523M6.50003 20.1523H7.32336M6.50003 20.1523H7.32336M7.32336 20.1523C8.26271 20.1523 9.14466 20.5175 9.81346 21.1767L7.32336 20.1523ZM11.2814 23.3984L11.2791 23.3962L9.42665 21.5654L9.42438 21.5632C8.8583 21.0103 8.11614 20.7048 7.32336 20.7048H6.50003C4.55288 20.7048 2.97917 19.1344 2.97917 17.2165V5.39719C2.97917 3.47927 4.55288 1.90886 6.50003 1.90886H19.5001C21.4473 1.90886 23.021 3.47927 23.021 5.39719V17.2165C23.021 19.1344 21.4473 20.7048 19.5001 20.7048H18.6768C17.8883 20.7048 17.1322 21.0074 16.5725 21.5664C16.5721 21.5668 16.5717 21.5672 16.5712 21.5677L14.721 23.3962L14.7187 23.3984C14.251 23.8661 13.6218 24.1065 13.0001 24.1065C12.3784 24.1065 11.7491 23.8661 11.2814 23.3984Z" fill="black" stroke="black" stroke-width="1.08334"/>
<path d="M7.58 14.7849L7.58002 14.7849L7.57728 14.7812C7.41516 14.5607 7.37003 14.2867 7.45207 14.0072C7.76697 13.0529 8.53074 12.5194 9.37369 11.9426C9.79648 11.6572 10.1868 11.3866 10.4651 11.092C10.7659 10.7735 10.9651 10.3973 10.9651 9.91295C10.9651 9.0505 10.2676 8.35287 9.40506 8.35287C8.54251 8.35287 7.84506 9.05052 7.84506 9.91295C7.84506 10.058 7.71924 10.1838 7.57422 10.1838C7.42921 10.1838 7.30339 10.058 7.30339 9.91295C7.30339 8.75896 8.24317 7.8112 9.40506 7.8112C10.5684 7.8112 11.5067 8.74958 11.5067 9.91295C11.5067 11.117 10.6321 11.7475 9.67394 12.4013L9.97922 12.8487L9.67489 12.4007C9.65665 12.4131 9.63827 12.4255 9.61975 12.4381C9.09022 12.7973 8.45378 13.2291 8.11905 13.8316L7.67197 14.6363H8.59255H11.2359C11.3809 14.6363 11.5067 14.7621 11.5067 14.9071C11.5067 15.0617 11.3823 15.178 11.2468 15.178H8.34339C8.04189 15.178 7.76056 15.0349 7.58 14.7849Z" fill="black" stroke="black" stroke-width="1.08334"/>
<path d="M17.3765 15.7168C16.9323 15.7168 16.564 15.3485 16.564 14.9043V14.1567H14.4406C14.4406 14.1567 14.4406 14.1567 14.4298 14.1567C13.899 14.1567 13.4115 13.8751 13.1406 13.4201C12.8698 12.9543 12.8698 12.3801 13.1406 11.9251C13.8773 10.6576 14.7331 9.21673 15.5131 7.96005C15.8598 7.40755 16.5207 7.15842 17.1382 7.33176C17.7557 7.51593 18.189 8.07931 18.1782 8.72931V12.5426H18.4165C18.8607 12.5426 19.229 12.9109 19.229 13.3551C19.229 13.7992 18.8607 14.1676 18.4165 14.1676H18.189V14.9151C18.189 15.3593 17.8315 15.7168 17.3765 15.7168ZM16.564 9.3576C15.9248 10.3976 15.264 11.5134 14.6681 12.5317H16.564V9.3576Z" fill="black"/>
</svg>
