<svg width="16" height="20" viewBox="0 0 16 20" fill="none" xmlns="http://www.w3.org/2000/svg">
<path fill-rule="evenodd" clip-rule="evenodd" d="M13.7692 5.38489H2.23077C1.91231 5.38489 1.65385 5.127 1.65385 4.80797C1.65385 4.48951 1.91231 4.23105 2.23077 4.23105H13.7692C14.0877 4.23105 14.3462 4.48951 14.3462 4.80797C14.3462 5.127 14.0877 5.38489 13.7692 5.38489ZM13.1923 16.9233C13.1923 17.5602 12.6754 18.0771 12.0385 18.0771H3.96154C3.32462 18.0771 2.80769 17.5602 2.80769 16.9233V6.53873H13.1923V16.9233ZM6.26923 2.50029C6.26923 2.18125 6.52769 1.92337 6.84615 1.92337H9.15385C9.47231 1.92337 9.73077 2.18125 9.73077 2.50029V3.07721H6.26923V2.50029ZM14.3462 3.07721H10.8846V1.92337C10.8846 1.28645 10.3677 0.769531 9.73077 0.769531H6.26923C5.63231 0.769531 5.11538 1.28645 5.11538 1.92337V3.07721H1.65385C1.01692 3.07721 0.5 3.59413 0.5 4.23105V5.38489C0.5 6.02181 1.01692 6.53873 1.65385 6.53873V16.9233C1.65385 18.1977 2.68712 19.231 3.96154 19.231H12.0385C13.3129 19.231 14.3462 18.1977 14.3462 16.9233V6.53873C14.9831 6.53873 15.5 6.02181 15.5 5.38489V4.23105C15.5 3.59413 14.9831 3.07721 14.3462 3.07721ZM8 16.9233C8.31846 16.9233 8.57692 16.6654 8.57692 16.3464V9.42332C8.57692 9.10486 8.31846 8.84641 8 8.84641C7.68154 8.84641 7.42308 9.10486 7.42308 9.42332V16.3464C7.42308 16.6654 7.68154 16.9233 8 16.9233ZM5.11538 16.9233C5.43385 16.9233 5.69231 16.6654 5.69231 16.3464V9.42332C5.69231 9.10486 5.43385 8.84641 5.11538 8.84641C4.79692 8.84641 4.53846 9.10486 4.53846 9.42332V16.3464C4.53846 16.6654 4.79692 16.9233 5.11538 16.9233ZM10.8846 16.9233C11.2031 16.9233 11.4615 16.6654 11.4615 16.3464V9.42332C11.4615 9.10486 11.2031 8.84641 10.8846 8.84641C10.5662 8.84641 10.3077 9.10486 10.3077 9.42332V16.3464C10.3077 16.6654 10.5662 16.9233 10.8846 16.9233Z" fill="#333333"/>
</svg>
