<svg width="26" height="26" viewBox="0 0 26 26" fill="none" xmlns="http://www.w3.org/2000/svg">
<path d="M12.4153 15.1444C10.5911 15.1444 9.10026 13.6535 9.10026 11.8293C9.10026 10.0052 10.5911 8.51433 12.4153 8.51433C14.2395 8.51433 15.7303 10.0052 15.7303 11.8293C15.7303 13.6535 14.2395 15.1444 12.4153 15.1444ZM12.4153 9.06684C10.8937 9.06684 9.64194 10.3043 9.64194 11.8402C9.64194 13.3744 10.8811 14.6135 12.4153 14.6135C13.9495 14.6135 15.1886 13.3744 15.1886 11.8402C15.1886 10.306 13.9495 9.06684 12.4153 9.06684Z" fill="black" stroke="black" stroke-width="1.08334"/>
<path d="M18.0381 22.1542C17.893 22.1542 17.7672 22.0284 17.7672 21.8834C17.7672 19.3887 15.2386 17.5716 12.4155 17.5716C9.59246 17.5716 7.06381 19.3887 7.06381 21.8834C7.06381 22.0284 6.93799 22.1542 6.79297 22.1542C6.64796 22.1542 6.52214 22.0284 6.52214 21.8834C6.52214 19.2991 9.06869 17.03 12.4155 17.03C15.7631 17.03 18.3089 19.2889 18.3089 21.8834C18.3089 22.0284 18.1831 22.1542 18.0381 22.1542Z" fill="black" stroke="black" stroke-width="1.08334"/>
<path d="M12.4597 24.646C6.33884 24.646 1.35547 19.6626 1.35547 13.5417C1.35547 7.42087 6.33884 2.4375 12.4597 2.4375C13.9656 2.4375 15.4172 2.72999 16.7822 3.30416C17.1723 3.46666 17.3673 3.89998 17.2373 4.30082C17.1181 4.65832 17.0639 5.03752 17.0639 5.41669C17.0639 6.05586 17.2373 6.68418 17.5731 7.22585C17.7464 7.52919 17.9739 7.80001 18.2339 8.02751C19.1764 8.88335 20.5739 9.15424 21.6681 8.76424C22.069 8.61257 22.524 8.81839 22.6865 9.21923C23.2715 10.5951 23.564 12.0576 23.564 13.5526C23.564 19.6626 18.5806 24.646 12.4597 24.646ZM12.4597 4.06251C7.23801 4.06251 2.98048 8.30921 2.98048 13.5417C2.98048 18.7743 7.23801 23.021 12.4597 23.021C17.6814 23.021 21.939 18.7743 21.939 13.5417C21.939 12.5017 21.7656 11.4726 21.4406 10.4867C19.9456 10.7467 18.3098 10.2809 17.1614 9.23007C16.7822 8.90507 16.4464 8.50421 16.1864 8.06004C15.7097 7.28004 15.4497 6.3592 15.4497 5.41669C15.4497 5.12419 15.4714 4.84254 15.5256 4.56087C14.5397 4.22504 13.5106 4.06251 12.4597 4.06251Z" fill="black"/>
<path d="M20.5834 10.5613C19.305 10.5613 18.0917 10.0846 17.1492 9.22878C16.77 8.90378 16.4342 8.50293 16.1742 8.05876C15.6975 7.27875 15.4375 6.35791 15.4375 5.4154C15.4375 4.8629 15.5242 4.32124 15.6975 3.80123C15.9358 3.06456 16.3475 2.38205 16.9 1.82955C17.875 0.832871 19.1859 0.269531 20.5942 0.269531C22.0675 0.269531 23.4651 0.897888 24.4184 1.98123C25.2634 2.92374 25.7401 4.13706 25.7401 5.4154C25.7401 5.82707 25.6859 6.23874 25.5776 6.62874C25.4692 7.11624 25.2634 7.62543 24.9817 8.0696C24.3534 9.13128 23.3567 9.9221 22.1867 10.2904C21.6992 10.4746 21.1575 10.5613 20.5834 10.5613ZM20.5834 1.89454C19.6192 1.89454 18.72 2.27369 18.0592 2.9562C17.68 3.3462 17.4092 3.79036 17.2467 4.29953C17.1275 4.65703 17.0733 5.03623 17.0733 5.4154C17.0733 6.05457 17.2467 6.68289 17.5825 7.22456C17.7558 7.5279 17.9834 7.79872 18.2434 8.02623C19.1859 8.88206 20.5834 9.15296 21.6775 8.76296C22.5009 8.50295 23.1726 7.96125 23.6059 7.23541C23.8009 6.92124 23.9309 6.58543 24.0067 6.2496C24.0826 5.96793 24.1151 5.69707 24.1151 5.4154C24.1151 4.54873 23.7901 3.71458 23.2051 3.06457C22.5442 2.31706 21.5909 1.89454 20.5834 1.89454Z" fill="black"/>
<path d="M22.1962 6.20704H18.957C18.5129 6.20704 18.1445 5.83871 18.1445 5.39454C18.1445 4.95037 18.5129 4.58203 18.957 4.58203H22.1962C22.6404 4.58203 23.0087 4.95037 23.0087 5.39454C23.0087 5.83871 22.6512 6.20704 22.1962 6.20704Z" fill="black"/>
<path d="M20.582 7.86419C20.1379 7.86419 19.7695 7.49586 19.7695 7.05169V3.81251C19.7695 3.36834 20.1379 3 20.582 3C21.0262 3 21.3945 3.36834 21.3945 3.81251V7.05169C21.3945 7.50669 21.0262 7.86419 20.582 7.86419Z" fill="black"/>
</svg>
