<svg width="19" height="18" viewBox="0 0 19 18" fill="none" xmlns="http://www.w3.org/2000/svg">
<path d="M17.8155 3.62036L14.5544 0.342583C14.3389 0.128175 14.0472 0.0078125 13.7433 0.0078125C13.4393 0.0078125 13.1476 0.128175 12.9321 0.342583L1.37103 11.887L0.315477 16.4426C0.279064 16.6091 0.280313 16.7817 0.319131 16.9477C0.357949 17.1136 0.433357 17.2689 0.539846 17.402C0.646335 17.5351 0.781214 17.6427 0.934631 17.717C1.08805 17.7913 1.25613 17.8304 1.42659 17.8315C1.50602 17.8395 1.58605 17.8395 1.66548 17.8315L6.27103 16.7759L17.8155 5.24258C18.0299 5.02709 18.1502 4.73546 18.1502 4.43147C18.1502 4.12748 18.0299 3.83586 17.8155 3.62036ZM5.71548 15.7759L1.39881 16.6815L2.38214 12.4481L11.0321 3.83147L14.3655 7.16481L5.71548 15.7759ZM15.1099 6.35925L11.7766 3.02592L13.7099 1.10369L16.9877 4.43703L15.1099 6.35925Z" fill="#333333"/>
</svg>
