<svg width="24" height="24" viewBox="0 0 24 24" fill="none" xmlns="http://www.w3.org/2000/svg">
<g id="vuesax/bold/verify">
<g id="verify">
<path id="Vector" d="M21.5589 10.7386L20.1989 9.15859C19.9389 8.85859 19.7289 8.29859 19.7289 7.89859V6.19859C19.7289 5.13859 18.8589 4.26859 17.7989 4.26859H16.0989C15.7089 4.26859 15.1389 4.05859 14.8389 3.79859L13.2589 2.43859C12.5689 1.84859 11.4389 1.84859 10.7389 2.43859L9.16891 3.80859C8.86891 4.05859 8.29891 4.26859 7.90891 4.26859H6.17891C5.11891 4.26859 4.24891 5.13859 4.24891 6.19859V7.90859C4.24891 8.29859 4.03891 8.85859 3.78891 9.15859L2.43891 10.7486C1.85891 11.4386 1.85891 12.5586 2.43891 13.2486L3.78891 14.8386C4.03891 15.1386 4.24891 15.6986 4.24891 16.0886V17.7986C4.24891 18.8586 5.11891 19.7286 6.17891 19.7286H7.90891C8.29891 19.7286 8.86891 19.9386 9.16891 20.1986L10.7489 21.5586C11.4389 22.1486 12.5689 22.1486 13.2689 21.5586L14.8489 20.1986C15.1489 19.9386 15.7089 19.7286 16.1089 19.7286H17.8089C18.8689 19.7286 19.7389 18.8586 19.7389 17.7986V16.0986C19.7389 15.7086 19.9489 15.1386 20.2089 14.8386L21.5689 13.2586C22.1489 12.5686 22.1489 11.4286 21.5589 10.7386ZM16.1589 10.1086L11.3289 14.9386C11.1889 15.0786 10.9989 15.1586 10.7989 15.1586C10.5989 15.1586 10.4089 15.0786 10.2689 14.9386L7.84891 12.5186C7.55891 12.2286 7.55891 11.7486 7.84891 11.4586C8.13891 11.1686 8.61891 11.1686 8.90891 11.4586L10.7989 13.3486L15.0989 9.04859C15.3889 8.75859 15.8689 8.75859 16.1589 9.04859C16.4489 9.33859 16.4489 9.81859 16.1589 10.1086Z" fill="#43A047"/>
</g>
</g>
</svg>
