<svg width="60" height="61" viewBox="0 0 60 61" fill="none" xmlns="http://www.w3.org/2000/svg">
<rect width="60" height="60.143" rx="30" fill="#F5F3FB"/>
<path d="M36.8726 33.0632C36.4996 32.8761 34.6646 31.9743 34.323 31.8487C33.9801 31.7244 33.7314 31.6628 33.4815 32.0371C33.2341 32.4101 32.5182 33.2504 32.3009 33.499C32.0836 33.749 31.8651 33.7791 31.492 33.5932C31.119 33.4049 29.9158 33.0117 28.4903 31.7407C27.3813 30.751 26.6315 29.529 26.4142 29.1547C26.1969 28.7817 26.3916 28.5795 26.5775 28.3936C26.7458 28.2265 26.9517 27.9578 27.1376 27.7405C27.3248 27.5219 27.3863 27.3662 27.5119 27.1163C27.6362 26.8676 27.5747 26.6503 27.4805 26.4632C27.3863 26.276 26.6403 24.4386 26.33 23.6913C26.0261 22.9641 25.7184 23.0633 25.4898 23.0507C25.2513 23.0412 25.0126 23.0371 24.7739 23.0382C24.5252 23.0382 24.1208 23.1311 23.7792 23.5054C23.4376 23.8784 22.473 24.7814 22.473 26.6189C22.473 28.4551 23.8106 30.2298 23.9965 30.4797C24.1836 30.7284 26.629 34.4988 30.373 36.1152C31.2635 36.4995 31.958 36.7294 32.5006 36.9002C33.3948 37.1853 34.2087 37.1451 34.8505 37.0484C35.5676 36.9416 37.0585 36.1453 37.37 35.2737C37.6814 34.4021 37.6814 33.6548 37.5872 33.499C37.4943 33.3433 37.2469 33.2504 36.8726 33.0632ZM30.0628 42.3611H30.0577C27.8344 42.3613 25.6519 41.7635 23.739 40.6304L23.2856 40.3616L18.587 41.5949L19.8405 37.0132L19.5453 36.5435C18.3025 34.5644 17.645 32.2741 17.6488 29.9372C17.6501 23.0922 23.2203 17.5233 30.0678 17.5233C33.3835 17.5233 36.5008 18.8169 38.8445 21.163C40.0008 22.3143 40.9173 23.6834 41.541 25.1912C42.1647 26.699 42.4832 28.3155 42.478 29.9472C42.4742 36.7922 36.9052 42.3611 30.0628 42.3611ZM40.6292 19.3808C39.2453 17.9879 37.5988 16.8834 35.785 16.1314C33.9712 15.3794 32.0263 14.9949 30.0628 15.0001C21.8299 15.0001 15.1294 21.7006 15.1256 29.9359C15.1256 32.5684 15.8126 35.1381 17.1201 37.4026L15 45.143L22.9188 43.0657C25.1087 44.2587 27.5627 44.884 30.0565 44.8843H30.0628C38.2943 44.8843 44.9962 38.1838 44.9999 29.9472C45.006 27.9845 44.6228 26.04 43.8726 24.2264C43.1224 22.4127 42.02 20.7657 40.6292 19.3808Z" fill="#695ACD"/>
</svg>
